<svg width="109" height="146" viewBox="0 0 109 146" fill="none" xmlns="http://www.w3.org/2000/svg">
<g clip-path="url(#clip0_3280_2405)">
<path d="M4.55798 130.242C4.55798 130.242 7.98435 126.729 12.2418 126.389C16.4988 126.049 34.67 125.029 34.67 125.029L38.9408 117.72L72.569 118.002L85.1331 128.996L4.55838 130.243L4.55798 130.242Z" fill="#1A2E35"/>
<path opacity="0.6" d="M4.55798 130.242C4.55798 130.242 7.98435 126.729 12.2418 126.389C16.4988 126.049 34.67 125.029 34.67 125.029L38.9408 117.72L72.569 118.002L85.1331 128.996L4.55838 130.243L4.55798 130.242Z" fill="white"/>
<path d="M76.5176 124.788L71.4283 119.289L51.2296 119.109L49.0552 124.914L76.5176 124.788Z" fill="#007CFF"/>
<path opacity="0.4" d="M76.5176 124.788L71.4283 119.289L51.2296 119.109L49.0552 124.871L76.5176 124.788Z" fill="white"/>
<path opacity="0.3" d="M50.973 119.794H71.0791L75.5796 124.792L76.5908 124.871L71.4283 119.289L51.2296 119.109L50.973 119.794Z" fill="black"/>
<path opacity="0.4" d="M72.0293 120.849L62.8647 124.829H66.7635L73.0563 121.99L72.0293 120.849Z" fill="white"/>
<path opacity="0.4" d="M67.2925 119.794L53.7466 124.914H50.7347L64.2957 119.794H67.2925Z" fill="white"/>
<path d="M24.261 121.167V128.359C24.261 128.529 24.5259 128.529 24.5259 128.359V121.167C24.5259 120.997 24.261 120.997 24.261 121.167Z" fill="#1A2E35"/>
<path d="M42.351 121.167V128.359C42.351 128.529 42.6158 128.529 42.6158 128.359V121.167C42.6158 120.997 42.351 120.997 42.351 121.167Z" fill="#1A2E35"/>
<path d="M60.4409 121.167V128.359C60.4409 128.529 60.7058 128.529 60.7058 128.359V121.167C60.7058 120.997 60.4409 120.997 60.4409 121.167Z" fill="#1A2E35"/>
<path d="M79.0361 120.385V127.577C79.0361 127.747 79.301 127.747 79.301 127.577V120.385C79.301 120.215 79.0361 120.215 79.0361 120.385Z" fill="#1A2E35"/>
<path d="M97.1538 119.168V126.36C97.1538 126.53 97.4187 126.53 97.4187 126.36V119.168C97.4187 118.998 97.1538 118.998 97.1538 119.168Z" fill="#1A2E35"/>
<path d="M56.7018 0H54.5V128.36H56.7018V0Z" fill="#1A2E35"/>
<path d="M8.55005 111.402L10.0835 108.024" stroke="#1A2E35" stroke-width="0.669" stroke-miterlimit="10"/>
<path d="M52.1228 5.79807L54.5 0.783539" stroke="#1A2E35" stroke-width="0.669" stroke-linecap="round" stroke-linejoin="round"/>
<path d="M48.9752 112.714L54.8433 119.794H56.7018L61.597 113.508" stroke="#1A2E35" stroke-width="0.669" stroke-miterlimit="10"/>
<path opacity="0.4" d="M56.7018 0H54.5V128.36H56.7018V0Z" fill="white"/>
<path d="M54.5001 110.895H6.94702V112.749H54.5001V110.895Z" fill="#1A2E35"/>
<path d="M54.5 110.895L50.6832 108.024" stroke="#1A2E35" stroke-width="0.669" stroke-miterlimit="10"/>
<path d="M54.5162 122.317L47.1492 112.714" stroke="#1A2E35" stroke-width="0.669" stroke-miterlimit="10"/>
<path d="M8.55005 108.024H51.5768L52.1228 5.22626L8.55005 108.024Z" fill="#007CFF"/>
<path opacity="0.4" d="M8.55005 108.024H51.5768L52.1228 5.22626L8.55005 108.024Z" fill="white"/>
<path opacity="0.4" d="M54.5001 110.895H6.94702V112.749H54.5001V110.895Z" fill="white"/>
<path opacity="0.3" d="M8.55005 108.024C8.55005 108.024 61.557 68.0748 38.9328 75.0905C22.558 80.1684 52.5916 11.2314 52.5916 11.2314L51.5768 108.024H8.55005Z" fill="#007CFF"/>
<path d="M6.01453 121.297C6.01453 121.297 12.3391 124.07 24.3935 121.862C24.3935 121.862 34.3642 124.801 42.4835 122.006C42.4835 122.006 52.9622 124.385 60.5735 121.988C60.5735 121.988 71.9988 123.887 79.1687 121.297C79.1687 121.297 94.0798 123.009 97.2864 120.385C97.2864 120.385 102.86 121.458 107.389 119.168" stroke="#007CFF" stroke-width="0.669" stroke-miterlimit="10"/>
<path d="M6.01453 124.027C6.01453 124.027 12.3391 126.8 24.3935 124.592C24.3935 124.592 34.3642 127.531 42.4835 124.736C42.4835 124.736 52.9622 127.115 60.5735 124.718C60.5735 124.718 71.9988 126.617 79.1687 124.027C79.1687 124.027 94.0798 125.739 97.2864 123.115C97.2864 123.115 102.86 124.188 107.389 121.898" stroke="#007CFF" stroke-width="0.669" stroke-miterlimit="10"/>
<path d="M99.0717 120.001L101.519 126.36" stroke="#1A2E35" stroke-width="0.446" stroke-miterlimit="10"/>
<path d="M61.597 113.508C61.597 113.508 87.3086 114.024 99.5151 120.22C99.5151 120.22 90.425 40.7101 57.9612 6.63477C57.9612 6.63477 68.869 80.7233 61.597 113.508Z" fill="#007CFF"/>
<path opacity="0.4" d="M61.597 113.508C61.597 113.508 87.3086 114.024 99.5151 120.22C99.5151 120.22 90.425 40.7101 57.9612 6.63477C57.9612 6.63477 68.869 80.7233 61.597 113.508Z" fill="white"/>
<path d="M2.97179e-05 128.15C2.97179e-05 128.15 4.06226 137.795 6.9957 141.272C9.92953 144.749 19.4077 145.758 22.5672 145.871C25.7267 145.983 83.8372 146.095 86.2068 145.871C88.5764 145.646 95.1208 144.412 99.183 137.683C103.245 130.954 109 125.346 109 125.346C108.891 125.346 42.2635 129.968 -0.000366211 128.15L2.97179e-05 128.15Z" fill="#007CFF"/>
<path d="M1.72156 131.989L2.60685 133.834C2.60685 133.834 88.858 132.398 104.417 130.405L105.772 128.811C105.772 128.811 52.7101 131.989 1.72156 131.989Z" fill="white"/>
<path opacity="0.4" d="M0 128.15C0 128.15 0.697231 129.804 1.7215 131.989C1.7215 131.989 83.1961 132.115 105.772 128.811C107.637 126.675 109 125.346 109 125.346C108.892 125.346 42.2638 129.968 0 128.15Z" fill="white"/>
<path opacity="0.3" d="M37.7652 139.013C38.2451 137.002 36.994 134.985 34.9706 134.507C32.9473 134.03 30.9179 135.274 30.4379 137.285C29.9579 139.296 31.2091 141.313 33.2325 141.791C35.2558 142.268 37.2852 141.024 37.7652 139.013Z" fill="black"/>
<path d="M35.1823 140.738C36.632 140.144 37.3232 138.495 36.7261 137.054C36.1291 135.613 34.4699 134.926 33.0202 135.519C31.5705 136.113 30.8793 137.762 31.4763 139.203C32.0734 140.644 33.7326 141.331 35.1823 140.738Z" fill="#007CFF"/>
<path opacity="0.4" d="M35.1823 140.738C36.632 140.144 37.3232 138.495 36.7261 137.054C36.1291 135.613 34.4699 134.926 33.0202 135.519C31.5705 136.113 30.8793 137.762 31.4763 139.203C32.0734 140.644 33.7326 141.331 35.1823 140.738Z" fill="white"/>
<path d="M35.95 135.987L31.5631 139.389C31.5631 139.389 32.0164 140.162 32.4409 140.414L36.7276 137.056C36.7276 137.056 36.3911 136.297 35.9496 135.988L35.95 135.987Z" fill="white"/>
<path opacity="0.3" d="M57.2349 140.774C58.6639 139.272 58.5977 136.903 57.087 135.483C55.5762 134.062 53.1931 134.128 51.7641 135.63C50.3351 137.132 50.4013 139.5 51.912 140.921C53.4228 142.341 55.8059 142.275 57.2349 140.774Z" fill="black"/>
<path d="M56.5071 140.176C57.6158 139.074 57.6158 137.287 56.5071 136.185C55.3985 135.083 53.6011 135.083 52.4924 136.185C51.3838 137.287 51.3838 139.074 52.4924 140.176C53.6011 141.278 55.3985 141.278 56.5071 140.176Z" fill="#007CFF"/>
<path opacity="0.4" d="M56.5071 140.176C57.6158 139.074 57.6158 137.287 56.5071 136.185C55.3985 135.083 53.6011 135.083 52.4924 136.185C51.3838 137.287 51.3838 139.074 52.4924 140.176C53.6011 141.278 55.3985 141.278 56.5071 140.176Z" fill="white"/>
<path d="M56.3482 136.04L51.9613 139.442C51.9613 139.442 52.4146 140.215 52.8391 140.467L57.1258 137.108C57.1258 137.108 56.7893 136.35 56.3478 136.041L56.3482 136.04Z" fill="white"/>
<path opacity="0.3" d="M75.5558 140.774C77.0263 139.313 77.0263 136.943 75.5558 135.481C74.0854 134.02 71.7014 134.02 70.2309 135.481C68.7605 136.943 68.7605 139.313 70.2309 140.774C71.7014 142.236 74.0854 142.236 75.5558 140.774Z" fill="black"/>
<path d="M75.6568 138.754C76.0157 137.237 75.0695 135.718 73.5433 135.361C72.0172 135.004 70.4889 135.945 70.13 137.462C69.771 138.979 70.7172 140.498 72.2434 140.854C73.7696 141.211 75.2978 140.271 75.6568 138.754Z" fill="#007CFF"/>
<path opacity="0.4" d="M75.6568 138.754C76.0157 137.237 75.0695 135.718 73.5433 135.361C72.0172 135.004 70.4889 135.945 70.13 137.462C69.771 138.979 70.7172 140.498 72.2434 140.854C73.7696 141.211 75.2978 140.271 75.6568 138.754Z" fill="white"/>
<path d="M74.7415 135.967L70.3546 139.369C70.3546 139.369 70.808 140.142 71.2324 140.394L75.5191 137.035C75.5191 137.035 75.1826 136.277 74.7411 135.968L74.7415 135.967Z" fill="white"/>
<path opacity="0.3" d="M58.2467 8.65167C58.2467 8.65167 63.5399 38.5299 71.0887 73.9426C74.968 92.1416 85.002 108.473 99.5148 120.219C90.0525 115.848 76.6808 114.103 61.5967 113.507C61.5967 113.507 63.4639 103.366 63.745 96.2675C63.9152 91.9661 64.1619 83.6902 64.0554 76.1653C63.9861 71.2708 63.566 66.6573 63.568 63.7868C63.5727 55.9497 58.2467 8.65207 58.2467 8.65207V8.65167Z" fill="#007CFF"/>
<path d="M15.7437 125.454V128.369C15.7437 128.538 16.0085 128.538 16.0085 128.369V125.454C16.0085 125.284 15.7437 125.284 15.7437 125.454Z" fill="#1A2E35"/>
<path d="M16.4231 128.317H15.429V128.962H16.4231V128.317Z" fill="#1A2E35"/>
<path d="M15.9263 134.13C17.3966 134.13 18.5885 132.945 18.5885 131.483C18.5885 130.022 17.3966 128.837 15.9263 128.837C14.456 128.837 13.264 130.022 13.264 131.483C13.264 132.945 14.456 134.13 15.9263 134.13Z" fill="#007CFF"/>
<path opacity="0.3" d="M15.9263 134.13C17.3966 134.13 18.5885 132.945 18.5885 131.483C18.5885 130.022 17.3966 128.837 15.9263 128.837C14.456 128.837 13.264 130.022 13.264 131.483C13.264 132.945 14.456 134.13 15.9263 134.13Z" fill="black"/>
<path opacity="0.2" d="M14.0641 130.042C14.0641 130.042 13.066 131.701 13.9944 132.916C14.9989 134.23 16.5153 133.747 16.5153 133.747C16.5153 133.747 14.97 133.432 14.5891 132.478C14.0645 131.165 14.8865 130.334 14.8865 130.334L14.0641 130.042Z" fill="white"/>
<path d="M14.0642 129.593C14.0642 129.593 15.9271 130.605 17.7879 129.593C17.7879 129.593 17.095 128.778 15.9263 128.837C14.7579 128.896 14.1889 129.463 14.0642 129.593Z" fill="#1A2E35"/>
<path d="M50.4001 125.454V128.369C50.4001 128.538 50.665 128.538 50.665 128.369V125.454C50.665 125.284 50.4001 125.284 50.4001 125.454Z" fill="#1A2E35"/>
<path d="M51.0791 128.317H50.085V128.962H51.0791V128.317Z" fill="#1A2E35"/>
<path d="M50.5823 134.13C52.0526 134.13 53.2445 132.945 53.2445 131.483C53.2445 130.022 52.0526 128.837 50.5823 128.837C49.112 128.837 47.92 130.022 47.92 131.483C47.92 132.945 49.112 134.13 50.5823 134.13Z" fill="#007CFF"/>
<path opacity="0.3" d="M50.5823 134.13C52.0526 134.13 53.2445 132.945 53.2445 131.483C53.2445 130.022 52.0526 128.837 50.5823 128.837C49.112 128.837 47.92 130.022 47.92 131.483C47.92 132.945 49.112 134.13 50.5823 134.13Z" fill="black"/>
<path opacity="0.2" d="M48.7203 130.042C48.7203 130.042 47.7221 131.701 48.6506 132.916C49.655 134.23 51.1715 133.747 51.1715 133.747C51.1715 133.747 49.6261 133.432 49.2453 132.478C48.7207 131.165 49.5426 130.334 49.5426 130.334L48.7203 130.042Z" fill="white"/>
<path d="M48.7202 129.593C48.7202 129.593 50.5831 130.605 52.4439 129.593C52.4439 129.593 51.7507 128.778 50.5823 128.837C49.4139 128.896 48.8449 129.463 48.7202 129.593Z" fill="#1A2E35"/>
<path d="M88.1785 124.574V128.369C88.1785 128.538 88.4433 128.538 88.4433 128.369V124.574C88.4433 124.405 88.1785 124.405 88.1785 124.574Z" fill="#1A2E35"/>
<path d="M88.8575 128.317H87.8633V128.962H88.8575V128.317Z" fill="#1A2E35"/>
<path d="M88.3606 134.13C89.8309 134.13 91.0228 132.945 91.0228 131.483C91.0228 130.022 89.8309 128.837 88.3606 128.837C86.8903 128.837 85.6984 130.022 85.6984 131.483C85.6984 132.945 86.8903 134.13 88.3606 134.13Z" fill="#007CFF"/>
<path opacity="0.3" d="M88.3606 134.13C89.8309 134.13 91.0228 132.945 91.0228 131.483C91.0228 130.022 89.8309 128.837 88.3606 128.837C86.8903 128.837 85.6984 130.022 85.6984 131.483C85.6984 132.945 86.8903 134.13 88.3606 134.13Z" fill="black"/>
<path opacity="0.2" d="M86.4986 130.042C86.4986 130.042 85.5004 131.701 86.4289 132.916C87.4334 134.23 88.9498 133.747 88.9498 133.747C88.9498 133.747 87.4045 133.432 87.0236 132.478C86.499 131.165 87.3209 130.334 87.3209 130.334L86.4986 130.042Z" fill="white"/>
<path d="M86.4985 129.593C86.4985 129.593 88.3614 130.605 90.2222 129.593C90.2222 129.593 89.5294 128.778 88.3606 128.837C87.1922 128.896 86.6233 129.463 86.4985 129.593Z" fill="#1A2E35"/>
<path opacity="0.3" d="M18.1771 108.024C18.1771 108.024 36.2655 107.611 40.3689 105.031C44.4723 102.45 51.7911 87.6343 51.7911 87.6343L51.5773 108.024H18.1771" fill="#007CFF"/>
<path opacity="0.3" d="M13.264 144.48L93.9238 143.167C93.9238 143.167 90.4349 145.793 86.2072 145.871C81.9791 145.948 21.2685 146 21.2685 146C21.2685 146 14.0686 144.71 13.264 144.48Z" fill="black"/>
</g>
<defs>
<clipPath id="clip0_3280_2405">
<rect width="109" height="146" fill="white"/>
</clipPath>
</defs>
</svg>
