<svg width="192" height="88" viewBox="0 0 192 88" fill="none" xmlns="http://www.w3.org/2000/svg">
<g clip-path="url(#clip0_3288_2593)">
<path d="M191.142 57.5614H19.77L33.5657 33.178H168.432C168.432 33.178 191.142 36.4029 191.142 57.5614Z" fill="white"/>
<path d="M171.84 82.8282C171.84 83.9402 171.469 84.9593 170.853 85.7511C170.073 86.7535 168.899 87.3912 167.587 87.3912H8.38921C7.80258 87.3912 7.27148 87.1363 6.88665 86.7242C6.50125 86.3112 6.2627 85.7403 6.2627 85.1097C6.2627 84.4271 6.54199 83.8146 6.9848 83.3964C7.35939 83.0427 7.8509 82.8282 8.38921 82.8282H171.84Z" fill="#857A7C"/>
<path d="M0.378418 57.5598C7.654 68.3383 10.7715 82.8283 10.7715 82.8283H171.296C173.459 82.8283 175.535 82.1758 177.314 81.0016C178.967 79.9114 180.364 78.3717 181.34 76.4876L191.141 57.56H0.378418V57.5598Z" fill="#104460"/>
<path d="M168.991 33.1804H33.5631C33.0537 33.1804 32.5746 33.042 32.1564 32.7982C31.2365 32.2622 30.6119 31.2164 30.6119 30.0142C30.6119 29.1824 30.9109 28.4253 31.4 27.8602C31.939 27.2375 32.7085 26.848 33.5631 26.848H168.991C169.806 26.848 170.544 27.2023 171.077 27.7752C171.612 28.3483 171.942 29.1399 171.942 30.014C171.942 30.8849 171.614 31.6738 171.084 32.2461C170.549 32.823 169.809 33.1802 168.991 33.1802V33.1804Z" fill="#B6B6B7"/>
<path d="M45.1494 24.4404V19.5457H33.0617C32.1219 19.5457 31.2711 19.9543 30.6553 20.6151C30.0393 21.2758 29.6584 22.1886 29.6584 23.1969C29.6584 24.5221 30.3165 25.6827 31.3014 26.3224C31.8149 26.6562 32.4174 26.8481 33.0617 26.8481H94.847V24.4404H45.1494Z" fill="#104460"/>
<path d="M94.8465 24.4389H45.1473V19.5462L50.8836 12.8197L52.3407 11.1149L52.3464 11.1088L61.8169 0C61.8169 0 68.2013 0.473861 75.3545 2.88016C76.083 3.12025 76.8173 3.38472 77.5515 3.6742C79.3011 4.34505 81.0565 5.14518 82.7487 6.0805C82.915 6.1728 83.0871 6.27139 83.2535 6.36368V6.36978C87.7621 8.95457 91.7317 12.5796 93.6418 17.6262L93.9171 18.4017C94.5136 20.2295 94.8463 22.2359 94.8463 24.4391L94.8465 24.4389Z" fill="#00ACBA"/>
<path d="M191.142 57.5613H129.7C129.7 56.4105 129.838 55.278 130.107 54.1949C130.377 53.1118 130.767 52.0779 131.278 51.1178C132.672 48.459 134.926 46.342 137.719 45.2464L140.576 44.1263L141.368 43.8125L164.365 34.778L167.537 33.5286L168.432 33.1777C168.432 33.1777 170.52 33.4731 173.428 34.4763L173.979 34.6733C178.115 36.175 183.656 39.0613 187.304 44.4032L187.677 44.9694C189.759 48.225 191.142 52.3485 191.142 57.5611L191.142 57.5613Z" fill="#00ACBA"/>
<path d="M135.66 33.1556H137.621V41.5128L159.914 33.1113L74.5906 33.1607V47.2918H107.194V33.1556H109.155V47.2918H113.891C117.118 47.2918 120.332 46.9513 123.487 46.2788C125.764 45.7934 128.01 45.1349 130.207 44.3067L135.66 42.2517V33.1558L135.66 33.1556Z" fill="#DBD7D8"/>
<path d="M72.6304 33.1617L40.4822 33.1804C40.4822 38.0514 42.7824 42.3458 46.281 44.8818C48.3802 46.4032 50.9109 47.2918 53.6348 47.2918H72.6302V33.1617H72.6304Z" fill="#DBD7D8"/>
<path d="M49.5046 34.6608H46.1451V36.2627H49.5046V34.6608Z" fill="#6B769E"/>
<path d="M49.5046 37.7432H46.1451V39.3451H49.5046V37.7432Z" fill="#6B769E"/>
<path d="M49.5046 40.8254H46.1451V42.4273H49.5046V40.8254Z" fill="#6B769E"/>
<path d="M54.5811 34.6608H51.2217V36.2627H54.5811V34.6608Z" fill="#6B769E"/>
<path d="M54.5811 37.7432H51.2217V39.3451H54.5811V37.7432Z" fill="#6B769E"/>
<path d="M54.5811 40.8254H51.2217V42.4273H54.5811V40.8254Z" fill="#6B769E"/>
<path d="M54.5811 43.9077H51.2217V45.5096H54.5811V43.9077Z" fill="#6B769E"/>
<path d="M59.6574 34.6608H56.298V36.2627H59.6574V34.6608Z" fill="#6B769E"/>
<path d="M59.6574 37.7432H56.298V39.3451H59.6574V37.7432Z" fill="#6B769E"/>
<path d="M59.6574 40.8254H56.298V42.4273H59.6574V40.8254Z" fill="#6B769E"/>
<path d="M59.6574 43.9077H56.298V45.5096H59.6574V43.9077Z" fill="#6B769E"/>
<path d="M64.7338 34.6608H61.3744V36.2627H64.7338V34.6608Z" fill="#6B769E"/>
<path d="M64.7338 37.7432H61.3744V39.3451H64.7338V37.7432Z" fill="#6B769E"/>
<path d="M64.7338 40.8254H61.3744V42.4273H64.7338V40.8254Z" fill="#6B769E"/>
<path d="M64.7338 43.9077H61.3744V45.5096H64.7338V43.9077Z" fill="#6B769E"/>
<path d="M69.8102 34.6608H66.4509V36.2627H69.8102V34.6608Z" fill="#6B769E"/>
<path d="M69.8102 37.7432H66.4509V39.3451H69.8102V37.7432Z" fill="#6B769E"/>
<path d="M69.8102 40.8254H66.4509V42.4273H69.8102V40.8254Z" fill="#6B769E"/>
<path d="M69.8102 43.9077H66.4509V45.5096H69.8102V43.9077Z" fill="#6B769E"/>
<path d="M84.8049 34.6608H81.4457V36.2627H84.8049V34.6608Z" fill="#6B769E"/>
<path d="M84.8049 37.7432H81.4457V39.3451H84.8049V37.7432Z" fill="#6B769E"/>
<path d="M84.8049 40.8254H81.4457V42.4273H84.8049V40.8254Z" fill="#6B769E"/>
<path d="M84.8049 43.9077H81.4457V45.5096H84.8049V43.9077Z" fill="#6B769E"/>
<path d="M79.8336 34.6608H76.4744V36.2627H79.8336V34.6608Z" fill="#6B769E"/>
<path d="M79.8336 37.7432H76.4744V39.3451H79.8336V37.7432Z" fill="#6B769E"/>
<path d="M79.8336 40.8254H76.4744V42.4273H79.8336V40.8254Z" fill="#6B769E"/>
<path d="M79.8336 43.9077H76.4744V45.5096H79.8336V43.9077Z" fill="#6B769E"/>
<path d="M89.8815 34.6608H86.5221V36.2627H89.8815V34.6608Z" fill="#6B769E"/>
<path d="M89.8815 37.7432H86.5221V39.3451H89.8815V37.7432Z" fill="#6B769E"/>
<path d="M89.8815 40.8254H86.5221V42.4273H89.8815V40.8254Z" fill="#6B769E"/>
<path d="M89.8815 43.9077H86.5221V45.5096H89.8815V43.9077Z" fill="#6B769E"/>
<path d="M94.9578 34.6608H91.5984V36.2627H94.9578V34.6608Z" fill="#6B769E"/>
<path d="M94.9578 37.7432H91.5984V39.3451H94.9578V37.7432Z" fill="#6B769E"/>
<path d="M94.9578 40.8254H91.5984V42.4273H94.9578V40.8254Z" fill="#6B769E"/>
<path d="M94.9578 43.9077H91.5984V45.5096H94.9578V43.9077Z" fill="#6B769E"/>
<path d="M100.034 34.6608H96.6749V36.2627H100.034V34.6608Z" fill="#6B769E"/>
<path d="M100.034 37.7432H96.6749V39.3451H100.034V37.7432Z" fill="#6B769E"/>
<path d="M100.034 40.8254H96.6749V42.4273H100.034V40.8254Z" fill="#6B769E"/>
<path d="M100.034 43.9077H96.6749V45.5096H100.034V43.9077Z" fill="#6B769E"/>
<path d="M105.111 34.6608H101.751V36.2627H105.111V34.6608Z" fill="#6B769E"/>
<path d="M105.111 37.7432H101.751V39.3451H105.111V37.7432Z" fill="#6B769E"/>
<path d="M105.111 40.8254H101.751V42.4273H105.111V40.8254Z" fill="#6B769E"/>
<path d="M105.111 43.9077H101.751V45.5096H105.111V43.9077Z" fill="#6B769E"/>
<path d="M119.079 34.6608H115.72V36.2627H119.079V34.6608Z" fill="#6B769E"/>
<path d="M119.079 37.7432H115.72V39.3451H119.079V37.7432Z" fill="#6B769E"/>
<path d="M119.079 40.8254H115.72V42.4273H119.079V40.8254Z" fill="#6B769E"/>
<path d="M119.079 43.9077H115.72V45.5096H119.079V43.9077Z" fill="#6B769E"/>
<path d="M114.108 34.6608H110.749V36.2627H114.108V34.6608Z" fill="#6B769E"/>
<path d="M114.108 37.7432H110.749V39.3451H114.108V37.7432Z" fill="#6B769E"/>
<path d="M114.108 40.8254H110.749V42.4273H114.108V40.8254Z" fill="#6B769E"/>
<path d="M114.108 43.9077H110.749V45.5096H114.108V43.9077Z" fill="#6B769E"/>
<path d="M124.156 34.6608H120.796V36.2627H124.156V34.6608Z" fill="#6B769E"/>
<path d="M124.156 37.7432H120.796V39.3451H124.156V37.7432Z" fill="#6B769E"/>
<path d="M124.156 40.8254H120.796V42.4273H124.156V40.8254Z" fill="#6B769E"/>
<path d="M124.156 43.9077H120.796V45.5096H124.156V43.9077Z" fill="#6B769E"/>
<path d="M129.232 34.6608H125.873V36.2627H129.232V34.6608Z" fill="#6B769E"/>
<path d="M129.232 37.7432H125.873V39.3451H129.232V37.7432Z" fill="#6B769E"/>
<path d="M129.232 40.8254H125.873V42.4273H129.232V40.8254Z" fill="#6B769E"/>
<path d="M134.309 34.6608H130.949V36.2627H134.309V34.6608Z" fill="#6B769E"/>
<path d="M134.309 37.7432H130.949V39.3451H134.309V37.7432Z" fill="#6B769E"/>
<path d="M147.716 34.6608H144.357V36.2627H147.716V34.6608Z" fill="#6B769E"/>
<path d="M142.745 34.6608H139.385V36.2627H142.745V34.6608Z" fill="#6B769E"/>
<path d="M142.745 37.7432H139.385V39.3451H142.745V37.7432Z" fill="#6B769E"/>
<path d="M47.6382 50.1519H46.1451V51.7538H47.6382V50.1519Z" fill="#104460"/>
<path d="M52.4041 50.1519H50.911V51.7538H52.4041V50.1519Z" fill="#104460"/>
<path d="M57.1703 50.1519H55.6772V51.7538H57.1703V50.1519Z" fill="#104460"/>
<path d="M61.9361 50.1519H60.443V51.7538H61.9361V50.1519Z" fill="#104460"/>
<path d="M66.7022 50.1519H65.2091V51.7538H66.7022V50.1519Z" fill="#104460"/>
<path d="M71.4681 50.1519H69.975V51.7538H71.4681V50.1519Z" fill="#104460"/>
<path d="M76.2341 50.1519H74.741V51.7538H76.2341V50.1519Z" fill="#104460"/>
<path d="M81 50.1519H79.507V51.7538H81V50.1519Z" fill="#104460"/>
<path d="M85.7662 50.1519H84.2731V51.7538H85.7662V50.1519Z" fill="#104460"/>
<path d="M90.532 50.1519H89.0389V51.7538H90.532V50.1519Z" fill="#104460"/>
<path d="M95.298 50.1519H93.8049V51.7538H95.298V50.1519Z" fill="#104460"/>
<path d="M100.064 50.1519H98.5708V51.7538H100.064V50.1519Z" fill="#104460"/>
<path d="M104.83 50.1519H103.337V51.7538H104.83V50.1519Z" fill="#104460"/>
<path d="M109.596 50.1519H108.103V51.7538H109.596V50.1519Z" fill="#104460"/>
<path d="M114.362 50.1519H112.869V51.7538H114.362V50.1519Z" fill="#104460"/>
<path d="M119.128 50.1519H117.635V51.7538H119.128V50.1519Z" fill="#104460"/>
<path d="M123.894 50.1519H122.401V51.7538H123.894V50.1519Z" fill="#104460"/>
<path d="M128.66 50.1519H127.167V51.7538H128.66V50.1519Z" fill="#104460"/>
<path d="M47.6382 53.8467H46.1451V55.4486H47.6382V53.8467Z" fill="#104460"/>
<path d="M52.4041 53.8467H50.911V55.4486H52.4041V53.8467Z" fill="#104460"/>
<path d="M57.1703 53.8467H55.6772V55.4486H57.1703V53.8467Z" fill="#104460"/>
<path d="M61.9361 53.8467H60.443V55.4486H61.9361V53.8467Z" fill="#104460"/>
<path d="M66.7022 53.8467H65.2091V55.4486H66.7022V53.8467Z" fill="#104460"/>
<path d="M71.4681 53.8467H69.975V55.4486H71.4681V53.8467Z" fill="#104460"/>
<path d="M76.2341 53.8467H74.741V55.4486H76.2341V53.8467Z" fill="#104460"/>
<path d="M81 53.8467H79.507V55.4486H81V53.8467Z" fill="#104460"/>
<path d="M85.7662 53.8467H84.2731V55.4486H85.7662V53.8467Z" fill="#104460"/>
<path d="M90.532 53.8467H89.0389V55.4486H90.532V53.8467Z" fill="#104460"/>
<path d="M95.298 53.8467H93.8049V55.4486H95.298V53.8467Z" fill="#104460"/>
<path d="M100.064 53.8467H98.5708V55.4486H100.064V53.8467Z" fill="#104460"/>
<path d="M104.83 53.8467H103.337V55.4486H104.83V53.8467Z" fill="#104460"/>
<path d="M109.596 53.8467H108.103V55.4486H109.596V53.8467Z" fill="#104460"/>
<path d="M114.362 53.8467H112.869V55.4486H114.362V53.8467Z" fill="#104460"/>
<path d="M119.128 53.8467H117.635V55.4486H119.128V53.8467Z" fill="#104460"/>
<path d="M123.894 53.8467H122.401V55.4486H123.894V53.8467Z" fill="#104460"/>
<path d="M128.66 53.8467H127.167V55.4486H128.66V53.8467Z" fill="#104460"/>
<path d="M167.537 33.5288L156.099 57.5613H153.523L164.365 34.7782L167.537 33.5288Z" fill="#E7ECEC"/>
<path d="M163.086 57.5614L173.979 34.6735L173.428 34.4766L162.443 57.5614H163.086Z" fill="#E7ECEC"/>
<path d="M77.5515 3.6742L67.668 24.4389H65.0924L75.3545 2.88037C76.0831 3.12045 76.8173 3.38493 77.5515 3.67441V3.6742Z" fill="#E7ECEC"/>
<path d="M83.2534 6.36362V6.36972L74.6547 24.4388H74.0122L82.7487 6.08044L83.2534 6.36362Z" fill="#E7ECEC"/>
<path d="M91.0433 24.4389L93.9173 18.4015L93.642 17.626L90.401 24.4389H91.0433Z" fill="#E7ECEC"/>
<path d="M52.3464 11.1086L52.3407 11.1147L45.9962 24.439H45.3539L50.8836 12.8195L52.3464 11.1086Z" fill="#E7ECEC"/>
<path d="M181.683 57.5614L187.677 44.9698L187.304 44.4034L181.04 57.5614H181.683Z" fill="#E7ECEC"/>
<path d="M134.823 57.5614L141.368 43.8127L140.576 44.1266L134.18 57.5614H134.823Z" fill="#E7ECEC"/>
<path d="M138.714 65.0598C138.714 66.2525 137.813 67.2195 136.701 67.2195C135.59 67.2195 134.688 66.2527 134.688 65.0598C134.688 63.8669 135.589 62.9003 136.701 62.9003C137.813 62.9003 138.714 63.8671 138.714 65.0598Z" fill="white"/>
<path d="M149.729 65.0598C149.729 66.2525 148.828 67.2195 147.716 67.2195C146.604 67.2195 145.703 66.2527 145.703 65.0598C145.703 63.8669 146.604 62.9003 147.716 62.9003C148.828 62.9003 149.729 63.8671 149.729 65.0598Z" fill="white"/>
<path d="M160.744 65.0598C160.744 66.2525 159.843 67.2195 158.731 67.2195C157.619 67.2195 156.718 66.2527 156.718 65.0598C156.718 63.8669 157.619 62.9003 158.731 62.9003C159.843 62.9003 160.744 63.8671 160.744 65.0598Z" fill="white"/>
<path d="M171.759 65.0598C171.759 66.2525 170.857 67.2195 169.746 67.2195C168.634 67.2195 167.733 66.2527 167.733 65.0598C167.733 63.8669 168.634 62.9003 169.746 62.9003C170.858 62.9003 171.759 63.8671 171.759 65.0598Z" fill="white"/>
<path d="M129.232 64.259H125.873V65.8609H129.232V64.259Z" fill="white"/>
<path d="M123.147 64.259H119.788V65.8609H123.147V64.259Z" fill="white"/>
<path d="M117.062 64.259H113.703V65.8609H117.062V64.259Z" fill="white"/>
<path d="M110.977 64.259H107.618V65.8609H110.977V64.259Z" fill="white"/>
<path d="M104.892 64.259H101.533V65.8609H104.892V64.259Z" fill="white"/>
<path d="M98.8073 64.259H95.4479V65.8609H98.8073V64.259Z" fill="white"/>
<path d="M92.7223 64.259H89.363V65.8609H92.7223V64.259Z" fill="white"/>
<path d="M86.6373 64.259H83.2778V65.8609H86.6373V64.259Z" fill="white"/>
<path d="M80.5524 64.259H77.193V65.8609H80.5524V64.259Z" fill="white"/>
<path d="M74.4674 64.259H71.1079V65.8609H74.4674V64.259Z" fill="white"/>
<path d="M68.3825 64.259H65.0231V65.8609H68.3825V64.259Z" fill="white"/>
<path d="M62.2974 64.259H58.938V65.8609H62.2974V64.259Z" fill="white"/>
<path d="M56.2125 64.259H52.853V65.8609H56.2125V64.259Z" fill="white"/>
<path d="M50.1274 64.259H46.7682V65.8609H50.1274V64.259Z" fill="white"/>
<path d="M44.0425 64.259H40.6831V65.8609H44.0425V64.259Z" fill="white"/>
<path d="M37.9573 64.259H34.5979V65.8609H37.9573V64.259Z" fill="white"/>
<path d="M169.058 26.8481H161.277L164.346 16.9429C164.502 16.4398 164.791 16.0145 165.164 15.7064C165.577 15.365 166.092 15.1672 166.64 15.1672C167.484 15.1672 168.226 15.6307 168.659 16.3335C168.911 16.7429 169.058 17.2336 169.058 17.761V26.8479V26.8481Z" fill="#104460"/>
</g>
<defs>
<clipPath id="clip0_3288_2593">
<rect width="190.763" height="87.391" fill="white" transform="translate(0.378418)"/>
</clipPath>
</defs>
</svg>
