<svg width="32" height="33" viewBox="0 0 32 33" fill="none" xmlns="http://www.w3.org/2000/svg">
<g clip-path="url(#clip0_3452_23)">
<path d="M32 16.0889C32 7.25236 24.8365 0.0888672 16 0.0888672C7.1635 0.0888672 0 7.25236 0 16.0889C0 24.0749 5.85102 30.6941 13.5 31.8945V20.7139H9.43739V16.0889H13.5V12.5639C13.5 8.55394 15.8886 6.33882 19.5435 6.33882C21.294 6.33882 23.1251 6.65124 23.1251 6.65124V10.5887H21.1074C19.1199 10.5887 18.5 11.822 18.5 13.0873V16.0886H22.9376L22.2281 20.7137H18.5V31.8943C26.149 30.6939 32 24.0749 32 16.0889Z" fill="#B78BEF"/>
<path d="M22.2281 20.7137L22.9376 16.0887H18.5V13.0873C18.5 11.822 19.1199 10.5887 21.1074 10.5887H23.1251V6.65128C23.1251 6.65128 21.294 6.33887 19.5435 6.33887C15.8888 6.33887 13.5 8.55398 13.5 12.5639V16.0889H9.43738V20.714H13.5V31.8945C14.3147 32.0223 15.1495 32.0889 16 32.0889C16.8505 32.0889 17.6853 32.0223 18.5 31.8945V20.714L22.2281 20.7137Z" fill="white"/>
</g>
<defs>
<clipPath id="clip0_3452_23">
<rect width="32" height="32" fill="white" transform="translate(0 0.0888672)"/>
</clipPath>
</defs>
</svg>
