<svg width="32" height="33" viewBox="0 0 32 33" fill="none" xmlns="http://www.w3.org/2000/svg">
<g clip-path="url(#clip0_3452_7)">
<path d="M16 32.0889C24.8366 32.0889 32 24.9254 32 16.0889C32 7.25231 24.8366 0.0888672 16 0.0888672C7.16344 0.0888672 0 7.25231 0 16.0889C0 24.9254 7.16344 32.0889 16 32.0889Z" fill="#B78BEF"/>
<path d="M16 7.82988C18.6899 7.82988 19.0085 7.84007 20.0709 7.88866C21.0531 7.93346 21.5865 8.09749 21.9415 8.23545C22.4118 8.4182 22.7472 8.63652 23.0999 8.98899C23.4524 9.34146 23.6707 9.67711 23.8535 10.1474C23.9914 10.5025 24.1555 11.0358 24.2003 12.0181C24.2486 13.0805 24.2591 13.3991 24.2591 16.089C24.2591 18.7789 24.2489 19.0974 24.2003 20.1598C24.1555 21.1421 23.9914 21.6754 23.8535 22.0305C23.6707 22.5008 23.4524 22.8365 23.0999 23.1889C22.7475 23.5414 22.4118 23.7597 21.9415 23.9425C21.5865 24.0804 21.0531 24.2445 20.0709 24.2893C19.0087 24.3376 18.6901 24.348 16 24.348C13.3098 24.348 12.9913 24.3378 11.9291 24.2893C10.9468 24.2445 10.4135 24.0804 10.0584 23.9425C9.58813 23.7597 9.25272 23.5414 8.90001 23.1889C8.54753 22.8365 8.32922 22.5008 8.14647 22.0305C8.00851 21.6754 7.84448 21.1421 7.79968 20.1598C7.75133 19.0974 7.7409 18.7789 7.7409 16.089C7.7409 13.3991 7.75109 13.0805 7.79968 12.0181C7.84448 11.0358 8.00851 10.5025 8.14647 10.1474C8.32922 9.67711 8.54753 9.34146 8.90001 8.98899C9.25248 8.63652 9.58813 8.4182 10.0584 8.23545C10.4135 8.09749 10.9468 7.93346 11.9291 7.88866C12.9915 7.84031 13.3101 7.82988 16 7.82988ZM16 6.01465C13.2641 6.01465 12.9209 6.02626 11.8464 6.07533C10.774 6.12416 10.0418 6.29459 9.4011 6.54348C8.73858 6.8009 8.17681 7.14532 7.61669 7.70543C7.05657 8.26555 6.71216 8.82733 6.45473 9.48985C6.20561 10.1306 6.03541 10.863 5.98658 11.9351C5.93752 13.0096 5.9259 13.3526 5.9259 16.0887C5.9259 18.8248 5.93752 19.1678 5.98658 20.2423C6.03541 21.3147 6.20584 22.0469 6.45473 22.6876C6.71216 23.3501 7.05657 23.9119 7.61669 24.472C8.17681 25.0321 8.73858 25.3765 9.4011 25.634C10.0418 25.8831 10.7743 26.0533 11.8464 26.1021C12.9209 26.1512 13.2639 26.1628 16 26.1628C18.7361 26.1628 19.0791 26.1512 20.1536 26.1021C21.2259 26.0533 21.9581 25.8829 22.5989 25.634C23.2614 25.3765 23.8231 25.0321 24.3833 24.472C24.9434 23.9119 25.2878 23.3501 25.5452 22.6876C25.7943 22.0469 25.9645 21.3144 26.0134 20.2423C26.0624 19.1678 26.0741 18.8248 26.0741 16.0887C26.0741 13.3526 26.0624 13.0096 26.0134 11.9351C25.9645 10.8628 25.7941 10.1306 25.5452 9.48985C25.2878 8.82733 24.9434 8.26555 24.3833 7.70543C23.8231 7.14532 23.2614 6.8009 22.5989 6.54348C21.9581 6.29435 21.2257 6.12416 20.1536 6.07533C19.0791 6.02626 18.7361 6.01465 16 6.01465Z" fill="white"/>
<path d="M16 10.916C13.143 10.916 10.8269 13.2321 10.8269 16.0891C10.8269 18.9461 13.143 21.2622 16 21.2622C18.857 21.2622 21.1731 18.9461 21.1731 16.0891C21.1731 13.2321 18.857 10.916 16 10.916ZM16 19.4472C14.1454 19.4472 12.6419 17.9437 12.6419 16.0891C12.6419 14.2345 14.1454 12.731 16 12.731C17.8546 12.731 19.3581 14.2345 19.3581 16.0891C19.3581 17.9437 17.8546 19.4472 16 19.4472Z" fill="white"/>
<path d="M21.3777 11.9197C22.0453 11.9197 22.5865 11.3785 22.5865 10.7108C22.5865 10.0432 22.0453 9.50195 21.3777 9.50195C20.71 9.50195 20.1688 10.0432 20.1688 10.7108C20.1688 11.3785 20.71 11.9197 21.3777 11.9197Z" fill="white"/>
</g>
<defs>
<clipPath id="clip0_3452_7">
<rect width="32" height="32" fill="white" transform="translate(0 0.0888672)"/>
</clipPath>
</defs>
</svg>
