<svg width="32" height="33" viewBox="0 0 32 33" fill="none" xmlns="http://www.w3.org/2000/svg">
<g clip-path="url(#clip0_3452_13)">
<path d="M16 32.0889C24.8366 32.0889 32 24.9254 32 16.0889C32 7.25231 24.8366 0.0888672 16 0.0888672C7.16344 0.0888672 0 7.25231 0 16.0889C0 24.9254 7.16344 32.0889 16 32.0889Z" fill="#B78BEF"/>
<path d="M17.2381 13.9068C17.5007 13.6115 17.7174 13.3118 17.9874 13.0575C18.817 12.2755 19.7986 11.8811 20.9444 11.8908C21.574 11.8963 22.1967 11.9415 22.8037 12.1172C24.1925 12.5187 24.9996 13.4747 25.3843 14.8312C25.673 15.8486 25.7261 16.8932 25.728 17.9409C25.7318 20.1511 25.7216 22.3614 25.7264 24.5716C25.7268 24.7785 25.6688 24.8328 25.4652 24.8311C24.3267 24.8216 23.1877 24.8214 22.0492 24.8314C21.8489 24.833 21.8055 24.7709 21.8063 24.5818C21.8127 22.4788 21.8143 20.3755 21.8074 18.2725C21.8058 17.7454 21.7721 17.2189 21.6242 16.7062C21.3519 15.7623 20.6761 15.2814 19.6871 15.3335C18.337 15.4049 17.6349 16.0733 17.4626 17.4465C17.4215 17.7743 17.4021 18.1024 17.4023 18.4328C17.404 20.4782 17.4002 22.5236 17.4078 24.5687C17.4085 24.7728 17.3573 24.8328 17.1492 24.8309C16.0024 24.8207 14.8554 24.8219 13.7084 24.8302C13.5244 24.8316 13.4713 24.7818 13.4716 24.596C13.4765 20.5464 13.4768 16.4969 13.4716 12.4476C13.4713 12.2473 13.537 12.2008 13.7264 12.2023C14.8156 12.2103 15.9047 12.2113 16.9939 12.2016C17.1942 12.1999 17.2461 12.2646 17.2416 12.4545C17.2305 12.9383 17.2378 13.4225 17.2378 13.9066L17.2381 13.9068Z" fill="#FEFEFE"/>
<path d="M10.9992 18.5346C10.9992 20.538 10.9959 22.5412 11.004 24.5447C11.0049 24.7673 10.9495 24.8346 10.7191 24.8322C9.58104 24.8196 8.44255 24.8225 7.3043 24.8305C7.12178 24.8317 7.06679 24.7862 7.06726 24.5975C7.07272 20.5414 7.07224 16.4852 7.06821 12.4292C7.06821 12.2614 7.10875 12.2014 7.287 12.2026C8.4416 12.21 9.59645 12.2124 10.7511 12.2012C10.9729 12.1991 11.003 12.2851 11.0026 12.4752C10.9971 14.495 10.9992 16.5148 10.9992 18.5346Z" fill="#FEFEFE"/>
<path d="M11.3131 8.18271C11.3143 9.44043 10.2934 10.4651 9.03848 10.4656C7.79972 10.4661 6.77003 9.44043 6.766 8.20238C6.76197 6.95035 7.79071 5.91948 9.04322 5.9209C10.2867 5.92209 11.3117 6.94348 11.3128 8.18294L11.3131 8.18271Z" fill="#FEFEFE"/>
</g>
<defs>
<clipPath id="clip0_3452_13">
<rect width="32" height="32" fill="white" transform="translate(0 0.0888672)"/>
</clipPath>
</defs>
</svg>
