<svg width="32" height="33" viewBox="0 0 32 33" fill="none" xmlns="http://www.w3.org/2000/svg">
<g clip-path="url(#clip0_3452_19)">
<path d="M16 32.0889C24.8366 32.0889 32 24.9254 32 16.0889C32 7.25231 24.8366 0.0888672 16 0.0888672C7.16344 0.0888672 0 7.25231 0 16.0889C0 24.9254 7.16344 32.0889 16 32.0889Z" fill="#B78BEF"/>
<path fill-rule="evenodd" clip-rule="evenodd" d="M23.6966 8.58904C21.7804 6.67118 19.2318 5.61447 16.5165 5.61328C10.922 5.61328 6.36872 10.1649 6.36659 15.7594C6.36588 17.5476 6.83332 19.2934 7.72149 20.832L6.28149 26.09L11.6622 24.6789C13.1447 25.4872 14.8139 25.9131 16.5127 25.9138H16.517C22.1108 25.9138 26.6645 21.3618 26.6669 15.7672C26.6679 13.056 25.6133 10.5067 23.6968 8.58881L23.6966 8.58904ZM16.5168 24.2005H16.5132C14.9995 24.2001 13.5147 23.7935 12.2195 23.0251L11.9114 22.8423L8.71847 23.6795L9.57062 20.5675L9.37009 20.2484C8.52552 18.9056 8.07966 17.3537 8.08037 15.7601C8.08226 11.1102 11.8668 7.32706 16.5201 7.32706C18.7733 7.32801 20.8915 8.20623 22.4844 9.8003C24.077 11.3944 24.9538 13.5133 24.9529 15.7668C24.951 20.417 21.1665 24.2005 16.5168 24.2005ZM21.1442 17.8842C20.8906 17.7574 19.6437 17.1439 19.4112 17.0593C19.1787 16.9747 19.0097 16.9325 18.8407 17.1861C18.6717 17.44 18.1855 18.011 18.0376 18.1803C17.8897 18.3495 17.7418 18.3706 17.4881 18.2438C17.2345 18.117 16.4174 17.8491 15.4487 16.9854C14.6949 16.3131 14.1857 15.4828 14.0378 15.2289C13.8899 14.9751 14.0222 14.8378 14.149 14.7115C14.263 14.5979 14.4026 14.4154 14.5294 14.2673C14.6562 14.1191 14.6984 14.0134 14.7831 13.8444C14.8677 13.6751 14.8253 13.527 14.762 13.4002C14.6987 13.2734 14.1914 12.0254 13.98 11.5179C13.7742 11.0234 13.5652 11.0905 13.4094 11.0827C13.2618 11.0753 13.0925 11.0737 12.9233 11.0737C12.754 11.0737 12.4795 11.1372 12.247 11.3908C12.0145 11.6447 11.3593 12.2579 11.3593 13.5059C11.3593 14.7539 12.2681 15.9595 12.3949 16.1287C12.5217 16.298 14.1831 18.8587 16.7272 19.9569C17.3324 20.2181 17.8048 20.3741 18.1729 20.4909C18.7805 20.6839 19.3335 20.6566 19.7703 20.5914C20.2577 20.5186 21.2708 19.978 21.4822 19.3858C21.6934 18.7937 21.6934 18.286 21.6301 18.1803C21.5668 18.0746 21.3976 18.011 21.1442 17.8842Z" fill="white"/>
</g>
<defs>
<clipPath id="clip0_3452_19">
<rect width="32" height="32" fill="white" transform="translate(0 0.0888672)"/>
</clipPath>
</defs>
</svg>
