<svg width="136" height="102" viewBox="0 0 136 102" fill="none" xmlns="http://www.w3.org/2000/svg">
<g filter="url(#filter0_d_3288_2568)">
<path d="M10.7 25.425C10.7 25.425 7.10733 41.3174 13.0949 48.1109C19.0822 54.9032 56.9274 44.4259 64.5994 51.9882C72.2714 59.5505 97.3518 86.5895 97.3518 86.5895C97.3518 86.5895 126.723 76.1376 120.154 59.5021C113.586 42.8666 66.0799 35.6185 66.0799 35.6185C66.0799 35.6185 16.2518 -0.124777 10.7002 25.4262L10.7 25.425Z" fill="#B78BEF"/>
</g>
<path d="M97.3517 86.5898C97.3517 86.5898 103.493 56.3169 114.131 58.3335C124.77 60.3513 110.565 77.7289 105.761 77.8075C100.958 77.8872 109.391 64.4486 113.202 64.7273" stroke="#0554A4" stroke-width="2.974" stroke-miterlimit="10"/>
<path d="M57.7473 52.1874C57.7473 52.1874 57.7245 37.3227 64.8907 31.9504C64.8907 31.9504 69.7568 32.4684 71.4363 33.7224C73.1158 34.9765 62.9505 42.8757 65.2358 54.7555C65.2358 54.7555 60.4459 56.586 57.7473 52.1874Z" fill="#0554A4"/>
<path d="M62.7043 37.2826C62.7043 37.2826 54.2846 7.9904 59.2644 7.95029C64.2441 7.91018 79.8595 4.44949 75.3742 15.673C70.8876 26.8956 65.8921 36.5463 65.8921 36.5463C65.8921 36.5463 73.9972 15.6527 70.3183 13.3646C66.6393 11.0765 63.9616 13.3844 63.9616 13.3844L66.4774 40.4679" fill="#0554A4"/>
<path d="M64.3446 37.3632C64.3446 37.3632 76.9006 16.3106 83.1817 18.0226C89.4628 19.7346 83.1931 25.4549 83.1931 25.4549C83.1931 25.4549 79.3536 19.1965 67.8812 38.3088L64.3446 37.3632Z" fill="#0554A4"/>
<path d="M69.654 36.3784C69.654 36.3784 83.8076 27.1964 84.9566 24.2515C86.1066 21.3063 86.4175 21.8144 86.4175 21.8144L70.7463 33.7136L70.4073 35.3852" fill="#0554A5"/>
<defs>
<filter id="filter0_d_3288_2568" x="0.711103" y="7.30021" width="135.269" height="94.1573" filterUnits="userSpaceOnUse" color-interpolation-filters="sRGB">
<feFlood flood-opacity="0" result="BackgroundImageFix"/>
<feColorMatrix in="SourceAlpha" type="matrix" values="0 0 0 0 0 0 0 0 0 0 0 0 0 0 0 0 0 0 127 0" result="hardAlpha"/>
<feOffset dx="2.974" dy="2.974"/>
<feGaussianBlur stdDeviation="5.947"/>
<feColorMatrix type="matrix" values="0 0 0 0 0 0 0 0 0 0 0 0 0 0 0 0 0 0 0.2 0"/>
<feBlend mode="normal" in2="BackgroundImageFix" result="effect1_dropShadow_3288_2568"/>
<feBlend mode="normal" in="SourceGraphic" in2="effect1_dropShadow_3288_2568" result="shape"/>
</filter>
</defs>
</svg>
