<svg width="140" height="143" viewBox="0 0 140 143" fill="none" xmlns="http://www.w3.org/2000/svg">
<path d="M0.00409567 72.7783C0.00337888 71.5258 0.00266209 70.2733 0.00158691 69.0208C0.292244 68.6847 0.73235 68.39 0.838435 68.0022C0.988243 67.4558 0.838793 66.833 0.916564 66.2561C0.969965 65.8596 1.14629 65.1825 1.34556 65.1521C2.62323 64.9569 3.03395 63.8406 3.77511 63.0686C3.98763 62.8473 4.39513 62.8169 4.71338 62.6989C4.75531 62.7945 4.79724 62.8901 4.83918 62.9857C4.68865 63.2696 4.53848 63.5531 4.36395 63.8822C5.18933 64.3341 5.91113 63.9858 6.04123 63.3731C6.31862 62.0681 7.10816 61.5767 8.23925 61.2088C8.72667 61.0502 9.08219 60.4807 9.50044 60.1008C9.66601 59.9506 9.83589 59.8043 10.0104 59.6645C11.4422 58.517 12.8772 57.3731 14.3047 56.2202C14.3875 56.1532 14.4 56.0048 14.4706 55.9146C14.9799 55.2625 15.4655 54.5875 16.0182 53.9745C16.583 53.348 16.5601 51.6494 16.0071 51.7573C14.5348 52.0441 13.2883 50.7558 11.6508 51.4629C10.801 51.8301 10.5925 52.0521 10.6674 52.7763C10.7132 53.2191 10.9225 53.6424 11.0207 54.0831C11.0896 54.3927 11.2336 54.8207 11.0949 55.0093C10.8917 55.286 10.4656 55.551 10.1355 55.5492C8.70803 55.5424 7.18522 53.331 7.25618 51.8649C7.33753 50.184 8.59514 49.9896 9.67031 49.6257C11.5612 48.9858 11.5318 49.0463 11.5974 47.075C11.6515 45.4496 11.6035 43.76 12.0357 42.224C12.5249 40.4852 13.7273 39.1458 15.3594 38.1583C16.1117 37.7032 16.7683 36.719 17.0016 35.8471C17.303 34.7213 17.6919 33.9942 18.8731 33.9714C19.0043 33.4572 18.9943 32.9166 19.2512 32.5907C20.2512 31.3208 21.3206 30.1049 22.3951 28.8969C23.0169 28.1977 23.6269 27.4543 24.3684 26.9047C25.7467 25.8821 27.219 24.9888 28.6494 24.0372C29.9486 23.1732 31.2176 22.2596 32.5469 21.4464C34.3632 20.3347 35.5925 18.7136 35.8929 16.6721C36.0817 15.3885 36.6172 15.1028 37.6372 15.06C39.7169 14.9735 41.7981 14.9257 43.8764 14.812C45.0097 14.7501 46.1372 14.5857 47.3532 14.4582C47.2134 13.9955 47.1041 13.6348 46.8912 12.9309C47.9101 13.6109 48.5875 14.3355 49.3864 14.5183C50.1687 14.6976 51.2095 14.9402 52.0721 13.9303C51.4242 13.7409 50.9257 13.595 50.4268 13.449C50.4364 13.3448 50.4458 13.2408 50.4554 13.1366C51.0239 13.1058 51.5919 13.075 52.1872 13.0428C51.6672 11.4217 51.651 10.7156 53.086 9.79438C54.0903 9.14948 54.9547 8.61177 55.3629 7.4697C55.3898 7.39475 55.5686 7.3857 55.6618 7.32342C56.108 7.02505 56.5496 6.71871 56.9925 6.41491C57.281 6.23241 57.6982 6.28166 58.0989 6.22155C58.8411 6.11038 59.4615 6.05136 60.0787 6.73863C60.5302 7.24158 61.2811 7.54321 61.9541 7.75033C62.7254 7.98751 63.5583 8.02154 64.3643 8.14357C64.8636 8.10121 65.3402 7.62939 65.9058 7.45957C66.8078 7.18872 67.8923 6.76723 68.6761 7.0475C69.8062 7.45196 70.8838 6.91424 72.0536 7.35238C72.9457 7.68624 74.2459 6.69192 75.3842 6.62275C76.7726 6.53839 78.1879 6.75528 79.5788 6.93887C80.2702 7.03012 80.9285 7.35745 81.6113 7.54104C82.0087 7.64786 82.4786 7.57942 82.8241 7.76482C84.6798 8.75986 86.5947 8.97097 88.2609 8.46801C89.1432 8.79282 89.7403 9.05498 90.3611 9.2324C91.6857 9.6108 93.0282 9.92582 94.3525 10.3057C95.0807 10.5146 95.7775 10.9788 96.505 11.0176C97.8759 11.0903 98.4303 12.2136 99.5567 12.8284C99.0861 13.1181 98.7672 13.2231 98.598 13.4443C98.431 13.6627 98.321 14.0175 98.3708 14.2764C98.398 14.418 98.8016 14.5531 99.0453 14.5745C101.075 14.7508 103.113 14.8439 105.133 15.0923C105.709 15.1632 106.259 15.622 106.777 15.9703C107.486 16.4472 108.122 17.04 108.847 17.4868C109.549 17.9188 110.416 18.1122 111.05 18.6162C112.413 19.6992 113.794 20.8192 113.776 22.8596C113.773 23.2558 114.051 23.6577 114.214 24.0509C114.455 24.6336 114.865 25.1937 114.93 25.7934C115.132 27.6593 115.727 29.3275 117.038 30.8819C115.671 31.625 115.784 32.6859 116.427 33.8906C116.534 34.0909 116.327 34.5319 116.163 34.7973C115.469 35.918 115.485 37.0793 116.288 38.0063C117.952 37.2201 119.629 36.4275 121.357 35.6113C121.382 35.8738 121.436 36.1378 121.428 36.3996C121.376 38.1359 121.436 38.2155 123.123 38.2829C124.764 38.3484 125.8 39.5691 126.88 40.5098C127.757 41.2735 128.066 42.6875 128.923 43.4917C129.993 44.4958 130.659 45.4974 130.373 46.9269C130.841 47.1076 131.224 47.2557 131.606 47.4034C131.38 47.7493 131.153 48.0951 130.808 48.6205C131.47 48.7704 132.161 48.8913 132.831 49.0883C133.515 49.29 134.504 49.37 134.787 49.8487C135.502 51.0581 135.972 52.437 136.402 53.7931C137.044 55.8212 137.647 57.8692 138.118 59.9437C138.474 61.5145 138.649 63.1338 138.804 64.7418C138.918 65.9234 138.829 67.1234 138.898 68.3111C139.056 71.0565 139.534 73.8023 138.458 76.4978C138.219 77.0974 138.396 77.8553 138.307 78.5306C138.193 79.4 138.07 80.2817 137.803 81.1095C137.725 81.3521 137.097 81.6211 136.798 81.5498C135.011 81.125 134.8 81.1913 133.817 82.962C133.995 83.0333 134.166 83.1017 134.336 83.1698C135.508 83.6384 135.461 83.7633 134.749 84.8753C134.207 85.7215 133.919 86.735 133.539 87.683C133.488 87.8097 133.576 87.9875 133.576 88.1418C133.577 89.5996 134.145 91.0172 133.323 92.521C132.496 94.0331 132.105 95.7821 131.414 97.3797C130.634 99.1854 129.72 100.931 128.892 102.717C128.402 103.771 127.948 104.844 127.51 105.922C126.955 107.287 126.131 108.631 125.976 110.047C125.802 111.627 125.303 112.864 124.242 113.956C124.092 114.11 124.07 114.384 123.947 114.575C123.111 115.88 122.311 117.19 120.663 117.659C119.339 118.035 117.981 118.422 116.78 119.072C115.441 119.796 114.067 120.494 113.632 122.35C113.359 123.517 113.16 125.09 111.584 125.512C111.254 125.6 110.851 125.429 110.486 125.359C110.049 125.274 109.594 125.036 109.186 125.106C108.631 125.201 108.109 125.514 107.58 125.752C106.572 126.204 105.867 126.862 106.049 128.113C106.058 128.17 105.906 128.25 105.746 128.394C105.62 128.034 105.519 127.743 105.364 127.302C104.688 127.6 104.09 127.864 103.492 128.128C103.567 128.285 103.641 128.441 103.716 128.598C104.137 128.379 104.558 128.161 104.979 127.943C105.033 128.027 105.087 128.111 105.141 128.194C104.465 128.527 104.618 129.939 103.254 129.416C103.124 129.366 102.885 129.675 102.674 129.756C101.993 130.017 101.313 130.292 100.611 130.481C99.8678 130.68 99.0994 130.787 98.4099 130.921C97.7726 130.715 96.8501 130.123 96.51 130.365C95.6495 130.978 94.8894 130.723 94.0529 130.633C93.7859 130.604 93.4855 130.688 93.2383 130.804C93.1616 130.839 93.1357 131.258 93.2146 131.312C93.445 131.471 93.7332 131.588 94.0109 131.623C94.5292 131.69 95.056 131.687 95.613 131.715C95.5438 131.988 95.5467 132.043 95.5237 132.058C94.3762 132.769 92.52 132.325 92.0885 134.209C92.0846 134.226 92.0147 134.221 91.9799 134.237C91.3208 134.53 90.6625 134.825 89.7873 135.217C88.7042 134.233 87.2972 134.309 85.7686 135.09C84.849 135.56 83.7254 136.205 82.8348 136.031C80.9257 135.658 79.4917 136.384 77.9485 137.223C77.1969 137.632 76.378 137.936 75.4318 137.153C74.7129 136.558 73.7116 136.272 72.5844 136.735C71.0444 137.37 69.2947 138.295 67.8095 138.043C66.0538 137.746 64.4306 138.289 62.7286 138.1C61.7566 137.992 61.271 137.776 60.8911 136.978C60.7664 136.716 60.5772 136.463 60.3582 136.278C60.2668 136.201 59.9643 136.25 59.8611 136.35C59.7518 136.456 59.7005 136.833 59.7353 136.849C60.5406 137.227 60.87 137.914 61.0424 138.736C61.0542 138.793 61.3879 138.752 61.5542 138.809C62.6541 139.185 63.7124 139.633 64.6252 140.772C63.3468 140.772 62.2946 140.735 61.2467 140.784C60.479 140.821 59.7163 140.97 58.9515 141.069C58.7214 141.046 58.4913 141.023 58.2612 141C58.1061 140.942 57.9512 140.883 57.796 140.824C53.8426 140.235 50.0601 139.027 46.3386 137.598C36.9154 133.979 28.7816 128.374 21.4539 121.427C16.6758 116.898 12.8801 111.619 9.23487 106.191C9.13057 106.036 9.08613 105.839 9.01374 105.661C9.02485 105.114 9.13129 104.51 8.31272 104.456C8.23603 104.3 8.15969 104.145 8.08299 103.989C7.96329 103.347 7.97368 102.641 7.70345 102.072C5.62907 97.7063 4.0224 93.1779 2.95905 88.4583C2.4573 86.2317 1.96881 83.9968 1.6097 81.7439C1.21403 79.2617 0.999353 76.7501 0.644186 74.2603C0.570715 73.7458 0.225583 73.2707 0.00552924 72.7775L0.00409567 72.7783ZM80.5597 122.95C80.7085 122.882 80.8568 122.813 81.0056 122.744C81.5496 123.532 82.3395 123.369 82.9344 123.013C83.3552 122.762 83.7763 122.102 83.7817 121.619C83.8093 119.195 82.8703 117.034 81.7417 114.948C81.6371 114.706 81.5324 114.465 81.4281 114.223C82.1435 113.929 82.8585 113.635 83.5738 113.341C84.2397 114.358 84.906 115.374 85.5787 116.401C86.3553 116.087 86.856 116.362 87.185 117.133C87.5749 118.045 87.967 118.965 88.4555 119.826C89.121 120.998 89.7669 122.212 90.6266 123.232C91.6301 124.423 92.7931 124.157 93.4192 122.771C94.4912 120.398 94.1615 119.469 92.2068 117.622C90.7901 116.284 89.6292 114.669 88.3544 113.178C96.3842 110.128 102.58 104.649 107.883 98.0274C110.155 95.1889 111.844 91.9808 113.241 88.6129C115.513 83.1343 117.092 77.4946 117.014 71.5012C116.985 69.2464 116.798 66.9869 116.556 64.7433C115.998 59.5848 114.646 54.6139 112.411 49.9559C109.38 43.642 104.838 38.4831 99.5743 33.9873C94.9417 30.0307 89.6181 27.3077 83.8089 25.5537C83.4215 25.4197 83.0341 25.2853 82.6463 25.1514C82.1825 25.0594 81.7184 24.9674 81.2543 24.8755C80.0161 24.4181 78.8093 23.7997 77.5313 23.5426C75.7856 23.1913 73.9882 23.0668 72.2063 22.9534C71.7522 22.9245 71.2723 23.3043 70.8043 23.4962C69.6427 23.4973 68.4815 23.4984 67.32 23.4998C66.5824 22.2825 65.5216 22.7554 64.5729 23.0436C63.8687 23.2576 63.2748 23.4234 62.5989 22.6319C63.0931 22.4324 63.4554 22.2213 63.8443 22.142C64.8571 21.9356 65.876 21.7212 66.9028 21.6361C67.7178 21.5688 68.55 21.6633 69.3707 21.7317C70.3219 21.811 71.2752 22.0637 72.2156 22.012C73.069 21.9653 73.9105 21.6278 74.747 21.3826C75.0441 21.2957 75.3111 21.1031 75.5921 20.959C75.2939 20.7135 75.0304 20.3789 74.6893 20.2431C74.1915 20.0447 73.6377 19.9886 73.1077 19.8716L73.0675 19.5142C73.3919 19.2904 73.7295 19.0829 74.0366 18.8374C74.2796 18.6434 74.4857 18.4022 74.7083 18.1817C74.4323 18.0039 74.1689 17.7037 73.8779 17.674C73.2299 17.6078 72.5679 17.6628 71.9128 17.6936C70.6649 17.7522 69.4155 17.8026 68.1722 17.9166C67.8888 17.9427 67.4884 18.1487 67.3791 18.3845C66.8039 19.625 65.8545 19.8426 64.6743 19.0869C63.6945 18.4598 63.0841 17.2848 61.6524 17.271C60.9173 17.2641 60.1715 16.7365 59.4633 16.3784C59.1834 16.2368 58.9927 15.9157 58.7616 15.676C59.0121 15.4714 59.2346 15.2034 59.5188 15.0741C60.3829 14.6813 60.7764 14.1276 60.474 13.1304C60.3743 12.8016 60.4861 12.3776 60.5876 12.0224C60.794 11.2978 59.2974 8.79499 58.5691 8.74466C58.353 8.72981 58.1114 8.81527 57.9111 8.9152C57.6018 9.06946 57.3208 9.28092 57.0223 9.45872C56.0095 10.0612 55.9224 10.553 56.6943 11.468C57.0567 11.8975 57.4448 12.3045 57.8355 12.7375C56.9191 13.6058 56.0725 13.3143 55.1497 13.0833C54.82 13.0008 54.3411 13.5251 53.9304 13.7728C54.1526 14.0592 54.3189 14.477 54.6092 14.6038C55.1583 14.8431 55.7722 14.9633 56.3711 15.0452C57.1506 15.1516 57.8939 15.2603 57.7763 16.3136C57.6892 17.0939 56.8352 17.6516 56.0485 17.4716C55.045 17.242 54.2533 17.3854 54.1222 18.6032C54.0505 19.2694 53.6677 19.2296 53.1609 19.2796C52.6667 19.3281 52.1919 19.6181 51.7181 19.8253C51.4837 19.9277 51.2862 20.1348 51.0464 20.2044C49.6863 20.5991 48.2997 20.9116 46.9636 21.3736C46.5178 21.5278 46.0504 21.9703 45.839 22.4034C44.9738 24.1744 43.6402 24.8606 41.8648 24.5054C41.3383 24.7694 40.7842 24.861 40.2394 24.991C39.9456 25.0612 39.5675 25.1133 39.3983 25.3179C38.4099 26.5139 37.0093 27.2617 36.2706 28.7843C35.6624 30.0383 34.4672 30.996 33.5626 32.1106C33.0178 32.7819 32.4408 33.4532 32.0394 34.2115C31.3491 35.515 31.3653 37.198 29.8496 38.0577C29.2859 38.3774 28.8107 38.8836 28.3594 39.3659C28.1774 39.5607 28.0182 39.9808 28.1035 40.1948C28.6171 41.4853 27.6799 42.0962 26.8735 42.463C25.8424 42.9319 25.7898 43.4037 26.528 44.2865C25.2267 45.736 23.9548 47.1529 22.6191 48.6404C22.6062 48.6252 22.7015 48.7896 22.8413 48.892C23.6856 49.512 23.9114 50.2075 23.3778 51.208C23.1814 51.5759 23.2362 52.2422 23.4391 52.6333C23.9215 53.5638 23.8326 54.2098 22.9151 54.762C22.7208 54.879 22.5194 55.3396 22.599 55.5058C22.986 56.3133 23.3645 57.0527 22.3725 57.7182C22.289 57.774 22.3814 58.1506 22.442 58.3635C22.8115 59.6634 22.8026 60.9043 22.0926 62.1177C21.5736 63.0045 21.7238 63.8547 22.4961 64.5622C22.676 67.1045 22.8172 69.6505 23.0459 72.1884C23.2832 74.8212 23.6333 77.4436 23.8659 80.0764C23.9136 80.6181 23.5534 81.1906 23.5731 81.742C23.5928 82.2964 23.7953 82.8682 24.0257 83.3831C24.191 83.7524 24.7031 84.011 24.7655 84.3709C24.9386 85.3699 25.0203 86.3961 25.0232 87.4118C25.0278 89.1752 25.5826 90.6772 26.6004 92.1238C27.3344 93.1666 27.7989 94.4253 28.258 95.6362C28.5569 96.4241 28.453 97.4007 28.8497 98.1096C29.3629 99.0265 29.0845 100.384 30.2546 100.902C31.3692 101.396 31.7746 102.453 32.4132 103.351C33.0472 104.242 33.8024 105.045 34.5077 105.884C34.5557 105.941 34.6331 105.973 34.6973 106.016C35.9412 106.858 36.9042 108.012 38.4059 108.608C39.9112 109.206 41.1551 110.46 42.5468 111.375C42.8772 111.592 43.4041 111.785 43.7306 111.67C44.481 111.407 44.766 111.878 44.9613 112.35C45.4974 113.647 46.2268 114.54 47.4793 115.403C48.6219 116.19 49.7544 116.678 50.954 116.851C54.5605 117.371 58.2039 117.622 61.8201 118.082C63.2859 118.268 64.7195 118.718 66.1627 119.068C66.2839 119.098 66.3853 119.275 66.4649 119.403C67.0673 120.37 68.002 120.748 69.0431 120.61C70.0821 120.471 71.1498 120.233 72.0984 119.8C73.3897 119.212 74.6097 118.617 76.1436 119.521V115.266C76.2705 115.246 76.3974 115.225 76.5246 115.206C76.6629 115.603 76.8023 115.999 76.9396 116.396C77.4811 117.961 77.8972 119.587 78.6151 121.064C78.9871 121.829 79.8935 122.329 80.5587 122.949L80.5597 122.95ZM96.2613 25.4816C96.352 26.3926 96.1584 27.404 96.5684 27.9642C97.4881 29.2203 98.6901 30.2711 99.8119 31.369C100.549 32.0906 101.39 32.7062 102.11 33.4442C103.881 35.2612 105.672 37.0662 107.339 38.9792C109.059 40.9523 110.63 43.0575 112.298 45.0777C112.541 45.3721 112.964 45.5151 113.304 45.728C113.459 45.3532 113.761 44.9705 113.743 44.6044C113.665 43.0579 113.561 41.5056 113.328 39.9768C113.182 39.0129 113.034 37.852 112.433 37.2176C111.945 36.7009 111.305 36.2486 110.771 35.6754C109.544 34.3585 108.092 33.249 106.921 31.8897C106.112 30.9511 105.637 30.0441 104.126 29.7406C102.728 29.46 101.585 27.9975 100.271 27.1469C99.2535 26.4879 98.1522 25.9592 97.0731 25.4016C96.9322 25.3288 96.7032 25.4316 96.2613 25.4816ZM126.099 82.1422C126.532 81.7315 126.833 81.4462 127.134 81.1609C126.832 80.8705 126.51 80.3299 126.232 80.3519C125.876 80.3802 125.555 80.8618 125.219 81.1478C125.471 81.4332 125.723 81.7185 126.099 82.1425L126.099 82.1422ZM61.8391 126.332C61.8194 126.597 61.7993 126.861 61.7796 127.126C62.2738 127.22 62.7677 127.313 63.2619 127.407C63.3124 127.032 63.3633 126.656 63.4139 126.281C62.8888 126.298 62.3641 126.315 61.8391 126.332Z" fill="#93DEFA"/>
<path d="M58.9505 141.069C59.7153 140.97 60.478 140.82 61.2456 140.784C62.2939 140.735 63.3458 140.772 64.6242 140.772C63.7114 139.633 62.6534 139.185 61.5531 138.809C61.3868 138.752 61.0532 138.793 61.0413 138.736C60.869 137.914 60.5396 137.227 59.7343 136.849C59.6995 136.833 59.7508 136.456 59.8601 136.35C59.9633 136.25 60.2658 136.2 60.3572 136.278C60.5761 136.463 60.7654 136.715 60.8901 136.978C61.2696 137.776 61.7553 137.992 62.7276 138.1C64.4296 138.289 66.0527 137.746 67.8085 138.043C69.2937 138.295 71.0434 137.37 72.5834 136.735C73.7105 136.271 74.7119 136.558 75.4308 137.153C76.377 137.936 77.1956 137.632 77.9475 137.223C79.4907 136.384 80.9246 135.658 82.8338 136.031C83.7244 136.205 84.848 135.56 85.7676 135.09C87.2961 134.309 88.7032 134.233 89.7863 135.217C90.6615 134.825 91.3198 134.531 91.9789 134.237C92.0137 134.221 92.0839 134.226 92.0875 134.209C92.5186 132.325 94.3748 132.769 95.5227 132.058C95.5453 132.043 95.5428 131.988 95.6119 131.715C95.055 131.687 94.5282 131.69 94.0099 131.623C93.7322 131.588 93.444 131.471 93.2136 131.312C93.1351 131.258 93.1605 130.839 93.2372 130.804C93.4845 130.688 93.7852 130.604 94.0519 130.633C94.8883 130.723 95.6488 130.978 96.509 130.365C96.8491 130.123 97.7716 130.715 98.4088 130.921C99.0984 130.787 99.8664 130.68 100.61 130.481C101.312 130.292 101.992 130.017 102.673 129.756C102.884 129.675 103.123 129.366 103.253 129.416C104.617 129.939 104.464 128.527 105.14 128.194C105.086 128.111 105.032 128.027 104.978 127.943C104.557 128.161 104.136 128.38 103.714 128.598C103.64 128.441 103.566 128.285 103.491 128.128C104.089 127.864 104.687 127.6 105.363 127.302C105.518 127.743 105.619 128.034 105.745 128.394C105.905 128.25 106.057 128.17 106.048 128.113C105.867 126.862 106.571 126.204 107.579 125.752C108.108 125.514 108.629 125.201 109.185 125.106C109.592 125.036 110.048 125.274 110.485 125.359C110.85 125.429 111.253 125.6 111.583 125.512C113.159 125.09 113.358 123.517 113.631 122.35C114.066 120.494 115.44 119.796 116.779 119.072C117.98 118.422 119.338 118.035 120.662 117.659C122.31 117.19 123.11 115.88 123.946 114.575C124.069 114.384 124.091 114.11 124.241 113.956C125.302 112.864 125.801 111.627 125.975 110.047C126.131 108.631 126.954 107.287 127.509 105.922C127.947 104.844 128.401 103.771 128.891 102.717C129.719 100.931 130.633 99.1854 131.413 97.3797C132.104 95.7821 132.494 94.0331 133.322 92.521C134.144 91.0176 133.576 89.6 133.575 88.1418C133.575 87.9875 133.487 87.8097 133.538 87.683C133.918 86.7354 134.206 85.7215 134.748 84.8753C135.46 83.7633 135.506 83.6384 134.335 83.1698C134.165 83.1017 133.994 83.0333 133.816 82.962C134.799 81.1909 135.01 81.125 136.797 81.5498C137.096 81.6207 137.723 81.3521 137.802 81.1095C138.069 80.2821 138.192 79.4003 138.306 78.5306C138.395 77.8556 138.218 77.0974 138.457 76.4978C139.533 73.8023 139.055 71.0565 138.897 68.3111C138.828 67.1234 138.917 65.9234 138.803 64.7418C138.648 63.1341 138.473 61.5145 138.117 59.9437C137.646 57.8692 137.043 55.8212 136.401 53.7931C135.971 52.4374 135.502 51.0581 134.786 49.8487C134.503 49.37 133.514 49.29 132.83 49.0883C132.16 48.8913 131.469 48.7704 130.807 48.6205C131.152 48.0951 131.378 47.7492 131.605 47.4034C131.223 47.2553 130.839 47.1076 130.372 46.9269C130.658 45.4974 129.992 44.4958 128.922 43.4917C128.065 42.6878 127.756 41.2735 126.879 40.5098C125.799 39.5687 124.763 38.3484 123.122 38.2829C121.435 38.2155 121.375 38.1359 121.427 36.3996C121.435 36.1378 121.381 35.8742 121.356 35.6113C119.628 36.4275 117.951 37.2201 116.287 38.0062C115.484 37.0789 115.468 35.918 116.162 34.7973C116.326 34.5323 116.533 34.0909 116.426 33.8906C115.783 32.6859 115.67 31.625 117.037 30.8819C115.726 29.3274 115.131 27.6593 114.929 25.7934C114.864 25.1934 114.454 24.6336 114.213 24.0509C114.05 23.6577 113.772 23.2558 113.775 22.8596C113.793 20.8192 112.412 19.6992 111.049 18.6162C110.415 18.1122 109.548 17.9188 108.846 17.4868C108.121 17.0403 107.485 16.4472 106.776 15.9703C106.258 15.622 105.708 15.1632 105.132 15.0922C103.112 14.8438 101.073 14.7508 99.0443 14.5744C98.8006 14.5534 98.3967 14.418 98.3698 14.2764C98.32 14.0175 98.43 13.6627 98.597 13.4443C98.7665 13.2227 99.0851 13.1181 99.5557 12.8284C98.4293 12.2136 97.8748 11.0903 96.504 11.0175C95.7768 10.9788 95.0801 10.5146 94.3515 10.3057C93.0272 9.92581 91.6847 9.61079 90.36 9.23239C89.7393 9.05496 89.1422 8.7928 88.2599 8.468C86.5933 8.97096 84.6784 8.75985 82.823 7.7648C82.4775 7.57941 82.0073 7.64785 81.6102 7.54103C80.9271 7.35744 80.2691 7.0301 79.5778 6.93886C78.1869 6.75527 76.7712 6.53837 75.3832 6.62274C74.2445 6.6919 72.9443 7.68623 72.0526 7.35237C70.8828 6.9146 69.8051 7.45195 68.6751 7.04749C67.8917 6.76686 66.8068 7.1887 65.9047 7.45956C65.3392 7.62938 64.8625 8.10119 64.3633 8.14356C63.5573 8.02153 62.7244 7.9875 61.9531 7.75032C61.28 7.5432 60.5292 7.24157 60.0776 6.73862C59.4605 6.05135 58.8401 6.11037 58.0979 6.22154C57.6968 6.28165 57.28 6.2324 56.9915 6.4149C56.5485 6.71834 56.1073 7.02467 55.6608 7.32341C55.5676 7.38569 55.3888 7.3951 55.3619 7.46969C54.9537 8.61212 54.0892 9.14947 53.085 9.79437C51.6504 10.7159 51.6661 11.4216 52.1862 13.0428C51.5909 13.075 51.0228 13.1058 50.4544 13.1365C50.4447 13.2408 50.4354 13.3448 50.4257 13.449C50.9246 13.595 51.4235 13.7409 52.0711 13.9303C51.2085 14.9402 50.1677 14.6976 49.3853 14.5183C48.5865 14.3351 47.9091 13.6105 46.8902 12.9309C47.1031 13.6348 47.212 13.9954 47.3522 14.4582C46.1361 14.5853 45.0086 14.7501 43.8754 14.812C41.7974 14.9257 39.7159 14.9735 37.6361 15.06C36.6161 15.1024 36.0807 15.3884 35.8918 16.6721C35.5915 18.7136 34.3622 20.3347 32.5459 21.4464C31.2166 22.26 29.9475 23.1732 28.6483 24.0372C27.218 24.9888 25.7457 25.8821 24.3673 26.9046C23.6258 27.4547 23.0158 28.1981 22.394 28.8969C21.3196 30.1049 20.2501 31.3208 19.2502 32.5907C18.9932 32.9169 19.0033 33.4572 18.8721 33.9714C17.6908 33.9942 17.302 34.7213 17.0006 35.847C16.7673 36.719 16.1107 37.7032 15.3584 38.1583C13.7263 39.1458 12.5239 40.4855 12.0347 42.224C11.6025 43.76 11.6505 45.4496 11.5964 47.075C11.5308 49.0463 11.5602 48.9858 9.66928 49.6257C8.59446 49.9896 7.3365 50.1836 7.25515 51.8649C7.18418 53.331 8.70736 55.5424 10.1345 55.5492C10.4646 55.5507 10.8907 55.2856 11.0939 55.0093C11.2322 54.8207 11.0885 54.3923 11.0197 54.0831C10.9215 53.6424 10.7122 53.2191 10.6663 52.7763C10.5914 52.0524 10.8 51.8301 11.6498 51.4629C13.2873 50.7558 14.5338 52.0437 16.006 51.7573C16.5587 51.6498 16.5816 53.3484 16.0171 53.9745C15.4645 54.5875 14.9789 55.2624 14.4696 55.9146C14.399 56.0048 14.3865 56.1536 14.3037 56.2202C12.8762 57.3731 11.4412 58.517 10.0094 59.6645C9.83486 59.8043 9.66498 59.9506 9.4994 60.1008C9.08116 60.4803 8.72563 61.0502 8.23822 61.2088C7.10713 61.5764 6.31759 62.0681 6.04019 63.3731C5.9101 63.9858 5.18793 64.3341 4.36291 63.8822C4.53745 63.5531 4.68762 63.2696 4.83814 62.9857C4.79621 62.8901 4.75428 62.7945 4.71235 62.6989C4.39409 62.8169 3.9866 62.847 3.77407 63.0686C3.03292 63.8409 2.6222 64.9569 1.34453 65.1521C1.14526 65.1825 0.968932 65.8596 0.915531 66.2561C0.83776 66.8326 0.986851 67.4554 0.837401 68.0022C0.731317 68.39 0.29121 68.6847 0.000553666 69.0208C-0.0238171 64.1632 0.757838 59.4023 2.05235 54.7599C3.19778 50.6515 4.52455 46.5742 6.09431 42.614C7.26196 39.6676 8.85465 36.8772 10.4201 34.1111C13.4267 28.7991 17.1661 24.052 21.5977 19.8672C24.8203 16.8238 28.2566 14.0646 32.0456 11.7689C32.2402 11.6509 32.4695 11.5911 32.6831 11.5046C32.419 11.8489 32.2126 12.2722 31.8785 12.521C31.1406 13.0703 30.3145 13.4976 29.5669 14.0353C26.0966 16.5305 22.9707 19.4277 20.0785 22.5732C18.7194 24.0509 17.4435 25.6206 16.2591 27.2447C14.7785 29.2746 13.3869 31.3755 12.0379 33.4981C10.7484 35.5266 9.49116 37.584 8.36903 39.7092C7.96297 40.4783 7.98914 41.4806 7.77553 42.6009C9.69795 41.6117 10.6886 40.1796 11.2043 38.637C11.8791 36.6194 12.864 34.9447 14.3456 33.4492C15.52 32.2637 16.5067 30.8816 17.5213 29.544C18.2668 28.5609 18.8581 27.4543 19.6434 26.5081C20.0885 25.9719 20.9078 25.7492 21.3414 25.2075C22.1091 24.2494 22.8883 23.4332 24.0917 23.0027C24.7999 22.7492 25.3941 22.1564 26.0231 21.6926C27.0987 20.8996 28.0778 19.9194 29.2515 19.3317C30.4486 18.7324 31.2116 17.8279 31.7398 16.7231C32.2025 15.7556 32.9276 15.3099 33.8615 15.11C34.874 14.8938 35.8997 14.7175 36.9287 14.6099C37.6576 14.5339 38.278 14.5581 38.2027 13.4856C38.1802 13.1633 38.7235 12.7795 39.0439 12.4609C39.3109 12.1951 39.689 12.0303 39.9162 11.7396C40.8341 10.5638 42.4809 10.1261 43.036 8.58134C43.0751 8.47271 43.2894 8.40717 43.4346 8.36227C44.8524 7.9234 46.2655 7.46788 47.6948 7.0703C48.5377 6.83602 49.4276 6.76541 50.2598 6.50289C52.2575 5.8732 54.2326 5.17 56.2192 4.50374C57.5642 4.05256 58.9132 3.61334 60.0905 3.2248C61.3259 3.40006 62.4993 3.60211 63.6809 3.72414C64.7582 3.8353 65.8442 3.87043 66.9272 3.91533C67.1727 3.92547 67.4211 3.82516 67.6702 3.79475C68.2035 3.72993 68.7432 3.60211 69.2718 3.63615C70.2241 3.69771 71.5028 4.3006 72.0462 3.88274C73.0418 3.1169 73.7363 3.62999 74.5793 3.77845C74.8237 3.82154 75.0925 3.72305 75.4412 3.67743C75.2774 2.56506 75.9358 2.42348 76.7737 2.35758C77.1153 2.33078 77.4317 1.97375 77.7597 1.76699C77.4482 1.58268 77.1561 1.29952 76.8214 1.23217C75.7491 1.01636 74.6614 0.880212 73.5794 0.713646C76.0616 0.878401 78.5442 1.04316 81.0264 1.20827C80.5551 1.2481 80.0602 1.21226 79.6204 1.35239C79.2882 1.45812 78.7933 1.77061 78.7739 2.023C78.7019 2.96192 80.1337 4.26801 81.1228 4.26113C83.1219 4.24737 84.9856 4.74924 86.7503 5.68418C87.0094 5.82142 87.3313 5.84061 87.6259 5.90579C89.1727 6.24761 90.7729 6.4359 92.2549 6.96312C94.2536 7.67392 96.1986 8.57011 98.097 9.5275C99.5679 10.2694 101.118 11.0248 102.302 12.135C104.237 13.9505 106.501 14.7135 108.991 15.0415C109.809 15.1491 110.652 15.0499 111.482 15.0738C112.589 15.1056 113.38 16.2969 113.575 17.775C113.68 18.5706 114.07 19.3824 114.518 20.0621C114.962 20.7359 115.633 21.2588 116.216 21.8363C117.332 22.9433 118.318 24.261 119.609 25.0934C121.572 26.3586 123.43 27.6701 124.577 29.7482C125.394 31.2292 126.153 32.7634 126.73 34.3512C127.099 35.3644 126.808 36.6589 128.165 37.1441C128.23 37.1673 128.287 37.2426 128.324 37.307C129.214 38.8307 130.084 40.3671 130.999 41.8749C131.265 42.3116 131.66 42.6672 131.999 43.0633C132.031 43.4138 131.949 43.9016 132.15 44.1771C132.27 44.3408 132.838 44.1706 133.1 44.1561C133.216 45.2243 133.259 46.2943 133.461 47.3325C133.811 49.1288 134.559 49.546 136.325 49.068C136.815 50.6413 137.375 52.1969 137.779 53.7923C138.298 55.8447 138.719 57.9242 139.121 60.0038C139.227 60.5524 139.108 61.1451 139.091 61.718C139.165 61.8059 139.238 61.8939 139.311 61.9816C139.395 63.4586 139.48 64.9356 139.565 66.4126C139.446 66.7801 138.989 67.2269 139.786 67.3797C139.858 68.7883 139.929 70.1972 140.001 71.6058C140.001 72.0733 140.001 72.5404 140.002 73.0078C139.943 74.1086 139.883 75.2098 139.824 76.3106C139.499 76.9388 139.048 77.5348 138.88 78.2029C138.61 79.2794 138.641 80.4378 138.333 81.4994C138.003 82.6404 137.389 83.6938 136.977 84.8148C136.65 85.7027 136.376 86.6221 136.195 87.5505C135.88 89.1676 135.865 90.8782 135.327 92.407C134.881 93.6725 135.163 94.3822 136.091 95.0771C135.858 95.7817 135.626 96.4867 135.393 97.1914C135.127 96.6504 134.861 96.1094 134.596 95.5681C134.488 95.5333 134.379 95.4986 134.271 95.4642C133.94 96.4045 133.611 97.3453 133.278 98.2845C133.167 98.5978 133.086 98.9305 132.922 99.2133C132.6 99.7677 132.152 100.258 131.895 100.838C131.239 102.321 130.717 103.865 130.032 105.334C129.288 106.929 128.445 108.479 127.604 110.026C126.628 111.822 125.733 113.685 124.558 115.343C123.854 116.337 122.691 117.003 121.719 117.797C120.949 118.427 120.09 118.96 119.388 119.657C118.251 120.787 117.232 122.036 116.122 123.195C115.126 124.237 113.62 124.755 113.053 126.248C113.005 126.374 112.85 126.502 112.718 126.547C111.329 127.017 110.158 127.817 109.014 128.741C108.333 129.29 108.311 129.889 108.525 130.46C108.629 130.738 109.353 130.956 109.756 130.9C110.306 130.822 110.571 130.834 110.527 131.458C110.137 131.749 109.746 132.042 109.355 132.334C109.223 131.495 108.751 131.688 108.28 131.993C107.269 132.646 106.262 133.305 105.27 133.988C104.764 134.336 104.888 134.599 105.441 134.731C104.036 135.424 102.632 136.118 101.228 136.812C101.25 136.227 101.03 136.035 100.457 136.266C98.6174 137.006 96.7638 137.712 94.9364 138.48C94.7977 138.538 94.8188 138.984 94.7658 139.251C93.3605 139.671 91.9553 140.091 90.55 140.512C90.7758 140.136 91.0019 139.76 91.2281 139.383C91.1095 139.287 90.9905 139.191 90.8718 139.094C90.459 139.606 90.0465 140.117 89.6336 140.628C87.3366 141.073 85.0562 141.727 82.7385 141.918C78.7843 142.243 74.8051 142.437 70.8398 142.393C66.8513 142.348 62.8433 142.149 58.9512 141.069H58.9505ZM107.39 131.368C107.361 131.211 107.363 130.799 107.195 130.477C107.092 130.279 106.636 130.046 106.497 130.122C105.336 130.763 104.164 131.406 103.09 132.182C102.278 132.769 101.624 133.577 100.862 134.24C100.399 134.643 99.8621 134.96 99.3586 135.315C99.4389 135.434 99.5195 135.553 99.5998 135.671C102.219 134.366 105.436 134.267 107.39 131.368ZM11.7992 53.0562C12.3787 53.9075 13.0561 54.0147 13.7216 53.4885C13.9094 53.3401 13.9331 52.5721 13.7618 52.4363C12.9325 51.7794 12.3766 52.3827 11.7992 53.0562ZM119.21 32.4256C118.54 32.0819 118.182 31.747 117.858 31.7767C117.566 31.8035 117.31 32.2315 117.039 32.4824C117.313 32.6899 117.585 33.0621 117.86 33.0636C118.201 33.0654 118.544 32.7609 119.21 32.4256ZM121.375 33.4061C121.011 33.7436 120.774 33.963 120.537 34.1821C120.823 34.4493 121.076 34.7915 121.414 34.9414C121.524 34.9907 122.047 34.5279 122.033 34.3223C122.015 34.0409 121.666 33.7816 121.376 33.4061H121.375ZM118.113 30.1208C118.209 30.2885 118.305 30.4558 118.401 30.6234C118.708 30.4623 119.034 30.3268 119.299 30.1128C119.34 30.0799 119.095 29.6863 118.982 29.4596C118.692 29.6801 118.402 29.9003 118.113 30.1208ZM93.9949 133.233C93.8745 133.197 93.754 133.162 93.6333 133.126C93.5587 133.36 93.4842 133.593 93.4096 133.826C93.5437 133.863 93.6777 133.9 93.8121 133.936C93.873 133.702 93.9339 133.467 93.9949 133.233ZM94.0257 136.402C93.9271 136.338 93.8304 136.231 93.7737 136.249C93.6985 136.274 93.5892 136.435 93.6092 136.469C93.6666 136.568 93.782 136.633 93.8745 136.711C93.9196 136.619 93.9644 136.528 94.0261 136.402H94.0257ZM94.1228 138.946C94.1088 138.885 94.0949 138.824 94.0809 138.764C93.9415 138.794 93.8024 138.824 93.663 138.855C93.6781 138.92 93.6931 138.986 93.7082 139.051C93.8465 139.016 93.9845 138.981 94.1228 138.946ZM15.2341 36.7324C15.2061 36.7976 15.1416 36.8776 15.1599 36.9239C15.1785 36.971 15.2788 36.9851 15.3434 37.0137C15.3717 36.9486 15.4362 36.8689 15.4179 36.8225C15.3989 36.7751 15.2993 36.761 15.2341 36.7324ZM12.4242 56.4168C12.3984 56.3506 12.3881 56.2488 12.3425 56.2282C12.297 56.2079 12.2157 56.2694 12.1501 56.2952C12.1759 56.3614 12.1859 56.4632 12.2318 56.4838C12.2773 56.5045 12.3587 56.4429 12.4246 56.4168H12.4242ZM52.1381 9.25665C52.1123 9.19039 52.1019 9.08864 52.0564 9.06836C52.0109 9.04808 51.9296 9.10964 51.864 9.13535C51.8898 9.20161 51.8998 9.30336 51.9457 9.324C51.9912 9.34428 52.0726 9.28309 52.1385 9.25702L52.1381 9.25665ZM92.3384 137.631C92.3104 137.697 92.2825 137.762 92.2545 137.827C92.3194 137.855 92.3979 137.919 92.4448 137.9C92.4911 137.882 92.5047 137.781 92.5326 137.715C92.4681 137.687 92.4036 137.659 92.3384 137.631ZM53.3212 7.88212C53.2932 7.9473 53.2653 8.01248 53.2373 8.07766C53.3022 8.10554 53.3807 8.16963 53.4276 8.15116C53.4739 8.13306 53.4875 8.03131 53.5154 7.96613C53.4509 7.93825 53.3864 7.91001 53.3212 7.88212Z" fill="#92DDF8"/>
<path d="M136.325 49.0673C134.559 49.5453 133.811 49.1285 133.461 47.3318C133.259 46.2936 133.216 45.2236 133.1 44.1554C132.838 44.1699 132.27 44.3401 132.151 44.1764C131.949 43.9009 132.032 43.4128 131.999 43.0626C131.66 42.6668 131.265 42.3109 130.999 41.8742C130.084 40.3664 129.214 38.83 128.324 37.3063C128.287 37.2419 128.23 37.1662 128.166 37.1434C126.808 36.6582 127.099 35.3637 126.731 34.3505C126.154 32.7627 125.394 31.2285 124.577 29.7475C123.43 27.6694 121.572 26.3579 119.609 25.0927C118.318 24.2606 117.332 22.9426 116.216 21.8356C115.633 21.2581 114.962 20.7348 114.518 20.0613C114.07 19.382 113.68 18.5702 113.575 17.7743C113.38 16.2962 112.589 15.1049 111.482 15.0731C110.651 15.0492 109.809 15.1484 108.992 15.0408C106.501 14.7128 104.237 13.9498 102.302 12.1343C101.118 11.0241 99.5679 10.2687 98.0971 9.52679C96.1987 8.5694 94.2537 7.6732 92.2549 6.9624C90.7729 6.43555 89.1727 6.24689 87.6259 5.90507C87.3313 5.83989 87.0095 5.8207 86.7503 5.68347C84.9856 4.74853 83.122 4.24666 81.1229 4.26042C80.1337 4.2673 78.7023 2.96084 78.774 2.02228C78.7933 1.77026 79.2882 1.45777 79.6205 1.35167C80.0602 1.21154 80.5552 1.24739 81.0264 1.20756C83.342 1.59899 85.6737 1.91438 87.9707 2.39669C94.7318 3.81612 101.01 6.49131 106.904 10.0909C112.731 13.6493 118.012 17.9257 122.478 23.112C125.405 26.5114 128.186 30.0709 130.126 34.2006C131.241 36.5723 132.456 38.8956 133.593 41.2568C133.806 41.6993 133.861 42.2189 133.99 42.7034C133.928 43.8393 134.277 44.8025 135.16 45.5412L135.153 45.5394C135.227 45.7813 135.3 46.0231 135.374 46.265C135.384 46.3277 135.387 46.3907 135.384 46.454C135.512 46.6239 135.64 46.7937 135.768 46.9631C135.953 47.6645 136.139 48.3659 136.325 49.0673Z" fill="#92DDF7"/>
<path d="M73.5795 0.713646C74.6615 0.880574 75.7492 1.01636 76.8215 1.23217C77.1562 1.29952 77.4483 1.58268 77.7598 1.76699C77.4318 1.97375 77.1157 2.33042 76.7738 2.35758C75.9359 2.42348 75.2775 2.56506 75.4413 3.67743C75.0922 3.72305 74.8234 3.82118 74.5794 3.77845C73.7364 3.62999 73.0419 3.1169 72.0463 3.88274C71.5029 4.3006 70.2242 3.69771 69.2719 3.63615C68.7433 3.60211 68.2039 3.72993 67.6703 3.79475C67.4208 3.82516 67.1728 3.92547 66.9273 3.91533C65.8443 3.87079 64.7583 3.83567 63.681 3.72414C62.4994 3.60211 61.326 3.40042 60.0906 3.2248C58.9133 3.61334 57.5643 4.0522 56.2193 4.50374C54.2327 5.17 52.2576 5.8732 50.2599 6.50289C49.4277 6.76541 48.5378 6.83602 47.6949 7.0703C46.2656 7.46788 44.8525 7.9234 43.4347 8.36227C43.2895 8.40717 43.0748 8.47271 43.0361 8.58134C42.481 10.1257 40.8342 10.5635 39.9163 11.7396C39.6895 12.0303 39.311 12.1954 39.044 12.4609C38.724 12.7795 38.1803 13.1637 38.2028 13.4856C38.2781 14.5585 37.6577 14.5339 36.9288 14.6099C35.8998 14.7175 34.8741 14.8938 33.8616 15.11C32.9277 15.3095 32.2026 15.7556 31.7399 16.7231C31.2117 17.8279 30.4483 18.7324 29.2516 19.3317C28.0779 19.9194 27.0988 20.8996 26.0232 21.6926C25.3946 22.1561 24.8004 22.7492 24.0918 23.0027C22.8884 23.4332 22.1092 24.2494 21.3415 25.2075C20.9079 25.7488 20.0882 25.9719 19.6435 26.5081C18.8586 27.454 18.2669 28.5609 17.5214 29.544C16.5068 30.8816 15.5202 32.2637 14.3457 33.4492C12.8641 34.9447 11.8792 36.6194 11.2044 38.637C10.6883 40.1796 9.69806 41.6117 7.77563 42.6009C7.9896 41.4806 7.96307 40.4783 8.36913 39.7092C9.49126 37.584 10.7485 35.527 12.038 33.4981C13.3874 31.3755 14.7786 29.2749 16.2592 27.2447C17.4436 25.6206 18.7195 24.0509 20.0786 22.5732C22.9708 19.4277 26.097 16.5305 29.567 14.0353C30.3146 13.4976 31.1407 13.0706 31.8786 12.521C32.2127 12.2722 32.4191 11.8489 32.6832 11.5046C32.6832 11.5046 32.6969 11.5183 32.6969 11.5187C33.104 11.4408 33.5559 11.4517 33.9104 11.2692C35.2042 10.6037 36.4431 9.82841 37.7434 9.17735C40.0289 8.03348 42.3516 6.96493 44.6399 5.82685C44.975 5.65992 45.2076 5.28225 45.4875 5.00199C50.2617 3.19222 55.1358 1.71847 60.2257 1.23833C64.2093 0.862107 68.2172 0.751304 72.2154 0.546356C72.6663 0.523182 73.1247 0.654262 73.5795 0.713646Z" fill="#92DDF7"/>
<path d="M110.527 131.457C110.57 130.833 110.306 130.822 109.756 130.899C109.353 130.955 108.63 130.738 108.525 130.46C108.311 129.889 108.334 129.289 109.014 128.74C110.158 127.817 111.329 127.017 112.718 126.546C112.851 126.501 113.006 126.374 113.054 126.248C113.62 124.754 115.126 124.237 116.122 123.195C117.231 122.035 118.251 120.786 119.388 119.657C120.09 118.96 120.949 118.427 121.719 117.797C122.691 117.002 123.854 116.336 124.558 115.342C125.733 113.685 126.628 111.822 127.604 110.026C128.445 108.478 129.289 106.929 130.032 105.333C130.716 103.865 131.239 102.32 131.895 100.837C132.152 100.258 132.6 99.7673 132.922 99.213C133.086 98.9302 133.167 98.5974 133.278 98.2842C133.611 97.3449 133.94 96.4038 134.271 95.4638C134.379 95.4985 134.488 95.5333 134.596 95.5677C134.862 96.1087 135.127 96.6496 135.393 97.191C135.384 97.3431 135.375 97.4948 135.366 97.6465C135.289 97.8811 135.213 98.1154 135.137 98.3501C134.288 100.533 133.569 102.78 132.557 104.883C131.378 107.333 130.043 109.721 128.59 112.017C127.192 114.225 125.652 116.359 124.001 118.38C122.264 120.506 120.314 122.454 118.471 124.492C116.377 126.809 114.178 129.003 111.545 130.707C111.192 130.936 110.866 131.206 110.527 131.457H110.527Z" fill="#92DDF7"/>
<path d="M136.091 95.0771C135.163 94.3818 134.881 93.6725 135.327 92.4069C135.865 90.8782 135.88 89.1676 136.195 87.5505C136.376 86.622 136.65 85.7027 136.977 84.8148C137.389 83.6938 138.003 82.6404 138.333 81.4994C138.641 80.4378 138.61 79.2798 138.88 78.2029C139.048 77.5344 139.499 76.9388 139.824 76.3105C139.434 79.3855 139.138 82.4764 138.624 85.53C138.19 88.1095 137.53 90.6522 136.911 93.1963C136.751 93.8517 136.37 94.4517 136.091 95.0774V95.0771Z" fill="#92DDF7"/>
<path d="M0.00414257 72.7782C0.224196 73.2714 0.569328 73.7465 0.642799 74.261C0.997966 76.7508 1.21264 79.262 1.60831 81.7445C1.96742 83.9975 2.45627 86.2324 2.95766 88.4589C4.02101 93.1786 5.62769 97.707 7.70207 102.072C7.97265 102.642 7.96226 103.347 8.0816 103.99C6.63155 100.765 5.04243 97.5951 3.76369 94.3018C1.76672 89.1585 0.966069 83.7093 0.271504 78.2622C0.0406987 76.4528 0.0851394 74.6072 0.00378418 72.7782H0.00414257Z" fill="#92DDF8"/>
<path d="M45.4883 5.00168C45.2084 5.28194 44.9762 5.65997 44.6407 5.82654C42.3524 6.96498 40.0296 8.03317 37.7442 9.17704C36.4439 9.82774 35.2046 10.603 33.9111 11.2689C33.5567 11.4514 33.1048 11.4405 32.6976 11.5184C33.7194 10.8456 34.6842 10.053 35.7737 9.52285C38.9853 7.96003 42.2463 6.50113 45.4883 5.00168Z" fill="#92DDF8"/>
<path d="M94.7655 139.251C94.8185 138.985 94.7974 138.538 94.9361 138.48C96.7639 137.712 98.6172 137.006 100.456 136.266C101.029 136.036 101.25 136.227 101.228 136.812C99.0737 137.624 96.9194 138.437 94.7655 139.251Z" fill="#93DEFA"/>
<path d="M105.44 134.731C104.887 134.598 104.764 134.336 105.27 133.988C106.262 133.305 107.269 132.646 108.28 131.993C108.751 131.688 109.223 131.495 109.355 132.334C108.05 133.133 106.745 133.932 105.44 134.731V134.731Z" fill="#93DEFA"/>
<path d="M135.16 45.5419C134.277 44.8036 133.928 43.8404 133.99 42.7041C134.38 43.6499 134.77 44.5957 135.16 45.5419Z" fill="#92DDF8"/>
<path d="M89.6333 140.627C90.0462 140.116 90.459 139.605 90.8715 139.094C90.9902 139.191 91.1092 139.287 91.2278 139.383C91.0016 139.759 90.7759 140.136 90.5497 140.511C90.2444 140.55 89.9387 140.589 89.6333 140.627Z" fill="#93DEFA"/>
<path d="M8.31177 104.457C9.13034 104.511 9.02354 105.114 9.01278 105.661C8.77911 105.26 8.54544 104.858 8.31177 104.457Z" fill="#92DDF8"/>
<path d="M139.787 67.3793C138.989 67.2266 139.447 66.78 139.565 66.4126C139.639 66.7347 139.713 67.0572 139.787 67.3793Z" fill="#92DDF7"/>
<path d="M135.768 46.9631C135.64 46.7939 135.512 46.6243 135.384 46.4547C135.512 46.624 135.64 46.7935 135.768 46.9631Z" fill="#92DDF8"/>
<path d="M57.7952 140.825C57.9504 140.883 58.1055 140.942 58.2604 141C58.1052 140.941 57.9504 140.883 57.7952 140.825Z" fill="#92DDF8"/>
<path d="M139.311 61.9815C139.238 61.8934 139.165 61.8057 139.092 61.7176C139.165 61.8053 139.238 61.8934 139.311 61.9815Z" fill="#92DDF7"/>
<path d="M42.9869 31.7506C41.3759 33.1429 39.7531 34.5214 38.1565 35.9303C35.0148 38.7029 32.4752 41.9879 30.3969 45.6165C28.3254 49.2339 26.432 52.9639 25.4184 57.044C24.7737 59.6406 24.3218 62.2919 23.9046 64.9385C23.634 66.6555 23.386 68.4175 23.4684 70.1429C23.7265 75.5375 24.6934 80.7803 26.8434 85.795C28.3193 89.2371 29.9073 92.5876 32.1716 95.5674C34.7481 98.9581 37.363 102.339 40.8827 104.807C43.7732 106.833 46.6192 108.996 49.7343 110.605C54.1677 112.895 58.916 114.529 63.8855 115.17C67.0021 115.573 70.1717 115.587 73.3205 115.681C74.257 115.709 75.2028 115.415 76.1443 115.268V119.523C74.6104 118.619 73.3908 119.214 72.0991 119.803C71.1505 120.235 70.0828 120.473 69.0438 120.612C68.0027 120.751 67.068 120.372 66.4656 119.405C66.386 119.277 66.2846 119.1 66.1634 119.07C64.7202 118.72 63.2866 118.27 61.8208 118.084C58.2046 117.624 54.5612 117.373 50.9547 116.853C49.7551 116.681 48.623 116.192 47.48 115.405C46.2271 114.542 45.4981 113.649 44.962 112.352C44.7667 111.881 44.4817 111.409 43.7313 111.672C43.4044 111.787 42.8779 111.594 42.5475 111.377C41.1555 110.462 39.9115 109.208 38.4066 108.61C36.9049 108.014 35.9419 106.86 34.698 106.018C34.6338 105.975 34.5564 105.943 34.5084 105.886C33.8031 105.047 33.0479 104.244 32.4139 103.353C31.7756 102.456 31.3703 101.398 30.2553 100.904C29.0852 100.385 29.3636 99.0287 28.8504 98.1118C28.4537 97.4028 28.5576 96.4263 28.2587 95.6383C27.7993 94.4275 27.3351 93.1692 26.6011 92.126C25.5833 90.6797 25.0285 89.1774 25.0239 87.414C25.021 86.3983 24.9393 85.3721 24.7662 84.3731C24.7038 84.0131 24.1917 83.7546 24.0264 83.3853C23.796 82.8703 23.5939 82.2986 23.5738 81.7442C23.5541 81.1927 23.9143 80.6203 23.8666 80.0786C23.6344 77.4454 23.2839 74.8231 23.0466 72.1906C22.8179 69.6526 22.6764 67.1067 22.4968 64.5644C22.7291 63.0885 22.9667 61.6133 23.1921 60.1359C23.4487 58.4569 23.634 56.7637 23.9619 55.0995C24.3064 53.352 24.7852 51.632 25.197 49.898C25.2217 49.794 25.2167 49.6322 25.154 49.5659C24.2454 48.6053 24.5268 47.876 25.5475 47.2423C25.6801 47.1601 25.7406 46.9074 25.7736 46.7223C26.0256 45.3094 27.6713 44.5211 27.453 42.8971C27.4452 42.8392 27.5186 42.7266 27.5749 42.7099C29.068 42.2674 29.1332 40.5522 30.1758 39.736C30.8847 39.1809 31.6681 38.8054 31.862 37.7481C31.952 37.2567 32.4619 36.8211 32.8354 36.4105C33.3414 35.8539 34.1098 35.4444 33.6647 34.525C34.8549 33.3174 35.9785 32.1442 37.1383 31.0087C38.4453 29.7294 39.6531 28.398 41.764 28.3668C43.1664 28.3462 44.6634 28.1362 45.682 26.77C46.0551 26.2695 46.7758 25.9748 47.394 25.7311C49.0846 25.0637 50.8006 24.4616 52.518 23.8681C52.7197 23.7986 52.9943 23.9441 53.2351 23.9898C53.1477 24.2092 53.1222 24.526 52.9613 24.6299C52.3789 25.0073 51.7374 25.2908 51.1428 25.6511C49.6609 26.5487 48.2861 27.7393 46.6919 28.3016C45.2032 28.8267 44.2825 29.9311 43.1223 30.7885C42.9417 30.9221 43.0256 31.4208 42.9869 31.7506Z" fill="#92DCF7"/>
<path d="M42.9871 31.7506C43.0258 31.4207 42.9423 30.9221 43.1229 30.7885C44.2834 29.9314 45.2038 28.827 46.6925 28.3016C48.287 27.7393 49.6618 26.5487 51.1434 25.6511C51.738 25.2908 52.3795 25.0076 52.9619 24.6299C53.1224 24.526 53.1479 24.2088 53.2357 23.9897C52.9949 23.9438 52.7203 23.7982 52.5186 23.8681C50.8008 24.4616 49.0848 25.0637 47.3946 25.7311C46.7764 25.9751 46.0556 26.2695 45.6826 26.7699C44.664 28.1365 43.167 28.3465 41.7646 28.3668C39.654 28.3976 38.4459 29.7294 37.1388 31.0087C35.9791 32.1442 34.8551 33.3174 33.6653 34.525C34.11 35.4444 33.342 35.8539 32.836 36.4105C32.4625 36.8211 31.9525 37.2567 31.8626 37.7481C31.6687 38.8054 30.8852 39.1809 30.1763 39.736C29.1338 40.5518 29.0685 42.2674 27.5755 42.7099C27.5192 42.7266 27.4457 42.8392 27.4536 42.8971C27.6719 44.5211 26.0261 45.3091 25.7742 46.7223C25.7412 46.9074 25.6803 47.1598 25.548 47.2423C24.5273 47.876 24.2456 48.6053 25.1545 49.5659C25.2169 49.6322 25.2219 49.794 25.1975 49.8979C24.7857 51.632 24.3066 53.352 23.9625 55.0995C23.6346 56.7641 23.4493 58.4569 23.1927 60.1359C22.9669 61.6129 22.7296 63.0881 22.4974 64.5644C21.7251 63.8569 21.5749 63.0067 22.0938 62.1199C22.8038 60.9061 22.8128 59.6652 22.4433 58.3656C22.3827 58.1527 22.2902 57.7761 22.3737 57.7204C23.3658 57.0548 22.9877 56.3154 22.6003 55.5079C22.5207 55.3417 22.7217 54.8812 22.9164 54.7642C23.8338 54.212 23.9227 53.566 23.4403 52.6354C23.2375 52.2444 23.183 51.5781 23.379 51.2102C23.9127 50.2094 23.6869 49.5141 22.8425 48.8942C22.7028 48.7914 22.6071 48.627 22.6203 48.6425C23.9561 47.155 25.228 45.7381 26.5293 44.2887C25.791 43.4059 25.8437 42.9341 26.8748 42.4651C27.6812 42.0983 28.6184 41.4871 28.1048 40.1969C28.0195 39.9829 28.1786 39.5629 28.3607 39.3681C28.8119 38.8854 29.2872 38.3796 29.8509 38.0598C31.3665 37.2002 31.3508 35.5172 32.0407 34.2136C32.4421 33.4554 33.0191 32.7844 33.5639 32.1127C34.4684 30.9982 35.6637 30.0404 36.2719 28.7865C37.0105 27.2638 38.4108 26.5161 39.3996 25.3201C39.5687 25.1155 39.9468 25.0634 40.2407 24.9931C40.7858 24.8628 41.3396 24.7712 41.866 24.5075C43.6415 24.8628 44.9747 24.1769 45.8403 22.4056C46.0517 21.9725 46.5191 21.53 46.9649 21.3757C48.301 20.9133 49.6876 20.6009 51.0477 20.2065C51.2875 20.137 51.4849 19.9302 51.7193 19.8274C52.1928 19.6203 52.6676 19.3302 53.1622 19.2817C53.6693 19.2318 54.0518 19.2716 54.1234 18.6053C54.2546 17.3876 55.0459 17.2438 56.0498 17.4738C56.8365 17.6537 57.6909 17.0961 57.7776 16.3158C57.8948 15.2628 57.1519 15.1542 56.3723 15.0473C55.7735 14.9655 55.1595 14.8453 54.6105 14.6059C54.3198 14.4792 54.1539 14.0613 53.9317 13.7749C54.3424 13.5276 54.8212 13.0029 55.151 13.0855C56.0742 13.3165 56.9203 13.608 57.8367 12.7397C57.4457 12.3066 57.0576 11.8996 56.6956 11.4702C55.9236 10.5551 56.0107 10.0634 57.0236 9.46087C57.3221 9.28344 57.6031 9.07161 57.9124 8.91736C58.1127 8.81742 58.3546 8.73196 58.5704 8.74681C59.2983 8.79714 60.7953 11.3 60.5888 12.0245C60.4874 12.3798 60.3756 12.8038 60.4752 13.1326C60.7777 14.1298 60.3838 14.6834 59.5201 15.0763C59.2359 15.2056 59.0133 15.4735 58.7628 15.6781C58.994 15.9175 59.1847 16.239 59.4646 16.3806C60.1728 16.7391 60.9186 17.2663 61.6536 17.2732C63.0854 17.2869 63.6958 18.4619 64.6756 19.0891C65.8558 19.8444 66.8052 19.6272 67.3804 18.3866C67.4897 18.1513 67.89 17.9449 68.1735 17.9188C69.4168 17.8047 70.6661 17.754 71.9141 17.6957C72.5692 17.665 73.2312 17.6099 73.8791 17.6762C74.1698 17.7059 74.4336 18.0064 74.7095 18.1838C74.487 18.404 74.2809 18.6452 74.0379 18.8396C73.7304 19.0851 73.3932 19.2926 73.0688 19.5164L73.109 19.8738C73.639 19.9907 74.1924 20.0465 74.6905 20.2453C75.0314 20.3811 75.2952 20.7156 75.5933 20.9611C75.3124 21.1053 75.0453 21.2979 74.7482 21.3848C73.9118 21.6299 73.0702 21.9671 72.2169 22.0141C71.2768 22.0659 70.3232 21.8132 69.372 21.7339C68.5513 21.6654 67.7191 21.5709 66.9041 21.6383C65.8773 21.723 64.8584 21.9377 63.8456 22.1441C63.4567 22.2234 63.0944 22.4345 62.6001 22.634C63.2761 23.4256 63.8696 23.2598 64.5742 23.0457C65.5228 22.7575 66.584 22.285 67.3213 23.502C65.8049 23.6327 64.2663 23.6439 62.7772 23.9238C60.791 24.2975 58.8442 24.8838 56.878 25.369C56.6555 25.424 56.4182 25.4168 56.1878 25.4381C56.1003 25.218 56.0125 24.9986 55.9251 24.7788C55.7821 25.0742 55.6387 25.3693 55.4957 25.6648C55.0291 25.8216 54.5625 25.9784 54.0958 26.1348C53.8478 25.8984 53.5002 25.4121 53.3672 25.466C52.2397 25.9237 51.1348 26.4484 50.0689 27.0379C49.9001 27.1313 49.9614 27.6495 49.9163 27.971C49.679 28.1097 49.4414 28.2484 49.2041 28.3874C49.1282 28.2636 49.0658 28.0427 48.9744 28.03C48.1207 27.9102 46.2922 29.0468 45.9557 29.8775C44.9665 30.5025 43.9773 31.1271 42.9882 31.7521L42.9871 31.7506ZM59.557 10.6645C59.0019 10.2397 58.651 9.97143 58.2998 9.70311C58.0539 10.0457 57.5776 10.4215 57.6206 10.7217C57.6733 11.0889 58.1607 11.3923 58.4604 11.7236C58.7589 11.4354 59.0571 11.1468 59.557 10.6645ZM57.936 22.9462C57.8898 22.7716 57.8436 22.5967 57.7973 22.4222C56.5781 22.7988 55.3588 23.1754 54.1392 23.552C54.1854 23.7156 54.2313 23.8793 54.2775 24.043C55.4972 23.6776 56.7164 23.3115 57.936 22.9462ZM61.8927 23.0997C61.8669 23.0334 61.8565 22.9317 61.811 22.911C61.7654 22.8908 61.6841 22.9523 61.6185 22.978C61.6443 23.0443 61.6544 23.1461 61.7002 23.1667C61.7454 23.1873 61.8271 23.1258 61.893 23.0997H61.8927Z" fill="#92DDF8"/>
<path d="M83.8155 83.1238C84.28 86.1212 84.8022 89.1111 85.1892 92.1183C85.4494 94.141 85.5068 96.1901 85.6759 98.2255C85.9942 102.049 86.2178 105.886 86.7181 109.685C86.8783 110.901 87.7879 112.016 88.3542 113.177C89.629 114.669 90.7895 116.284 92.2062 117.622C94.1609 119.469 94.4906 120.398 93.4187 122.771C92.7929 124.157 91.6299 124.423 90.6261 123.232C89.7666 122.212 89.1208 120.998 88.4549 119.826C87.9664 118.965 87.5743 118.046 87.1844 117.133C86.8554 116.363 86.3547 116.087 85.5781 116.401C84.9054 115.374 84.2395 114.358 83.5736 113.342C83.9026 109.738 83.0597 106.348 81.7243 103.051C80.1707 99.2148 78.2773 95.4902 77.9529 91.2533C77.1935 89.3121 76.4477 87.3647 75.6549 85.4376C75.5685 85.2272 75.2112 85.1305 74.9793 84.981C74.9023 84.8278 74.8252 84.6743 74.7482 84.5208L74.8535 84.5233L74.9578 84.5088C75.1202 84.4617 75.3621 84.4661 75.4305 84.3582C75.6685 83.9827 75.747 83.4359 76.0649 83.1919C77.2533 82.279 78.4454 81.4172 80.0793 81.343C81.9028 81.2601 83.0858 81.704 83.8148 83.1234L83.8155 83.1238Z" fill="#D17453"/>
<path d="M74.7488 84.5212C74.8258 84.6744 74.9029 84.8279 74.9799 84.9811C74.9602 85.1404 74.9405 85.3001 74.9208 85.4594C74.9 85.484 74.8563 85.5199 74.862 85.5314C74.8868 85.5829 74.9255 85.6274 74.9591 85.6748C75.3659 87.7109 75.7727 89.7474 76.1795 91.7834C76.1078 92.1474 75.9354 92.5243 75.9806 92.873C76.2479 94.9352 76.5128 97.0002 76.8791 99.0457C77.4439 102.201 77.9062 105.394 78.7667 108.47C79.3294 110.48 80.5193 112.312 81.4281 114.223C81.5328 114.465 81.6374 114.707 81.7417 114.949C81.6296 116.842 80.0978 117.743 78.895 119.108C78.7201 118.636 78.6398 118.227 78.4345 117.899C77.827 116.929 77.1701 115.99 76.5325 115.039C76.1691 114.338 75.4193 113.583 75.5061 112.944C76.0354 109.044 74.2377 105.965 72.2268 102.995C70.2821 100.123 69.3413 96.9187 68.7066 93.5805C68.2719 91.2946 67.0964 89.3882 65.8284 87.5172C66.8086 86.3856 67.6612 85.0955 68.7998 84.162C70.2692 82.9576 71.9734 82.0651 74.0022 82.9059C74.251 83.4443 74.4997 83.9827 74.7484 84.5212H74.7488Z" fill="#D27555"/>
<path d="M96.2614 25.482C96.7033 25.4316 96.9326 25.3292 97.0731 25.4019C98.1519 25.9592 99.2536 26.4882 100.271 27.1473C101.584 27.9978 102.728 29.4604 104.126 29.741C105.637 30.0444 106.112 30.9515 106.921 31.89C108.092 33.2497 109.545 34.3588 110.771 35.6758C111.305 36.2494 111.945 36.7016 112.433 37.218C113.034 37.8524 113.182 39.0133 113.328 39.9772C113.561 41.5059 113.665 43.0583 113.743 44.6048C113.761 44.9709 113.459 45.3533 113.304 45.7284C112.964 45.5155 112.542 45.3724 112.298 45.0781C110.63 43.0579 109.059 40.953 107.339 38.9796C105.672 37.0666 103.882 35.2615 102.11 33.4445C101.39 32.7069 100.549 32.091 99.8119 31.3693C98.6902 30.2715 97.4881 29.2206 96.5685 27.9645C96.1585 27.4044 96.352 26.393 96.2614 25.482Z" fill="#92DDF8"/>
<path d="M81.4283 114.223C80.5194 112.312 79.3295 110.48 78.7669 108.47C77.9064 105.394 77.444 102.201 76.8792 99.0456C76.5129 97.0001 76.2481 94.9351 75.9807 92.8729C75.9356 92.5246 76.1076 92.1473 76.1793 91.7837C76.7706 91.607 77.362 91.4303 77.9533 91.2536C78.2777 95.4905 80.171 99.2151 81.7247 103.051C83.0604 106.348 83.903 109.739 83.574 113.342C82.8586 113.636 82.1433 113.929 81.4283 114.223Z" fill="#FEFDFC"/>
<path d="M76.5326 115.038C77.1701 115.989 77.8271 116.928 78.4345 117.899C78.6399 118.227 78.7202 118.635 78.8951 119.108C80.0979 117.743 81.6296 116.842 81.7418 114.949C82.8704 117.034 83.809 119.195 83.7818 121.62C83.7764 122.102 83.3553 122.762 82.9345 123.014C82.34 123.369 81.5497 123.533 81.0057 122.744C80.6229 121.575 80.2398 120.406 79.857 119.237C79.8348 119.219 79.8126 119.2 79.7907 119.182C79.8154 119.198 79.8405 119.214 79.8656 119.229C80.0971 120.47 80.3283 121.71 80.5598 122.951C79.8946 122.331 78.9883 121.831 78.6163 121.065C77.8984 119.589 77.4823 117.962 76.9408 116.398C76.8031 116.001 76.6641 115.604 76.5254 115.207C76.5318 115.151 76.5343 115.095 76.5326 115.038Z" fill="#DB7656"/>
<path d="M81.2541 24.875C77.953 24.4765 74.6514 24.0802 71.351 23.6751C71.1643 23.6523 70.9865 23.5579 70.8044 23.4967C71.2725 23.3049 71.752 22.9252 72.2065 22.9541C73.9884 23.0674 75.7854 23.1916 77.5315 23.543C78.8091 23.8 80.0159 24.4182 81.2545 24.8753L81.2541 24.875Z" fill="#96DFF8"/>
<path d="M126.099 82.1414C125.724 81.7176 125.471 81.4323 125.219 81.1471C125.555 80.8612 125.876 80.3798 126.232 80.3516C126.51 80.3295 126.832 80.8699 127.134 81.1602C126.833 81.4454 126.532 81.7306 126.099 82.141L126.099 82.1414Z" fill="#F6FCFE"/>
<path d="M61.8389 126.332C62.364 126.315 62.8886 126.298 63.4137 126.281L63.2617 127.407C62.7675 127.313 62.2736 127.22 61.7794 127.127C61.7991 126.862 61.8192 126.597 61.8389 126.332Z" fill="#F6FCFE"/>
<path d="M79.8571 119.237C80.2398 120.406 80.6229 121.575 81.0057 122.744C80.857 122.813 80.7082 122.882 80.5599 122.95C80.3283 121.71 80.0968 120.47 79.8657 119.229L79.8574 119.237H79.8571Z" fill="#2D2933"/>
<path d="M107.39 131.368C105.437 134.267 102.22 134.366 99.6002 135.671C99.5199 135.553 99.4393 135.434 99.359 135.315C99.8626 134.96 100.399 134.643 100.862 134.24C101.625 133.577 102.278 132.769 103.091 132.182C104.164 131.406 105.336 130.763 106.498 130.123C106.637 130.046 107.092 130.279 107.196 130.477C107.363 130.799 107.361 131.211 107.39 131.368Z" fill="#92DDF7"/>
<path d="M11.7993 53.0558C12.3767 52.3822 12.9326 51.7792 13.7619 52.4362C13.9332 52.5719 13.9095 53.3396 13.7217 53.488C13.0562 54.0142 12.3788 53.9067 11.7993 53.0558Z" fill="#F6FCFE"/>
<path d="M119.21 32.4253C118.543 32.7605 118.201 33.0648 117.86 33.063C117.586 33.0616 117.313 32.6895 117.039 32.4821C117.311 32.2313 117.567 31.8035 117.858 31.7767C118.183 31.747 118.541 32.0818 119.21 32.4253Z" fill="#F6FCFE"/>
<path d="M121.375 33.4061C121.665 33.7815 122.015 34.041 122.033 34.3219C122.046 34.5274 121.524 34.99 121.414 34.9408C121.076 34.7909 120.823 34.4489 120.536 34.1818C120.773 33.9625 121.011 33.7435 121.375 33.4061Z" fill="#93DEFA"/>
<path d="M118.113 30.1205C118.402 29.9001 118.692 29.6797 118.982 29.4593C119.095 29.6859 119.34 30.0793 119.299 30.1122C119.034 30.3261 118.708 30.4615 118.402 30.6226C118.305 30.455 118.209 30.2881 118.113 30.1205Z" fill="#93DEFA"/>
<path d="M93.9949 133.233C93.934 133.467 93.8731 133.702 93.8121 133.936C93.6781 133.899 93.5441 133.862 93.4097 133.826C93.4842 133.593 93.5588 133.36 93.6333 133.126C93.7537 133.162 93.8741 133.197 93.9949 133.233Z" fill="#93DEFA"/>
<path d="M94.0262 136.402C93.9645 136.527 93.9194 136.619 93.8746 136.71C93.7821 136.632 93.6667 136.568 93.6094 136.469C93.5893 136.435 93.6986 136.274 93.7739 136.249C93.8305 136.231 93.9273 136.338 94.0258 136.402H94.0262Z" fill="#92DDF7"/>
<path d="M94.1233 138.946C93.9849 138.981 93.847 139.016 93.7086 139.051C93.6936 138.986 93.6785 138.92 93.6635 138.855C93.8029 138.824 93.9419 138.794 94.0813 138.764C94.0953 138.824 94.1093 138.885 94.1233 138.946Z" fill="#93DEFA"/>
<path d="M15.235 36.732C15.2995 36.761 15.3995 36.7755 15.4181 36.8229C15.4364 36.8693 15.3719 36.949 15.3436 37.0142C15.2791 36.9856 15.1783 36.9714 15.1601 36.9244C15.1418 36.8776 15.2063 36.7976 15.235 36.732Z" fill="#93DEFA"/>
<path d="M12.4241 56.4174C12.3585 56.4428 12.2768 56.5044 12.2316 56.4838C12.1857 56.4631 12.1757 56.3612 12.1499 56.2949C12.2155 56.2692 12.2968 56.2075 12.3424 56.2278C12.3882 56.2481 12.3983 56.3504 12.4241 56.4171V56.4174Z" fill="#93DEFA"/>
<path d="M52.1378 9.25728C52.0722 9.28265 51.9905 9.34428 51.9454 9.32361C51.8995 9.30295 51.8895 9.20109 51.8636 9.13475C51.9292 9.10901 52.0106 9.04739 52.0561 9.06769C52.102 9.08799 52.112 9.19057 52.1378 9.25728Z" fill="#93DEFA"/>
<path d="M92.3391 137.631C92.4036 137.659 92.4681 137.687 92.5326 137.715C92.5047 137.78 92.4911 137.882 92.4448 137.9C92.3979 137.919 92.3194 137.855 92.2545 137.827C92.2825 137.761 92.3104 137.696 92.3387 137.631H92.3391Z" fill="#92DDF7"/>
<path d="M53.322 7.88179C53.3865 7.9097 53.451 7.93798 53.5155 7.96625C53.4876 8.03151 53.474 8.13337 53.4277 8.1515C53.3808 8.16998 53.3023 8.10582 53.2374 8.07791C53.2654 8.01266 53.2937 7.9474 53.322 7.88179Z" fill="#93DEFA"/>
<path d="M60.873 72.3293C59.1398 66.9517 56.01 62.5519 51.7562 58.9135C48.0587 55.7506 45.1238 51.9648 42.9329 47.5946C41.9208 45.5759 42.0696 43.6362 44.9744 43.122C46.5506 42.8428 48.1468 42.6491 49.7421 42.5155C51.5387 42.3648 53.3446 42.325 55.1463 42.237C55.261 42.6654 55.6111 43.2744 55.4487 43.491C54.8122 44.3397 55.1183 45.1508 55.3025 45.9934C53.5589 46.6438 51.8154 47.2937 49.8331 48.0331C51.2627 49.345 52.339 50.5476 53.6217 51.4506C54.9925 52.4156 56.5031 53.238 58.0546 53.8655C59.728 54.5422 60.8823 53.5606 60.7372 51.8196C60.6609 51.3163 60.5845 50.8133 60.4942 50.2177C62.3919 51.0708 62.8621 51.056 64.9372 50.1565C65.0691 50.7246 65.0813 51.3684 65.3712 51.8363C65.5959 52.1987 66.2719 52.6354 66.569 52.5297C67.8893 52.059 69.2963 51.6074 70.3941 50.775C72.7702 48.9732 73.8107 46.1202 75.3643 43.6735C76.2488 42.7574 77.1333 41.8409 78.0182 40.9248C77.9006 40.8201 77.7827 40.7155 77.6652 40.6112C76.8527 41.5516 76.0399 42.4919 75.227 43.4323C73.2706 43.5167 71.3141 43.6655 69.3576 43.6633C67.985 43.6619 66.8858 44.1044 65.9934 45.1298C65.3648 44.7391 65.5282 44.2934 65.9056 43.8332C65.9497 43.726 65.9808 43.6105 66.0396 43.5123C66.9306 42.0288 66.9259 42.04 65.3823 41.2557C65.2673 41.1971 65.3074 40.8263 65.2755 40.6003C66.7786 40.151 68.2764 39.6817 69.7859 39.2566C73.1964 38.2959 76.6316 37.4827 80.2112 37.5703C81.7304 37.6076 82.182 38.0794 82.1938 39.6078C82.2358 44.9325 80.5463 49.7672 78.1633 54.4188C77.0348 56.6218 76.094 58.9142 76.4122 61.4601C76.6369 63.2558 77.0864 65.0221 77.4286 66.8029C77.4799 67.0691 77.4946 67.3421 77.5265 67.6118C77.1935 67.6883 76.8624 67.8204 76.5269 67.8324C72.3441 67.9816 68.3814 69.0729 64.5419 70.681C63.3058 71.1988 62.0948 71.7785 60.8723 72.33L60.873 72.3293ZM60.6103 63.1367C60.7712 63.0907 60.9322 63.0443 61.0934 62.9983C60.7942 61.9385 60.4949 60.879 60.1953 59.8191C60.0537 59.86 59.9122 59.9006 59.7706 59.9415C60.0505 61.0064 60.3304 62.0714 60.6103 63.1367Z" fill="#D27555"/>
<path d="M60.8729 72.3293C62.0954 71.7778 63.3064 71.1981 64.5425 70.6803C68.382 69.0722 72.3447 67.9809 76.5275 67.8317C76.863 67.8197 77.1941 67.6876 77.5271 67.6112C78.6317 69.4503 79.9993 71.1829 80.7809 73.1527C82.0457 76.3403 82.9259 79.6835 83.9603 82.9634C83.971 82.9978 83.8663 83.0695 83.8155 83.1242C83.0865 81.7051 81.9034 81.2612 80.0799 81.3438C78.446 81.418 77.254 82.2798 76.0656 83.1926C75.7477 83.4367 75.6692 83.9835 75.4312 84.359C75.3628 84.4669 75.1208 84.4625 74.9585 84.5092C74.5711 83.0243 74.1836 81.5397 73.7962 80.0551C73.5253 79.341 73.3088 78.7714 73.946 77.9719C74.5284 77.2408 74.6241 76.114 74.9341 75.1617C74.8381 75.1305 74.7424 75.0994 74.6463 75.0682C74.2288 76.139 73.8116 77.2093 73.3142 78.4854C72.8658 77.8977 72.6171 77.5721 72.3687 77.2466C72.3107 77.2897 72.2526 77.3328 72.1949 77.3755C72.6081 78.2743 73.0214 79.1733 73.4346 80.0721C73.6238 81.0168 73.8134 81.9615 74.0027 82.9059C71.9742 82.0647 70.2696 82.9573 68.8006 84.1616C67.6616 85.0951 66.8094 86.3853 65.8291 87.5168C64.8561 85.9671 63.52 84.5331 62.9921 82.8418C62.0882 79.9472 61.6843 76.8928 61.084 73.9026C60.9801 73.3852 60.9421 72.854 60.874 72.3289L60.8729 72.3293Z" fill="#233368"/>
<path d="M55.3029 45.9927C55.1187 45.1501 54.8126 44.3394 55.4491 43.4902C55.6115 43.2737 55.2613 42.665 55.1466 42.2363C55.2223 41.9759 55.4165 41.6816 55.3538 41.4614C54.9886 40.1774 55.4556 39.4706 56.7089 39.149C56.8891 39.1027 57.0246 38.6787 57.0898 38.4071C57.3267 37.416 57.731 36.7128 58.9345 36.8396C59.3592 36.8845 59.8083 36.648 60.2516 36.5705C60.6214 36.5057 61.2268 36.3196 61.3361 36.4728C62.0174 37.4254 62.9635 37.0029 63.8158 37.1209C64.6656 37.2386 65.3508 37.7068 65.4099 38.6635C65.4497 39.3033 65.3268 39.9536 65.2766 40.5989C65.3085 40.8245 65.2684 41.1956 65.3834 41.2543C66.927 42.0386 66.9317 42.027 66.0407 43.5109C65.9819 43.609 65.9508 43.7242 65.9067 43.8317C65.4802 43.2132 64.953 42.64 64.6516 41.9644C64.2237 41.0055 63.6352 40.6956 62.6672 41.0497C61.9486 41.3126 61.2078 41.5168 60.4985 41.8021C58.3872 42.6513 58.0769 43.2158 58.3542 45.5672C57.7468 46.0322 57.1393 46.4971 56.5318 46.9621C56.2716 46.8856 56.0111 46.8092 55.7509 46.7325C55.6018 46.4855 55.4523 46.2389 55.3032 45.992L55.3029 45.9927Z" fill="#213267"/>
<path d="M107.027 66.3315C107.033 65.2452 108.098 64.1509 109.177 64.1219C110.212 64.0941 111.449 65.3071 111.462 66.3626C111.479 67.7111 110.451 68.7152 109.087 68.684C107.91 68.6572 107.019 67.6394 107.026 66.3315H107.027Z" fill="#90DDF7"/>
<path d="M44.6152 69.9514C45.961 69.9677 46.872 70.8168 46.8802 72.0628C46.8885 73.2708 45.9377 74.3806 44.8904 74.3849C43.5952 74.3904 42.4638 73.2262 42.4917 71.9169C42.5154 70.8125 43.4608 69.9376 44.6152 69.9514Z" fill="#93DEFA"/>
<path d="M93.5896 68.4932C93.5717 69.6791 92.403 70.866 91.2952 70.8244C90.1849 70.7828 89.352 69.8359 89.3792 68.6471C89.4071 67.433 90.3519 66.2735 91.3278 66.2562C92.4148 66.2366 93.6061 67.4152 93.5896 68.4932Z" fill="#92DDF8"/>
<path d="M55.6494 102.122C57.078 102.104 57.8173 102.818 57.8242 104.223C57.8303 105.451 57.0393 106.275 55.8283 106.303C54.7241 106.329 53.6994 105.36 53.7023 104.293C53.7055 103.145 54.6104 102.136 55.6494 102.122ZM55.434 102.555C55.0111 103.382 54.5456 103.878 54.5993 104.308C54.6488 104.702 55.2595 105.024 55.6225 105.377C55.9462 104.972 56.5185 104.571 56.5243 104.161C56.53 103.741 55.9817 103.314 55.434 102.555Z" fill="#8ADCF9"/>
<path d="M49.9147 27.9696C49.9598 27.6481 49.8985 27.1299 50.0673 27.0365C51.1332 26.447 52.2381 25.9223 53.3656 25.4646C53.4986 25.4107 53.8462 25.8973 54.0943 26.1334C52.7012 26.7457 51.3077 27.3577 49.9147 27.9696Z" fill="#93DEFA"/>
<path d="M45.9542 29.8752C46.2911 29.0449 48.1193 27.9088 48.973 28.0286C49.064 28.0413 49.1267 28.2621 49.2027 28.3859C48.12 28.8821 47.0369 29.3787 45.9542 29.8752Z" fill="#93DEFA"/>
<path d="M55.4945 25.663C55.6375 25.3677 55.7805 25.0727 55.9239 24.7773C56.0113 24.9967 56.0988 25.2164 56.1866 25.4364C55.9561 25.5124 55.7253 25.5877 55.4945 25.663Z" fill="#93DEFA"/>
<path d="M59.5566 10.6641C59.057 11.1466 58.7584 11.4347 58.4599 11.7224C58.1603 11.3916 57.6725 11.0879 57.6202 10.7209C57.5772 10.4209 58.0535 10.0448 58.2993 9.70277C58.6502 9.97097 59.0014 10.2395 59.5566 10.6637V10.6641Z" fill="#F6FCFE"/>
<path d="M57.9355 22.9456C56.7159 23.3108 55.4966 23.6764 54.277 24.0416C54.2308 23.878 54.1849 23.7144 54.1387 23.5508C55.3579 23.1744 56.5772 22.798 57.7968 22.4215C57.843 22.596 57.8893 22.7712 57.9355 22.9456Z" fill="#92DCF7"/>
<path d="M61.8922 23.1003C61.8266 23.1257 61.7449 23.1873 61.6998 23.1666C61.6539 23.146 61.6438 23.0441 61.618 22.9778C61.6836 22.952 61.765 22.8904 61.8105 22.9107C61.8564 22.931 61.8664 23.0336 61.8922 23.1003Z" fill="#93DEFA"/>
<path d="M77.9533 91.2536C77.3619 91.4303 76.7706 91.6071 76.1792 91.7838C75.7728 89.7477 75.366 87.7112 74.9592 85.6751C74.9804 85.5973 74.9675 85.5256 74.9209 85.4601C74.9406 85.3004 74.9603 85.141 74.98 84.9817C75.2116 85.1313 75.5689 85.2279 75.6552 85.4383C76.448 87.3658 77.1938 89.3124 77.9533 91.2536Z" fill="#1D3462"/>
<path d="M73.7963 80.055C74.1837 81.5396 74.5711 83.0246 74.9586 84.5092L74.8543 84.5237L74.7489 84.5211C74.5002 83.9827 74.2515 83.4442 74.0027 82.9058C73.8131 81.9614 73.6236 81.0167 73.4343 80.0724C73.5551 80.0666 73.6755 80.0608 73.7963 80.055Z" fill="#D1D3DB"/>
<path d="M74.9209 85.4597C74.9675 85.525 74.9804 85.5963 74.9592 85.6738C74.9255 85.6269 74.8868 85.5826 74.8621 85.5311C74.8564 85.5195 74.9001 85.4842 74.9209 85.4597Z" fill="#D17453"/>
<path d="M79.8656 119.229C79.8405 119.213 79.8157 119.198 79.7906 119.182C79.8129 119.2 79.8351 119.218 79.857 119.236L79.8656 119.229Z" fill="#2D2933"/>
<path d="M75.3649 43.6724C73.8113 46.1187 72.7705 48.9721 70.3947 50.7739C69.297 51.6063 67.8899 52.0579 66.5696 52.5286C66.2725 52.6347 65.5966 52.1977 65.3718 51.8352C65.0815 51.3674 65.0697 50.7235 64.9378 50.1561C64.8923 49.9852 64.8468 49.8136 64.8016 49.6416C66.4345 49.2223 66.9957 47.7685 66.2058 46.0039C66.17 45.8508 66.1338 45.6972 66.0979 45.5441C66.0485 45.4318 65.999 45.3196 65.9496 45.207L65.9944 45.1284C66.8868 44.1026 67.986 43.6601 69.3586 43.6619C71.3151 43.6641 73.2715 43.5152 75.228 43.4309C75.2739 43.5113 75.3198 43.5916 75.3653 43.672L75.3649 43.6724Z" fill="#FEFDFC"/>
<path d="M55.3028 45.9927C55.4519 46.2396 55.6013 46.4862 55.7504 46.7332C55.9178 47.0493 56.1278 47.3502 56.2443 47.6844C56.6611 48.8812 57.403 49.5264 58.7247 49.3226C59.5541 49.1944 60.0157 49.6542 60.268 50.3933C60.4296 50.8665 60.5812 51.3438 60.7371 51.8189C60.8823 53.5598 59.7279 54.5419 58.0545 53.8647C56.5031 53.2372 54.9924 52.4149 53.6216 51.4499C52.3389 50.5468 51.2626 49.3443 49.833 48.0324C51.8153 47.2933 53.5589 46.643 55.3024 45.9927H55.3028Z" fill="#FDFCFC"/>
<path d="M65.994 45.1287L65.9495 45.2077C65.999 45.3203 66.0485 45.4322 66.0976 45.544C66.1334 45.6972 66.1696 45.8507 66.2054 46.0039C66.1639 46.2005 66.1366 46.4015 66.0786 46.5927C65.9323 47.0746 65.7721 47.5526 65.6173 48.032C65.2471 47.9082 64.8772 47.7844 64.507 47.6605C64.6647 47.2912 65.055 46.8013 64.9392 46.5739C64.4697 45.6516 63.8451 44.8104 63.2777 43.9392C63.1845 44.0015 63.091 44.0638 62.9975 44.1261C63.2953 44.6069 63.6311 45.069 63.8795 45.5748C64.1027 46.0296 64.23 46.5326 64.3995 47.0145C63.8845 47.1807 63.3695 47.3473 62.7158 47.5584C62.7713 46.9859 62.8011 46.6803 62.8308 46.3743C62.7462 46.3519 62.6616 46.3291 62.5771 46.3066L62.2545 47.4349C61.8864 47.3868 61.2983 47.4661 61.1869 47.2694C60.6102 46.2527 59.9164 46.6365 59.1928 46.966C58.9132 46.5 58.634 46.0336 58.3545 45.5676C58.0767 43.2161 58.3871 42.6516 60.4984 41.8025C61.2076 41.5171 61.9484 41.3129 62.667 41.05C63.635 40.6963 64.2239 41.0059 64.6514 41.9647C64.9529 42.6404 65.48 43.2132 65.9065 43.832C65.5288 44.2919 65.3657 44.7377 65.9943 45.1284L65.994 45.1287Z" fill="#D77858"/>
<path d="M60.7375 51.8189C60.5816 51.3434 60.43 50.8666 60.2684 50.3933C60.0161 49.6543 59.5545 49.1948 58.7252 49.3226C57.4038 49.5268 56.6615 48.8815 56.2447 47.6844C56.1282 47.3502 55.9182 47.0493 55.7509 46.7332C56.011 46.8096 56.2716 46.886 56.5321 46.9628C56.7719 48.4977 57.3726 48.8417 58.7714 48.2877C59.0294 48.1856 59.3423 48.2243 59.6297 48.1979C61.2819 50.1022 62.5714 50.4625 64.801 49.6423C64.8465 49.8139 64.892 49.9852 64.9375 50.1561C62.8624 51.0549 62.3922 51.0697 60.4945 50.217C60.5849 50.8126 60.6612 51.3156 60.7375 51.8189Z" fill="#1F2E55"/>
<path d="M60.6103 63.1367C60.3304 62.0717 60.0505 61.0068 59.7706 59.9415C59.9122 59.9006 60.0538 59.86 60.1953 59.8191C60.4946 60.879 60.7938 61.9385 61.0935 62.9983C60.9325 63.0443 60.7716 63.0907 60.6103 63.1367Z" fill="#464142"/>
<path d="M75.3649 43.6724C75.319 43.592 75.2732 43.5116 75.2277 43.4312C76.0401 42.4909 76.853 41.5505 77.6655 40.6101C77.783 40.7148 77.9009 40.8194 78.0185 40.9237C77.134 41.8398 76.2498 42.7563 75.3649 43.6724Z" fill="#464142"/>
<path d="M73.7962 80.0551C73.6755 80.0608 73.555 80.0666 73.4343 80.0724C73.021 79.1733 72.6078 78.2746 72.1946 77.3755C72.2526 77.3324 72.3107 77.2893 72.3684 77.2466C72.6168 77.5721 72.8655 77.8977 73.3138 78.4854C73.8113 77.2093 74.2288 76.1386 74.646 75.0682C74.742 75.0994 74.8377 75.1305 74.9338 75.1616C74.6238 76.114 74.5281 77.2408 73.9457 77.9719C73.3088 78.7714 73.5253 79.341 73.7962 80.0551Z" fill="#BDBFCA"/>
<path d="M59.6293 48.1979C59.3419 48.2244 59.029 48.1852 58.771 48.2877C57.3722 48.8417 56.7715 48.4981 56.5317 46.9628C57.1389 46.4979 57.7463 46.0329 58.3542 45.568C58.6337 46.0344 58.9133 46.5004 59.1924 46.9664C59.338 47.377 59.4838 47.7873 59.6293 48.1979Z" fill="#C06B54"/>
<path d="M55.4339 102.555C55.9816 103.314 56.5303 103.741 56.5245 104.161C56.5188 104.571 55.9464 104.972 55.6228 105.377C55.2594 105.024 54.6487 104.702 54.5996 104.308C54.5458 103.878 55.011 103.382 55.4343 102.555H55.4339Z" fill="#F6FCFE"/>
<path d="M59.6294 48.1979C59.4839 47.7873 59.338 47.377 59.1925 46.9664C59.9161 46.6369 60.6099 46.2531 61.1866 47.2698C61.2981 47.4665 61.8862 47.3872 62.2543 47.4353C62.9205 48.3717 63.7645 47.499 64.5071 47.6609C64.8773 47.7847 65.2472 47.9086 65.6174 48.0324C65.7719 47.553 65.9321 47.075 66.0787 46.5931C66.1367 46.4015 66.1643 46.2009 66.2055 46.0043C66.9954 47.7688 66.4342 49.2226 64.8014 49.642C62.5711 50.4628 61.2816 50.1025 59.6294 48.1983V48.1979Z" fill="#D27555"/>
<path d="M66.0976 45.543C66.0481 45.4315 65.999 45.3199 65.9496 45.2077C65.9987 45.3192 66.0481 45.4311 66.0976 45.543Z" fill="#D27555"/>
<path d="M64.507 47.6605C63.7644 47.4987 62.9204 48.3713 62.2542 47.435C62.362 47.0587 62.4695 46.6825 62.5771 46.3063C62.6616 46.3287 62.7462 46.3516 62.8308 46.374C62.8011 46.68 62.7713 46.9856 62.7158 47.5581C63.3698 47.347 63.8848 47.1804 64.3995 47.0142C64.23 46.5322 64.1027 46.0293 63.8795 45.5745C63.6311 45.0686 63.2953 44.6066 62.9975 44.1257C63.091 44.0635 63.1842 44.0012 63.2777 43.9389C63.8451 44.8101 64.4701 45.6516 64.9392 46.5735C65.055 46.8009 64.6647 47.2908 64.507 47.6602V47.6605Z" fill="#37353B"/>
</svg>
