<?xml version="1.0" encoding="utf-8"?>
<!-- Generator: Adobe Illustrator 27.7.0, SVG Export Plug-In . SVG Version: 6.00 Build 0)  -->
<svg version="1.1" xmlns="http://www.w3.org/2000/svg" xmlns:xlink="http://www.w3.org/1999/xlink" x="0px" y="0px"
	 viewBox="0 0 304.9 257.4" style="enable-background:new 0 0 304.9 257.4;" xml:space="preserve">
<style type="text/css">
	.st0{clip-path:url(#SVGID_00000078759119308127025580000005332584255924894911_);}
	.st1{fill:#B38CE7;}
	.st2{fill:#8C67C7;}
	.st3{fill:#59B9CF;}
	.st4{fill:#3B8EBA;}
	.st5{clip-path:url(#SVGID_00000174577471049513850590000000227967176003534467_);fill:#CCFF00;}
	.st6{clip-path:url(#SVGID_00000174577471049513850590000000227967176003534467_);fill:#C3E800;}
	.st7{clip-path:url(#SVGID_00000174577471049513850590000000227967176003534467_);fill:#E0FF8C;}
	.st8{fill:#24539F;}
	.st9{clip-path:url(#SVGID_00000143596184595202252710000006241946372465849526_);}
	.st10{fill:#459BBB;}
	.st11{fill:#2961A9;}
	.st12{fill:#3B87BA;}
	.st13{fill:#EBEBEB;}
	.st14{fill:#CCFF00;}
	.st15{fill:#B78BEF;}
	.st16{fill:none;}
	.st17{fill:#3070B4;}
	.st18{fill:#459ABA;}
	.st19{fill:#2961A9;stroke:#2961A9;stroke-miterlimit:10;}
	.st20{fill:#3B86B9;}
	.st21{fill:#538FB0;}
	.st22{fill:#FFFFFF;}
	.st23{fill:#3A5A98;}
	.st24{fill:#3070B5;}
	.st25{fill:#FFFFFF;stroke:#2961A9;stroke-width:0.1621;stroke-miterlimit:10;}
	.st26{fill:#2961A9;stroke:#2961A9;stroke-width:0.1484;stroke-miterlimit:10;}
	.st27{fill:#009DBF;}
	.st28{fill:none;stroke:#B28BE6;stroke-width:2.6852;stroke-miterlimit:10;}
	.st29{fill:none;stroke:#B28BE6;stroke-width:2.6852;stroke-miterlimit:10;stroke-dasharray:6.5158,6.5158;}
	.st30{fill:none;stroke:#B28BE6;stroke-width:4;stroke-miterlimit:10;stroke-dasharray:6.5416;}
	.st31{fill:#006EB3;}
	.st32{fill:none;stroke:#B38CE7;stroke-width:4;stroke-miterlimit:10;}
	.st33{fill:none;stroke:#936EC4;stroke-width:4;stroke-miterlimit:10;}
	.st34{fill:#E4E4EF;}
	.st35{fill:none;stroke:#B38CE7;stroke-width:5;stroke-miterlimit:10;}
	.st36{clip-path:url(#SVGID_00000009583877359549675550000010222681396673843369_);fill:#B38CE7;}
	.st37{clip-path:url(#SVGID_00000009583877359549675550000010222681396673843369_);fill:#9D75D1;}
	.st38{clip-path:url(#SVGID_00000009583877359549675550000010222681396673843369_);}
	.st39{fill:#9D75D1;}
	.st40{fill:none;stroke:#2961A9;stroke-width:4;stroke-miterlimit:10;}
	.st41{fill:none;stroke:#24539F;stroke-width:4.7611;stroke-miterlimit:10;}
	.st42{clip-path:url(#SVGID_00000073709490259688532470000010874648369801550269_);fill:#24539F;}
	.st43{clip-path:url(#SVGID_00000073709490259688532470000010874648369801550269_);fill:#2961A9;}
	.st44{clip-path:url(#SVGID_00000073709490259688532470000010874648369801550269_);fill:#3B87BA;}
	.st45{clip-path:url(#SVGID_00000073709490259688532470000010874648369801550269_);}
	.st46{clip-path:url(#SVGID_00000089553369130700004200000014027938239181723817_);fill:#24539F;}
	.st47{clip-path:url(#SVGID_00000089553369130700004200000014027938239181723817_);fill:#2961A9;}
	.st48{clip-path:url(#SVGID_00000089553369130700004200000014027938239181723817_);fill:#3B87BA;}
	.st49{clip-path:url(#SVGID_00000089553369130700004200000014027938239181723817_);}
	.st50{clip-path:url(#SVGID_00000093140543628595526130000001259178363802643632_);fill:#24539F;}
	.st51{clip-path:url(#SVGID_00000093140543628595526130000001259178363802643632_);fill:#2961A9;}
	.st52{clip-path:url(#SVGID_00000093140543628595526130000001259178363802643632_);fill:#3B87BA;}
	.st53{clip-path:url(#SVGID_00000093140543628595526130000001259178363802643632_);}
	.st54{fill:none;stroke:#24539F;stroke-width:5;stroke-miterlimit:10;}
	.st55{clip-path:url(#SVGID_00000105408411348580939370000005758000463180260249_);fill:#24539F;}
	.st56{clip-path:url(#SVGID_00000105408411348580939370000005758000463180260249_);fill:#2961A9;}
	.st57{clip-path:url(#SVGID_00000105408411348580939370000005758000463180260249_);fill:#3B87BA;}
	.st58{clip-path:url(#SVGID_00000105408411348580939370000005758000463180260249_);}
	.st59{fill:#DCDCDE;}
	.st60{clip-path:url(#SVGID_00000162346902143311703610000001433734060466342056_);}
	.st61{clip-path:url(#SVGID_00000120552137954275987310000009984279165472889020_);}
	.st62{clip-path:url(#SVGID_00000097501870513555304240000014457683933895360951_);}
	.st63{clip-path:url(#SVGID_00000160872237176813674710000000356987158526719114_);}
	.st64{clip-path:url(#SVGID_00000018915920581526135160000009135239291301123257_);}
	.st65{clip-path:url(#SVGID_00000057834780678604558780000018184559085484386471_);}
	.st66{clip-path:url(#SVGID_00000130605241542810700680000010730867796661982369_);}
	.st67{clip-path:url(#SVGID_00000150787069578549899570000001188216158012295050_);}
	.st68{fill:#C3E800;}
	.st69{clip-path:url(#SVGID_00000035504357599251373340000008276452854358203290_);}
	.st70{fill:#E0FF8C;}
	.st71{clip-path:url(#SVGID_00000121989060650588323830000001950272258373343417_);}
	.st72{clip-path:url(#SVGID_00000134962126017723616590000008444306566830602368_);}
	.st73{clip-path:url(#SVGID_00000080914903835731617720000003306987889599635889_);}
	.st74{clip-path:url(#SVGID_00000001650578197394530060000007384876331901567931_);}
	.st75{clip-path:url(#SVGID_00000055675942751131791360000004330504294929021060_);}
	.st76{clip-path:url(#SVGID_00000176031889466569342670000011879734834863906691_);}
	.st77{clip-path:url(#SVGID_00000035508590870286912970000018404547903946842021_);}
	.st78{fill:#F7F7F7;}
	.st79{clip-path:url(#SVGID_00000131333874010521994210000006083788930844905148_);}
	.st80{clip-path:url(#SVGID_00000118395336232615529920000001994975017295847101_);}
	.st81{fill:#D9FF00;}
	.st82{fill:#C9ED00;}
	.st83{clip-path:url(#SVGID_00000102539647632006776690000005693807527694689965_);}
	.st84{clip-path:url(#SVGID_00000050632131497513784790000016030333600699323526_);}
	.st85{clip-path:url(#SVGID_00000173843323661366944920000018048272784328207266_);fill:#B38CE7;}
	.st86{clip-path:url(#SVGID_00000173843323661366944920000018048272784328207266_);}
	.st87{clip-path:url(#SVGID_00000082352354511494469090000007888789812476277125_);fill:#B38CE7;}
	.st88{clip-path:url(#SVGID_00000082352354511494469090000007888789812476277125_);}
	.st89{clip-path:url(#SVGID_00000154391353707144634800000017234495488114826133_);}
	.st90{clip-path:url(#SVGID_00000114055648876322667050000006039323866896420505_);}
	.st91{clip-path:url(#SVGID_00000107578785823880745600000004437269702414093959_);fill:#CCFF00;}
	.st92{clip-path:url(#SVGID_00000107578785823880745600000004437269702414093959_);fill:#C3E800;}
	.st93{clip-path:url(#SVGID_00000107578785823880745600000004437269702414093959_);fill:#E0FF8C;}
	.st94{clip-path:url(#SVGID_00000044143609559716648140000014365816482274632327_);fill:#3B87BA;}
	.st95{clip-path:url(#SVGID_00000044143609559716648140000014365816482274632327_);}
	.st96{clip-path:url(#SVGID_00000005955929220416221690000001061537596202720932_);fill:#FFFFFF;}
	.st97{clip-path:url(#SVGID_00000005955929220416221690000001061537596202720932_);}
	.st98{clip-path:url(#SVGID_00000127762394309507520770000008503293025190076088_);}
	.st99{clip-path:url(#SVGID_00000114764306148836824780000013779171803549861016_);fill:#DCDCDE;}
	.st100{clip-path:url(#SVGID_00000114764306148836824780000013779171803549861016_);}
	.st101{clip-path:url(#SVGID_00000174563194925884657110000007484392308746387333_);}
	.st102{clip-path:url(#SVGID_00000074410175362105281620000013453859041357307022_);fill:#CCFF00;}
	.st103{clip-path:url(#SVGID_00000074410175362105281620000013453859041357307022_);}
	.st104{clip-path:url(#SVGID_00000003817890076505150820000015163766428192604833_);}
	.st105{clip-path:url(#SVGID_00000046325304439732211370000018070071716704574102_);}
	.st106{clip-path:url(#SVGID_00000000939262819260691650000010657675478433316256_);}
	.st107{clip-path:url(#SVGID_00000152262583277499674130000001525334707198003842_);}
	.st108{clip-path:url(#SVGID_00000032614784009130256340000014709288309468958639_);}
	.st109{clip-path:url(#SVGID_00000118378104882914565510000016302476997128285591_);fill:#9D75D1;}
	.st110{clip-path:url(#SVGID_00000118378104882914565510000016302476997128285591_);}
	.st111{clip-path:url(#SVGID_00000075883195440220513150000017713063162183710345_);}
	.st112{clip-path:url(#SVGID_00000035514718323378566120000016568011839849039531_);}
	.st113{clip-path:url(#SVGID_00000132772382231332769020000017190718392227088779_);fill:#FFFFFF;}
	.st114{fill:none;stroke:#B28BE6;stroke-width:2.7011;stroke-miterlimit:10;stroke-dasharray:4.4173;}
	.st115{clip-path:url(#SVGID_00000074441671158079392120000003435083498124425615_);fill:#FFFFFF;}
	.st116{clip-path:url(#SVGID_00000074441671158079392120000003435083498124425615_);}
	.st117{fill:#D5FD51;}
	.st118{fill:none;stroke:#B38CE7;stroke-width:6.0424;stroke-miterlimit:10;}
	.st119{fill:none;stroke:#CCFF00;stroke-width:8.2148;stroke-linecap:round;stroke-linejoin:round;stroke-miterlimit:10;}
	.st120{fill:#B38CE7;stroke:#CCFF00;stroke-width:2.0856;stroke-miterlimit:10;}
	.st121{fill:none;stroke:#CCFF00;stroke-width:2.4332;stroke-linecap:round;stroke-linejoin:round;stroke-miterlimit:10;}
	.st122{fill:none;stroke:#B38CE7;stroke-width:8.4138;stroke-linecap:round;stroke-linejoin:round;stroke-miterlimit:10;}
	.st123{fill:#B38CE7;stroke:#B38CE7;stroke-width:2.1361;stroke-miterlimit:10;}
	.st124{fill:none;stroke:#B38CE7;stroke-width:2.4921;stroke-linecap:round;stroke-linejoin:round;stroke-miterlimit:10;}
	.st125{fill:none;stroke:#B38CE7;stroke-width:4.5144;stroke-miterlimit:10;}
	.st126{fill:none;stroke:#B38CE7;stroke-width:6.2927;stroke-linecap:round;stroke-linejoin:round;stroke-miterlimit:10;}
	.st127{fill:#B38CE7;stroke:#B38CE7;stroke-width:1.5976;stroke-miterlimit:10;}
	.st128{fill:none;stroke:#B38CE7;stroke-width:1.8638;stroke-linecap:round;stroke-linejoin:round;stroke-miterlimit:10;}
</style>
<g id="Layer_1">
</g>
<g id="Layer_2">
	<g>
		<g>
			<g>
				<g>
					<g>
						<path class="st117" d="M150.4,120.7l3,1.3c-1,0.9-1.8,2-2.6,3.2c0,0,0,0,0,0c0,0,0,0,0,0c-0.2,0.4-0.4,0.8-0.6,1.3
							c0,0-0.1,0-0.1-0.1c-0.2-0.1-0.4-0.3-0.6-0.4c-1.3,1.7-2.3,3.7-3.2,5.6l0,0l-1.8-0.7c-3-1.3-4.8-4.4-3.9-7
							c0.4-1.2,1.3-2.2,2.3-2.9c1.1-0.7,2.5-1.1,3.9-1.1C148,119.9,149.2,120.2,150.4,120.7z"/>
						<path class="st117" d="M231.7,162.2c0.1,1.6-7.9-4.1-8.8-4.8c0,0,0,0,0,0c-0.8,0.1-9.3,2.1-9.5,2l-41.6-17.2v0
							c-0.3-4.8-0.9-8.8-1.2-11c-0.1-0.8-0.2-1.5-0.3-2.2l56.4,24.8c0.3,0.1,3.5,0.4,3.7,0.6c-1.8-0.1-2.2-0.4-3.6,1.4
							c-0.7,0.9,4.3,0.9,4,2l-1.8,0.3C228.7,158.9,231.7,161.4,231.7,162.2z"/>
					</g>
					<g>
						<path class="st117" d="M100.3,147.6l20.1,8.5c-0.9,2.3-2,4.5-3.2,6.7c-0.6,1-1.2,2-2,2.8c-1.1,1-2.5,1.7-3.9,2.3
							c-2.1,0.9-4.1,1.7-6.2,2.6l-13.8-5.8c-3.7-1.6-5.6-6.3-4.1-10.5c1.6-4.5,5.5-7.3,9.6-7.3C97.9,146.9,99.1,147.1,100.3,147.6z"
							/>
						<path class="st117" d="M132.3,161.1c-0.3,1.3-0.5,2.7-0.7,4c-0.6,4.6-1.7,9.1-3.3,13.4c-0.2,0.5-0.4,1-0.6,1.5l-3.1-1.3
							c0,0,0,0,0.1,0c0.3-0.2,0.8-0.7,0.9-1c1.6-3.5,1-6.5,1.9-10.2c0.4-1.7,1.5-4.7,2.6-7.4L132.3,161.1z"/>
						<path class="st117" d="M199.3,189.5c-2.2,0-2.8-0.3-4.8,2.8c-1,1.6-2.3,4.3-2.8,6.1c-0.4,1.2-0.6,2.5-0.6,3.7
							c0,2.8,0.1,4.2,1.8,5.4c-0.3-0.1-0.5-0.2-0.8-0.3L139.5,185c-0.1-1.1-0.1-2.2,0-3.4c0.2-2.9,1.6-9.3,2.5-12.1
							c0.7-2.2,3.2-0.8,5.5-0.5l1.9,0.3l0-0.1l0.2-0.8l3.7,1.5l1.4,0.6l1.4,0.6l6,2.5l3.4,1.4l0.2,0.1l3,1.2l0,0l5.9,2.5l23.7,10
							C198.7,189.1,199,189.3,199.3,189.5z"/>
						<path class="st117" d="M200.5,192.8c-4.1-2-5.8,3.8-6.6,6.8c-0.5,2.2-0.4,5.1,1.3,6.7c0.5,0.1,0.8-0.3,1.2-0.7
							c1.4-1.8,2.1-4.1,2.6-6.3c1.9-9.9-4.3,0.7-3.4,4.2c0.2-0.1,0.5-0.5,0.7-0.7c0,0,0,0,0,0c0.6-1.6,1.2-3.2,1.8-4.8
							c-0.4,1.7-0.9,3.3-1.4,5c-0.3,0.5-1,1.6-1.6,0.8c-0.1-0.2-0.2-0.4-0.2-0.6c-0.1-2.2,0.5-4.4,1.4-6.4c0.5-1.4,2.5-3.9,3.8-1.8
							c0.6,1.5,0.2,3.1-0.1,4.6c-0.6,2.4-1.3,4.7-2.9,6.7c-1.6,2-3.1,1.1-3.9-1c-1.5-3.8,0.2-7.9,2.3-11.1
							C196.5,192.3,198.7,191.5,200.5,192.8L200.5,192.8z"/>
					</g>
					<g>
						<path class="st117" d="M118.6,136.4l8,3.4c-1.5,1-2.6,2.7-2.9,4.6c0.3,0.1,0.5,0.1,0.8,0.2h0c-0.2,0.4-0.4,0.9-0.6,1.4
							c0,0,0,0,0,0c-0.1,0.3-0.2,0.7-0.4,1.1c0,0,0-0.1,0-0.1v0c-0.4,1-0.7,2.1-1,3.1c-0.4,1.4-0.9,2.7-1.4,4.1l0,0l-10.1-4.2
							c-3.5-1.5-5.4-5.4-4.2-8.8c0.7-1.9,1.9-3.3,3.5-4.3c1.3-0.8,2.8-1.2,4.5-1.2C116,135.6,117.3,135.8,118.6,136.4z"/>
						<path class="st117" d="M211.7,175.7c-2.1-0.1-2.6-0.4-4.3,2c-0.5,0.7-1,1.6-1.4,2.6c-0.1,0.1-0.1,0.2-0.2,0.4v0
							c0,0.1-0.1,0.1-0.1,0.2v0c-0.3,0.6-0.5,1.2-0.6,1.6c-0.3,0.8-0.4,1.7-0.4,2.6c0,0.1,0,0.3,0,0.4c0.1,2.3,0.3,3.4,1.9,4.5
							c-0.2-0.1-0.5-0.2-0.8-0.3l-26.1-11l-4.1-1.7c0,0,0,0,0,0l-0.2-0.1l-11.1-4.7l-4-1.7c0,0,0,0,0,0l-6.8-2.9h0l-3.4-1.4
							c0-2.1-0.4-3.9-1-5.4c0,0,0,0,0,0c-0.8-1.2-1.8-2.3-2.9-3.4c-0.7-0.7-1.5-1.3-2.3-1.7c-1.1-0.6-2.3-1-3.6-1.2
							c-0.3,0-0.6,0-0.9,0c-1.6,0-2.8,0.3-3.9,1.2c-0.3,0.2-0.6,0.5-0.9,0.9c0,0,0,0,0,0c0,0,0,0,0,0c0,0,0,0,0,0
							c-0.6,0.8-1.1,1.6-1.4,2.5h0l-1.9-0.8c0.4-0.9,0.7-1.6,1-2.2c0.4-0.8,0.9-1,1.6-1l0,0c2.2-3.2,2.3-6.7,1.9-9.5
							c-0.1-0.9-0.3-1.6-0.5-2.3l1.5,0.6l6,2.6l5.6,2.4c0,0,0,0,0,0l20.7,8.7c0,0,0,0.1,0,0.1c-0.6,2.6-1,5.1-1.2,7.6
							c0,0.2-0.1,0.4-0.1,0.7l-0.1,0.9h0v0c0.4-0.5,1-1.1,1.5-1.8c0.2-0.2,0.4-0.5,0.5-0.8c0.1-0.1,0.2-0.3,0.2-0.4
							c0.4-1.8,0.8-3.7,1.2-5.5l0.6,0.3l6.4,2.7l4.5,1.9c0,0,0,0,0,0l12.7,5.3h0l11.3,4.8l4.4,1.9
							C211.1,175.4,211.4,175.5,211.7,175.7z"/>
						<path class="st117" d="M212.9,178.5c-1.4-0.7-3.2-0.5-4,0.9c-0.8,1.3-1.5,2.7-1.8,4.2c-0.3,1.5-0.2,3,0.4,4.3
							c0.3,0.6,0.8,1.4,1.2,1.3c0.4,0,1-0.6,1.4-1.2c0.8-1.3,1.3-2.7,1.6-4.2c0.2-1,0.5-2.2,0.1-3.2c0-0.1-0.1-0.2-0.2-0.2
							c-0.4-0.2-0.7,0.1-1,0.4c-1.2,1.6-2,3.7-1.9,5.7c0,0.2,0.1,0.3,0.1,0.3c0,0,0.1,0,0.3-0.1c0.1,0,0.4-0.5,0.3-0.4
							c0.5-1.3,0.9-2.6,1.5-3.8c-0.4,1.3-0.7,2.7-1.1,4c-0.3,0.4-0.5,0.9-1.1,0.8c-0.4-0.2-0.3-0.5-0.4-0.7
							c-0.2-1.8,0.3-3.7,1.1-5.3c0.5-1.1,1.8-2.6,3.1-1.5c1.6,2.1-0.5,8-2.3,9.6c-1.4,1.3-2.7,0.1-3.3-1.3c-1.5-3.1-0.1-6.6,1.8-9.1
							C209.5,177.6,211.5,177.5,212.9,178.5L212.9,178.5z"/>
					</g>
					<g>
						<path class="st117" d="M145.7,135.8c0,0,0.1,0,0.1,0c-0.1,0.3-0.3,0.6-0.4,0.9c0,0,0,0,0,0l-1.8,5.7c0,0,0,0,0,0l-0.5,1.7
							l-0.2,0.9l-0.7-0.3l-1-0.4c0,0,0,0-0.1,0h0c-0.1-0.1-0.3-0.1-0.4-0.2l-2.2-1c-0.1,0-0.2-0.1-0.2-0.1l-2.3-1.1l-0.2-0.1
							c0,0,0,0,0,0c0,0,0,0,0,0l-0.1,0l-1.5-0.6v0l-0.7-0.3l-0.9-0.3c0,0,0,0,0,0l-0.2-0.1c0.2,0.1,0.4,0.1,0.6,0.2
							c0.2,0.1,0.5,0.1,0.7,0.2c0.1,0,0.3,0.1,0.4,0.1c0,0,0,0,0,0c0.3,0.1,0.7,0.2,1,0.3l0,0c0.1,0,0.1,0,0.2,0.1l0,0l0,0
							c0,0,0.1,0,0.1,0c-0.1-0.2-0.2-0.4-0.4-0.6v0c-0.9-0.7-1.8-1.2-2.9-1.6c-1.4-0.5-2.6-0.6-3.7-0.4l-0.5-0.2
							c-3.3-1.4-5.2-4.8-4.2-7.6c0.1-0.4,0.3-0.7,0.5-1.1c1.2-2.1,3.6-3.3,6.3-3.3h0.1c1.3,0,2.6,0.3,3.9,0.8l11.3,4.8
							c-0.5,1.2-1,2.4-1.4,3.6C144.9,135.8,145.3,135.8,145.7,135.8z"/>
						<path class="st117" d="M220.3,164.7c-1.9-0.1-0.3-0.6-1.8,1.4c-0.8,1-1.7,2.8-2.1,4c-0.2,0.6-0.3,1.3-0.3,2c0,0.2,0,0.4,0,0.6
							c0.2,2,0.4,3,1.9,3.9c-0.2-0.1-0.5-0.2-0.7-0.3l-45.6-19.2l-0.6-0.2l-0.1,0c0.5-2.7,0.8-5.6,0.8-8.4c0-0.1,0-0.2,0-0.3
							c0-1.7,0-3.5-0.1-5.1l2.2,0.9l0.7,0.3l45.5,19.1C220.4,163.5,220,164.6,220.3,164.7z"/>
					</g>
				</g>
			</g>
		</g>
		<g>
			
				<rect x="155.1" y="137.9" transform="matrix(0.1581 -0.9874 0.9874 0.1581 -78.6853 335.5044)" class="st1" width="4.5" height="151.9"/>
			<circle class="st1" cx="231.7" cy="225.6" r="4.2"/>
			<polygon class="st1" points="62.2,209.9 64.1,200.3 65.3,190 88.9,194.7 96.6,198.5 96,203.5 95.9,204.4 95.8,204.8 95.1,210.1 
				86.6,211.5 			"/>
		</g>
		<g>
			<g>
				<g>
					<g>
						<g>
							<path class="st22" d="M134.5,26L134.5,26C134.5,26,134.5,26,134.5,26L134.5,26z"/>
							<polygon class="st22" points="131.5,28.7 131.5,28.7 131.5,28.7 							"/>
							<polygon class="st22" points="128,26.9 128,26.9 128,26.9 							"/>
							<polygon class="st22" points="129.8,30.1 130.3,30.1 130.3,30.1 							"/>
							<path class="st22" d="M131.1,26.8C131.1,26.8,131.1,26.8,131.1,26.8L131.1,26.8C131.1,26.8,131.1,26.8,131.1,26.8z"/>
							<path class="st22" d="M131.1,26.8C131.1,26.8,131.1,26.8,131.1,26.8C131.1,26.8,131.1,26.8,131.1,26.8
								C131.1,26.9,131.1,26.9,131.1,26.8L131.1,26.8L131.1,26.8z"/>
							<polygon class="st22" points="133.4,26.5 133.4,26.5 133.4,26.5 							"/>
							<path class="st22" d="M128.6,26.1C128.6,26.1,128.6,26.1,128.6,26.1C128.6,26.1,128.6,26.1,128.6,26.1L128.6,26.1z"/>
							<polygon class="st22" points="134.9,29.8 134.9,29.8 134.9,29.8 							"/>
							<path class="st22" d="M134.9,25.3c0-0.1,0-0.3,0-0.4l0,0C135,25.1,135,25.2,134.9,25.3z"/>
							<polygon class="st22" points="129.9,25.7 129.9,25.7 129.9,25.7 							"/>
							<path class="st22" d="M130.6,25.1C130.5,25.1,130.5,25.1,130.6,25.1C130.5,25,130.5,25.1,130.6,25.1
								C130.5,25.1,130.6,25.1,130.6,25.1z"/>
							<path class="st22" d="M130.6,25.3L130.6,25.3C130.6,25.3,130.6,25.3,130.6,25.3C130.6,25.3,130.6,25.3,130.6,25.3z"/>
							<path class="st22" d="M131.4,27.4C131.4,27.4,131.4,27.4,131.4,27.4L131.4,27.4L131.4,27.4z"/>
							<path class="st22" d="M133.4,26.6C133.4,26.6,133.4,26.5,133.4,26.6C133.4,26.5,133.4,26.5,133.4,26.6
								C133.4,26.5,133.4,26.5,133.4,26.6z"/>
							<path class="st22" d="M133.4,26.6L133.4,26.6C133.4,26.6,133.4,26.6,133.4,26.6C133.4,26.6,133.4,26.6,133.4,26.6z"/>
							<rect x="133.9" y="28.4" class="st22" width="0" height="0"/>
							<path class="st22" d="M128.6,23.4C128.6,23.4,128.6,23.4,128.6,23.4C128.6,23.4,128.6,23.4,128.6,23.4
								C128.6,23.4,128.5,23.4,128.6,23.4c-0.1,0-0.1,0-0.2,0C128.5,23.4,128.5,23.4,128.6,23.4C128.6,23.4,128.6,23.4,128.6,23.4
								C128.6,23.4,128.6,23.4,128.6,23.4z"/>
							<path class="st22" d="M128.6,23.4C128.6,23.4,128.6,23.4,128.6,23.4C128.6,23.4,128.6,23.4,128.6,23.4
								C128.6,23.4,128.5,23.4,128.6,23.4c-0.1,0-0.1,0-0.2,0C128.5,23.4,128.5,23.4,128.6,23.4C128.6,23.4,128.6,23.4,128.6,23.4
								C128.6,23.4,128.6,23.4,128.6,23.4z"/>
							<path class="st22" d="M133,30.5L133,30.5L133,30.5C133,30.5,133,30.5,133,30.5z"/>
							<path class="st22" d="M132.4,30.7L132.4,30.7C132.4,30.7,132.4,30.7,132.4,30.7C132.4,30.7,132.4,30.7,132.4,30.7z"/>
							<path class="st22" d="M133,30.5L133,30.5L133,30.5C133,30.5,133,30.5,133,30.5z"/>
							<path class="st22" d="M135.3,29.4c0,0.2-0.2,0.3-0.3,0.4c0,0,0,0,0,0c0,0,0-0.1,0-0.1c0,0,0-0.1,0.1-0.1l0,0
								c0,0,0.1-0.1,0.1-0.1h0C135.2,29.4,135.2,29.4,135.3,29.4L135.3,29.4z"/>
							<polygon class="st22" points="127.9,26.9 127.9,26.9 127.9,26.9 127.9,26.9 							"/>
							<path class="st22" d="M130.7,27C130.7,27,130.7,27,130.7,27C130.7,27,130.7,27,130.7,27C130.7,27,130.7,27,130.7,27
								C130.7,27,130.7,27,130.7,27C130.7,27,130.7,27,130.7,27C130.7,27,130.7,27,130.7,27z M130.7,27.1L130.7,27.1L130.7,27.1
								L130.7,27.1C130.7,27.1,130.7,27.1,130.7,27.1z M130.4,25.5L130.4,25.5L130.4,25.5L130.4,25.5L130.4,25.5z"/>
							<path class="st22" d="M130.6,25.3L130.6,25.3C130.6,25.3,130.6,25.3,130.6,25.3C130.6,25.3,130.6,25.3,130.6,25.3z"/>
							<path class="st22" d="M131.2,22.4C131.2,22.4,131.2,22.4,131.2,22.4L131.2,22.4C131.2,22.4,131.2,22.4,131.2,22.4L131.2,22.4
								z"/>
							<path class="st22" d="M131.3,22.4L131.3,22.4L131.3,22.4C131.3,22.4,131.3,22.4,131.3,22.4z"/>
							<path class="st22" d="M130.6,25.1C130.5,25.1,130.5,25.1,130.6,25.1C130.5,25,130.5,25.1,130.6,25.1
								C130.5,25.1,130.6,25.1,130.6,25.1z"/>
							<path class="st22" d="M128.9,28C128.9,28,128.9,28,128.9,28L128.9,28C128.9,28,128.9,28,128.9,28z"/>
							<polygon class="st22" points="129.9,25.7 129.9,25.7 129.9,25.7 							"/>
							<path class="st22" d="M130.4,25.5C130.4,25.5,130.4,25.5,130.4,25.5L130.4,25.5L130.4,25.5z"/>
							<path class="st22" d="M129.6,25.7L129.6,25.7C129.6,25.7,129.6,25.7,129.6,25.7C129.6,25.7,129.6,25.7,129.6,25.7z"/>
							<path class="st22" d="M129,22.7L129,22.7C128.9,22.7,128.9,22.7,129,22.7C128.9,22.7,128.9,22.7,129,22.7L129,22.7z"/>
							<path class="st22" d="M129.3,22.8L129.3,22.8c0,0-0.1,0-0.1,0H129.3z"/>
							<path class="st22" d="M129.4,22.8L129.4,22.8c0,0-0.1,0-0.1,0H129.4z"/>
							<path class="st22" d="M132.4,30.7L132.4,30.7C132.4,30.7,132.4,30.7,132.4,30.7C132.4,30.7,132.4,30.7,132.4,30.7z"/>
							<polygon class="st22" points="130.8,22.1 130.8,22.1 130.8,22.1 							"/>
							<path class="st22" d="M130.8,22.1C130.8,22.1,130.8,22.1,130.8,22.1L130.8,22.1C130.8,22.1,130.8,22.1,130.8,22.1z"/>
							<path class="st22" d="M130.8,22.1C130.8,22.1,130.8,22.1,130.8,22.1L130.8,22.1C130.8,22.1,130.8,22.1,130.8,22.1z"/>
							<polygon class="st22" points="130.9,22.1 130.9,22.1 130.9,22.1 							"/>
							<path class="st22" d="M131.1,22.4L131.1,22.4L131.1,22.4L131.1,22.4C131.1,22.4,131.1,22.4,131.1,22.4z"/>
							<path class="st22" d="M131.1,26.8C131.1,26.8,131.1,26.8,131.1,26.8L131.1,26.8C131.1,26.8,131.1,26.8,131.1,26.8z"/>
							<path class="st22" d="M131.1,26.8L131.1,26.8C131.1,26.8,131.1,26.8,131.1,26.8C131.1,26.8,131.1,26.8,131.1,26.8L131.1,26.8
								C131.1,26.8,131.1,26.8,131.1,26.8L131.1,26.8C131.1,26.8,131.1,26.8,131.1,26.8L131.1,26.8
								C131.1,26.8,131.1,26.8,131.1,26.8L131.1,26.8C131.1,26.8,131.1,26.8,131.1,26.8z"/>
							<path class="st22" d="M131.2,22.4C131.2,22.4,131.2,22.4,131.2,22.4L131.2,22.4C131.2,22.4,131.2,22.4,131.2,22.4L131.2,22.4
								z"/>
							<path class="st22" d="M131.3,22.4L131.3,22.4L131.3,22.4C131.3,22.4,131.3,22.4,131.3,22.4z"/>
							<path class="st22" d="M131.3,26.6C131.3,26.7,131.3,26.7,131.3,26.6L131.3,26.6C131.3,26.6,131.3,26.6,131.3,26.6z"/>
							<polygon class="st22" points="131.5,28.7 131.5,28.7 131.5,28.7 131.5,28.7 131.5,28.7 							"/>
							<path class="st22" d="M132.6,24L132.6,24C132.6,24,132.6,24,132.6,24L132.6,24C132.6,24,132.6,24,132.6,24L132.6,24
								C132.6,24,132.6,24,132.6,24L132.6,24C132.6,24,132.6,24,132.6,24z"/>
							<path class="st22" d="M133.4,26.6C133.4,26.6,133.4,26.5,133.4,26.6C133.4,26.5,133.4,26.5,133.4,26.6
								C133.4,26.5,133.4,26.5,133.4,26.6z"/>
							<path class="st22" d="M133.4,26.6L133.4,26.6C133.4,26.6,133.4,26.6,133.4,26.6C133.4,26.6,133.4,26.6,133.4,26.6z"/>
							<polygon class="st22" points="130.8,22.1 130.8,22.1 130.8,22.1 							"/>
							<path class="st22" d="M130.8,22.1C130.8,22.1,130.8,22.1,130.8,22.1L130.8,22.1C130.8,22.1,130.8,22.1,130.8,22.1z"/>
							<path class="st22" d="M130.8,22.1C130.8,22.1,130.8,22.1,130.8,22.1L130.8,22.1C130.8,22.1,130.8,22.1,130.8,22.1z"/>
							<polygon class="st22" points="130.9,22.1 130.9,22.1 130.9,22.1 							"/>
							<path class="st22" d="M131.1,22.4L131.1,22.4L131.1,22.4L131.1,22.4C131.1,22.4,131.1,22.4,131.1,22.4z"/>
							<path class="st22" d="M131.1,26.8L131.1,26.8C131.1,26.8,131.1,26.8,131.1,26.8C131.1,26.8,131.1,26.8,131.1,26.8L131.1,26.8
								C131.1,26.8,131.1,26.8,131.1,26.8z"/>
							<path class="st22" d="M131.3,26.6C131.3,26.7,131.3,26.7,131.3,26.6L131.3,26.6C131.3,26.6,131.3,26.6,131.3,26.6z"/>
							<path class="st22" d="M132.6,24L132.6,24C132.6,24,132.6,24,132.6,24L132.6,24C132.6,24,132.6,24,132.6,24L132.6,24
								C132.6,24,132.6,24,132.6,24L132.6,24C132.6,24,132.6,24,132.6,24z"/>
							<path class="st22" d="M130.6,27.5C130.5,27.5,130.5,27.5,130.6,27.5C130.5,27.5,130.5,27.5,130.6,27.5L130.6,27.5z"/>
							<path class="st22" d="M130.7,27.1L130.7,27.1C130.7,27.2,130.7,27.2,130.7,27.1L130.7,27.1L130.7,27.1
								C130.7,27.1,130.7,27.1,130.7,27.1z"/>
							<path class="st22" d="M130.7,27C130.7,27,130.7,27,130.7,27C130.7,27,130.7,27,130.7,27C130.7,27,130.7,27,130.7,27
								C130.7,27,130.7,27,130.7,27z"/>
							<path class="st22" d="M130.1,27.5L130.1,27.5C130.1,27.5,130.1,27.5,130.1,27.5L130.1,27.5z"/>
							<polygon class="st22" points="130,27.4 130,27.4 130,27.4 							"/>
						</g>
					</g>
					<path class="st16" d="M128,26.9L128,26.9L128,26.9L128,26.9z M128.5,23.4C128.5,23.4,128.5,23.4,128.5,23.4
						C128.5,23.4,128.5,23.4,128.5,23.4C128.5,23.4,128.6,23.4,128.5,23.4C128.6,23.4,128.5,23.4,128.5,23.4z M128.6,26.1
						C128.6,26.1,128.6,26.1,128.6,26.1C128.6,26.1,128.6,26.1,128.6,26.1L128.6,26.1z M128.6,23.4
						C128.6,23.4,128.6,23.4,128.6,23.4L128.6,23.4L128.6,23.4z M128.9,28L128.9,28C128.9,28,128.9,28,128.9,28
						C128.9,28,128.9,28,128.9,28z M129,22.7C128.9,22.7,128.9,22.7,129,22.7C128.9,22.7,128.9,22.7,129,22.7L129,22.7L129,22.7z
						 M129.6,25.7C129.6,25.7,129.6,25.7,129.6,25.7L129.6,25.7C129.6,25.7,129.6,25.7,129.6,25.7z M129.9,25.7L129.9,25.7
						L129.9,25.7L129.9,25.7z M130,27.4C130,27.4,130,27.4,130,27.4L130,27.4C130,27.4,130,27.4,130,27.4z M130.1,25.7
						C130.1,25.8,130.1,25.8,130.1,25.7L130.1,25.7L130.1,25.7z M130.4,25.5L130.4,25.5C130.4,25.5,130.4,25.5,130.4,25.5
						L130.4,25.5z M130.5,27.5C130.5,27.5,130.5,27.5,130.5,27.5C130.5,27.5,130.5,27.5,130.5,27.5L130.5,27.5z M130.5,25.1
						C130.5,25.1,130.5,25,130.5,25.1C130.5,25.1,130.5,25.1,130.5,25.1C130.6,25.1,130.5,25.1,130.5,25.1z M130.7,27.2L130.7,27.2
						L130.7,27.2L130.7,27.2z M130.7,27.2L130.7,27.2C130.7,27.2,130.7,27.2,130.7,27.2L130.7,27.2z M130.8,22.1L130.8,22.1
						L130.8,22.1L130.8,22.1z M130.8,22.1L130.8,22.1C130.8,22.1,130.8,22.1,130.8,22.1C130.8,22.1,130.8,22.1,130.8,22.1z
						 M131.1,22.4L131.1,22.4L131.1,22.4L131.1,22.4L131.1,22.4z M131.1,26.8C131.1,26.8,131.1,26.8,131.1,26.8
						C131.1,26.8,131.1,26.8,131.1,26.8L131.1,26.8z M131.1,26.8C131.1,26.8,131.1,26.8,131.1,26.8
						C131.1,26.8,131.1,26.8,131.1,26.8L131.1,26.8z M131.2,22.4C131.2,22.4,131.2,22.4,131.2,22.4L131.2,22.4
						C131.2,22.4,131.2,22.4,131.2,22.4L131.2,22.4z M131.3,22.4L131.3,22.4L131.3,22.4C131.3,22.4,131.3,22.4,131.3,22.4z
						 M131.3,26.6L131.3,26.6C131.3,26.7,131.3,26.7,131.3,26.6C131.3,26.6,131.3,26.6,131.3,26.6z M131.5,28.7L131.5,28.7
						L131.5,28.7L131.5,28.7L131.5,28.7L131.5,28.7z M132.4,30.7C132.4,30.7,132.4,30.7,132.4,30.7L132.4,30.7
						C132.4,30.7,132.4,30.7,132.4,30.7z M132.6,24C132.6,24,132.6,24,132.6,24L132.6,24C132.6,24,132.6,24,132.6,24z M133.4,26.6
						C133.4,26.6,133.4,26.6,133.4,26.6L133.4,26.6C133.4,26.6,133.4,26.6,133.4,26.6z M133.9,28.4L133.9,28.4L133.9,28.4
						L133.9,28.4L133.9,28.4z M134.7,29.9l0.2-0.1l0,0c0,0,0-0.1,0-0.1s0-0.1,0.1-0.1l0,0c0,0,0.1-0.1,0.1-0.1h0
						c0,0,0.1-0.1,0.1-0.1l0.1-0.2l0.3-0.3l0.1-0.1c0.3-0.3,0.5-0.7,0.6-1C135.5,28.4,134.8,29.2,134.7,29.9z M131.5,28.7
						L131.5,28.7 M131.5,28.7L131.5,28.7 M128.6,26.1L128.6,26.1L128.6,26.1"/>
					<path class="st22" d="M125.9,100.6l-1.9,0.2l0,0.2c0.6,0,1.2-0.1,1.9-0.2L125.9,100.6z"/>
					<path class="st22" d="M128.6,23.4C128.6,23.4,128.6,23.4,128.6,23.4C128.6,23.4,128.6,23.4,128.6,23.4
						C128.6,23.4,128.5,23.4,128.6,23.4c-0.1,0-0.1,0-0.2,0C128.5,23.4,128.5,23.4,128.6,23.4C128.6,23.4,128.6,23.4,128.6,23.4
						C128.6,23.4,128.6,23.4,128.6,23.4z"/>
					<path class="st22" d="M128.9,28C128.9,28,128.9,28,128.9,28L128.9,28C128.9,28,128.9,28,128.9,28z"/>
					<path class="st22" d="M129.6,25.7L129.6,25.7C129.6,25.7,129.6,25.7,129.6,25.7C129.6,25.7,129.6,25.7,129.6,25.7z"/>
					<path class="st22" d="M130,27.4L130,27.4C130,27.4,130,27.4,130,27.4C130,27.4,130,27.4,130,27.4z"/>
					<path class="st22" d="M130.1,27.5L130.1,27.5C130.1,27.5,130.1,27.5,130.1,27.5L130.1,27.5z"/>
					<path class="st22" d="M130.1,27.5L130.1,27.5L130.1,27.5C130.1,27.5,130.1,27.5,130.1,27.5z"/>
					<polygon class="st22" points="129.9,25.7 129.9,25.7 129.9,25.7 					"/>
					<path class="st22" d="M130.1,25.7L130.1,25.7C130.1,25.8,130.1,25.8,130.1,25.7L130.1,25.7z"/>
					<path class="st22" d="M130.6,27.5C130.5,27.5,130.5,27.5,130.6,27.5C130.5,27.5,130.5,27.5,130.6,27.5L130.6,27.5z"/>
					<polygon class="st22" points="130.7,27.2 130.7,27.2 130.7,27.2 					"/>
				</g>
				<path class="st22" d="M135.2,140.9c-0.9-0.7-1.8-1.2-2.9-1.6c-1.4-0.5-2.6-0.6-3.7-0.4c-0.7,0.1-1.4,0.4-2,0.8
					c-1.5,1-2.6,2.7-2.9,4.6c-3.8-0.8-7.4-2.1-11.2-4c-0.4-0.2-1.2-0.7-1.4-1c-0.2-0.3-0.5-0.9-0.6-1.2c0-0.5-0.1-0.9-0.1-1.3
					c0-3.1,1.3-5.6,1.6-8.9c0.2-2.9,1.2-16,0.8-18.9l0.1-2.2l9.6,1.3l0.1,4.9c-0.1,4.6,0.2,9.2,1,13.8c0.2,1.1,0.4,2.2,0.9,3.2
					c0,0,0,0.1,0.1,0.1c0.7,1.4,1.8,2.4,3,3.4c1.6,1.5,3.3,3,5,4.5C133.3,138.9,134.3,139.8,135.2,140.9z"/>
				<path class="st22" d="M136.4,143.9c0,0.6-0.2,1.2-0.7,1.6c-0.1,0.1-0.2,0.1-0.2,0.1c-0.1-0.9-0.3-1.6-0.5-2.3
					c-0.2-0.8-0.5-1.5-0.6-1.9c0-0.1,0-0.1-0.1-0.1c0,0,0,0,0-0.1v0l-0.7-0.3l-0.9-0.3c0,0,0,0,0,0c-0.3-0.1-0.5-0.1-0.8-0.1
					c-0.8-0.1-1.6-0.2-2.2-0.1c0.9-0.1,1.8,0,2.9,0.2c0.2,0.1,0.4,0.1,0.6,0.2c0.2,0.1,0.5,0.1,0.7,0.2c0.1,0,0.3,0.1,0.4,0.1
					c0,0,0,0,0,0c0.3,0.1,0.7,0.2,1,0.3l0,0c0.1,0,0.1,0,0.2,0.1l0,0l0,0c0,0,0.1,0,0.1,0c0,0,0,0,0,0c0,0,0.1,0.1,0.1,0.1
					c0,0,0,0,0,0c0,0,0,0,0,0.1c0.1,0.1,0.1,0.1,0.1,0.2c0.1,0.2,0.2,0.4,0.3,0.6C136.3,143,136.4,143.4,136.4,143.9z"/>
				<path class="st22" d="M149.4,126c-1.3,1.7-2.3,3.7-3.2,5.6l0,0c-0.1,0.2-0.2,0.4-0.2,0.6c-0.5,1.2-1,2.4-1.4,3.6
					c-3.7-0.2-7.3-0.8-11.2-1.9c-0.4-0.1-1.3-0.5-1.6-0.8c-0.3-0.2-0.7-0.8-0.8-1.1c-0.5-1.9-0.5-3.6-0.4-5.4c0.1-1.6,0.2-3.2,0.1-5
					c-0.2-2.1-1.1-10.1-1.9-15l9.4-2.1l0.1,0.6c0.7,4.6,1.8,9.1,3.4,13.4c0.3,0.9,0.7,1.8,1.2,2.6c0.1,0.2,0.2,0.4,0.4,0.6
					c0.9,1.2,2.3,2,3.6,2.8C147.7,124.9,148.5,125.5,149.4,126z"/>
			</g>
			<path class="st14" d="M138.1,96l2.3,8l-2.2,0.5l-9.4,2.1l-1.9,0.4l-0.9-6.3l0-0.2l-1.9,0.2l0,0.2l0.8,7.5l-2.5-0.3l-9.6-1.3
				l-3.2-0.4l1.9-10.1c0,0-3.6-7.4-2.5-16.1c0,0,0.1,0,0.1,0.1v0c1.6,0.9,17.4,9,29.6-2.3c0.1-0.1,0.2-0.1,0.2-0.2
				C139.3,80.9,143,88.7,138.1,96z"/>
		</g>
		<g>
			<g>
				<g>
					<g>
						<path class="st22" d="M147.5,95.7L147.5,95.7C147.5,95.7,147.6,95.7,147.5,95.7L147.5,95.7z"/>
						<path class="st22" d="M150.4,98.4L150.4,98.4C150.4,98.4,150.4,98.4,150.4,98.4L150.4,98.4z"/>
						<polygon class="st22" points="154,96.6 154,96.6 154,96.6 						"/>
						<polygon class="st22" points="152.1,99.8 151.6,99.8 151.6,99.8 						"/>
						<path class="st22" d="M150.9,96.5C150.9,96.5,150.9,96.5,150.9,96.5L150.9,96.5C150.9,96.5,150.9,96.5,150.9,96.5z"/>
						<path class="st22" d="M150.9,96.5C150.9,96.6,150.9,96.6,150.9,96.5L150.9,96.5L150.9,96.5z"/>
						<polygon class="st22" points="148.6,96.2 148.6,96.2 148.6,96.2 						"/>
						<polygon class="st22" points="154,90.7 154,90.7 154,90.7 						"/>
						<path class="st22" d="M153.4,95.8C153.4,95.9,153.4,95.9,153.4,95.8C153.4,95.9,153.4,95.9,153.4,95.8L153.4,95.8z"/>
						<polygon class="st22" points="147,99.5 147,99.5 147,99.5 						"/>
						<path class="st22" d="M147.1,95c0-0.1,0-0.3,0-0.4l0,0C147,94.7,147.1,94.9,147.1,95z"/>
						<path class="st22" d="M152.1,95.4L152.1,95.4C152.1,95.4,152.1,95.4,152.1,95.4L152.1,95.4z"/>
						<path class="st22" d="M151.5,94.8C151.5,94.8,151.5,94.8,151.5,94.8C151.5,94.8,151.5,94.8,151.5,94.8
							C151.5,94.8,151.5,94.8,151.5,94.8z"/>
						<path class="st22" d="M151.4,95.1L151.4,95.1C151.4,95,151.4,95,151.4,95.1C151.4,95,151.4,95,151.4,95.1z"/>
						<path class="st22" d="M150.6,97.1C150.5,97.1,150.5,97.1,150.6,97.1L150.6,97.1L150.6,97.1z"/>
						<path class="st22" d="M148.6,96.3C148.6,96.2,148.6,96.2,148.6,96.3C148.6,96.2,148.6,96.2,148.6,96.3
							C148.6,96.2,148.6,96.2,148.6,96.3z"/>
						
							<rect x="148" y="98.1" transform="matrix(0.9998 -2.019564e-02 2.019564e-02 0.9998 -1.9503 3.0091)" class="st22" width="0" height="0"/>
						<path class="st22" d="M153.4,93.2c0.1,0,0.1,0,0.2,0c0,0,0.1,0,0.1,0c0,0-0.1,0-0.1,0C153.5,93.1,153.4,93.2,153.4,93.2z"/>
						<path class="st22" d="M153.4,93.2c0.1,0,0.1,0,0.2,0c0,0,0.1,0,0.1,0c0,0-0.1,0-0.1,0C153.5,93.1,153.4,93.2,153.4,93.2z"/>
						<path class="st22" d="M148.9,100.1C148.9,100.1,148.9,100.2,148.9,100.1L148.9,100.1C148.9,100.2,148.9,100.1,148.9,100.1z"/>
						<path class="st22" d="M149.5,100.4L149.5,100.4C149.5,100.4,149.5,100.4,149.5,100.4C149.5,100.4,149.5,100.4,149.5,100.4z"/>
						<path class="st22" d="M148.9,100.1C148.9,100.1,148.9,100.2,148.9,100.1L148.9,100.1C148.9,100.2,148.9,100.1,148.9,100.1z"/>
						<path class="st22" d="M146.7,99c0,0.2,0.2,0.3,0.3,0.4c0,0,0,0,0,0C147,99.3,146.9,99.1,146.7,99L146.7,99z"/>
						<polygon class="st22" points="154.1,96.6 154.1,96.6 154.1,96.6 154.1,96.6 						"/>
						<path class="st22" d="M151.9,97.2L151.9,97.2C151.9,97.2,151.9,97.2,151.9,97.2L151.9,97.2C151.9,97.2,151.9,97.2,151.9,97.2z
							 M151.3,96.7C151.3,96.7,151.3,96.7,151.3,96.7C151.3,96.7,151.3,96.7,151.3,96.7C151.3,96.7,151.3,96.7,151.3,96.7
							C151.3,96.7,151.3,96.7,151.3,96.7z M151.3,96.9L151.3,96.9L151.3,96.9L151.3,96.9L151.3,96.9z M151.6,95.2L151.6,95.2
							C151.6,95.2,151.6,95.2,151.6,95.2L151.6,95.2L151.6,95.2z M151.9,97.2L151.9,97.2C151.9,97.2,151.9,97.2,151.9,97.2
							L151.9,97.2C151.9,97.2,151.9,97.2,151.9,97.2z M152.4,95.4L152.4,95.4C152.4,95.4,152.4,95.4,152.4,95.4
							C152.4,95.4,152.4,95.4,152.4,95.4z M151.9,97.2L151.9,97.2C151.9,97.2,151.9,97.2,151.9,97.2L151.9,97.2
							C151.9,97.2,151.9,97.2,151.9,97.2z"/>
						<path class="st22" d="M151.4,95.1L151.4,95.1C151.4,95,151.4,95,151.4,95.1C151.4,95,151.4,95,151.4,95.1z"/>
						<path class="st22" d="M150.8,92.1C150.8,92.1,150.8,92.1,150.8,92.1c0.1,0,0.1,0,0.1,0C150.9,92.1,150.9,92.1,150.8,92.1
							C150.8,92.1,150.8,92.1,150.8,92.1z"/>
						<path class="st22" d="M151.5,94.8C151.5,94.8,151.5,94.8,151.5,94.8C151.5,94.8,151.5,94.8,151.5,94.8
							C151.5,94.8,151.5,94.8,151.5,94.8z"/>
						<path class="st22" d="M153,97.8C153.1,97.8,153.1,97.8,153,97.8L153,97.8C153.1,97.8,153.1,97.8,153,97.8z"/>
						<path class="st22" d="M152.1,95.4L152.1,95.4C152.1,95.4,152.1,95.4,152.1,95.4L152.1,95.4z"/>
						<path class="st22" d="M151.6,95.2C151.6,95.2,151.6,95.2,151.6,95.2L151.6,95.2L151.6,95.2z"/>
						<path class="st22" d="M152.4,95.4L152.4,95.4C152.4,95.4,152.4,95.4,152.4,95.4C152.4,95.4,152.4,95.4,152.4,95.4z"/>
						<path class="st22" d="M153.1,92.5L153.1,92.5C153.1,92.5,153.1,92.5,153.1,92.5C153.1,92.4,153.1,92.4,153.1,92.5L153.1,92.5z
							"/>
						<path class="st22" d="M152.7,92.5L152.7,92.5c0.1,0,0.2,0,0.2,0C152.8,92.5,152.7,92.5,152.7,92.5z"/>
						<path class="st22" d="M149.5,100.4L149.5,100.4C149.5,100.4,149.5,100.4,149.5,100.4C149.5,100.4,149.5,100.4,149.5,100.4z"/>
						<path class="st22" d="M151.2,91.8L151.2,91.8C151.2,91.8,151.3,91.8,151.2,91.8C151.3,91.8,151.3,91.8,151.2,91.8
							C151.2,91.8,151.2,91.8,151.2,91.8L151.2,91.8z"/>
						<path class="st22" d="M151,92.1L151,92.1L151,92.1C151,92.1,151,92.1,151,92.1z"/>
						<path class="st22" d="M150.9,96.5C150.9,96.5,150.9,96.5,150.9,96.5L150.9,96.5C150.9,96.5,150.9,96.5,150.9,96.5z"/>
						<path class="st22" d="M150.8,96.5C150.8,96.5,150.8,96.5,150.8,96.5C150.8,96.5,150.9,96.5,150.8,96.5L150.8,96.5
							C150.9,96.5,150.9,96.5,150.8,96.5L150.8,96.5C150.8,96.5,150.8,96.5,150.8,96.5z"/>
						<path class="st22" d="M150.8,92.1C150.8,92.1,150.8,92.1,150.8,92.1c0.1,0,0.1,0,0.1,0C150.9,92.1,150.9,92.1,150.8,92.1
							C150.8,92.1,150.8,92.1,150.8,92.1z"/>
						<path class="st22" d="M150.7,96.3C150.7,96.4,150.7,96.4,150.7,96.3L150.7,96.3L150.7,96.3z"/>
						<path class="st22" d="M150.4,98.4L150.4,98.4L150.4,98.4L150.4,98.4C150.4,98.4,150.4,98.4,150.4,98.4z"/>
						<path class="st22" d="M149.4,93.8C149.4,93.7,149.4,93.7,149.4,93.8c0-0.1,0-0.1,0-0.1l0,0c0,0,0,0,0,0.1L149.4,93.8
							C149.4,93.7,149.4,93.7,149.4,93.8z"/>
						<path class="st22" d="M148.6,96.3C148.6,96.2,148.6,96.2,148.6,96.3C148.6,96.2,148.6,96.2,148.6,96.3
							C148.6,96.2,148.6,96.2,148.6,96.3z"/>
						<path class="st22" d="M147,94.6L147,94.6c0,0.2,0,0.3,0,0.4C147.1,94.8,147,94.7,147,94.6z"/>
						<path class="st22" d="M151.2,91.8L151.2,91.8C151.2,91.8,151.3,91.8,151.2,91.8C151.3,91.8,151.3,91.8,151.2,91.8
							C151.2,91.8,151.2,91.8,151.2,91.8L151.2,91.8z"/>
						<path class="st22" d="M151,92.1L151,92.1L151,92.1C151,92.1,151,92.1,151,92.1z"/>
						<path class="st22" d="M150.8,96.5C150.8,96.5,150.8,96.5,150.8,96.5C150.8,96.5,150.9,96.5,150.8,96.5
							C150.9,96.5,150.8,96.5,150.8,96.5C150.8,96.5,150.8,96.5,150.8,96.5z"/>
						<path class="st22" d="M150.7,96.3C150.7,96.4,150.7,96.4,150.7,96.3L150.7,96.3L150.7,96.3z"/>
						<path class="st22" d="M149.4,93.8C149.4,93.7,149.4,93.7,149.4,93.8c0-0.1,0-0.1,0-0.1l0,0c0,0,0,0,0,0.1L149.4,93.8
							C149.4,93.7,149.4,93.7,149.4,93.8z"/>
						<path class="st22" d="M151.4,97.2C151.4,97.2,151.4,97.2,151.4,97.2C151.4,97.2,151.4,97.2,151.4,97.2L151.4,97.2z"/>
						<path class="st22" d="M151.3,96.8L151.3,96.8C151.3,96.9,151.3,96.9,151.3,96.8L151.3,96.8C151.3,96.9,151.3,96.8,151.3,96.8z
							"/>
						<path class="st22" d="M151.3,96.7C151.3,96.7,151.3,96.7,151.3,96.7C151.3,96.7,151.3,96.7,151.3,96.7
							C151.3,96.7,151.3,96.7,151.3,96.7C151.3,96.7,151.3,96.7,151.3,96.7z"/>
						<path class="st22" d="M151.9,97.2L151.9,97.2C151.9,97.2,151.9,97.2,151.9,97.2L151.9,97.2z"/>
						<polygon class="st22" points="151.9,97.2 151.9,97.2 151.9,97.2 						"/>
					</g>
				</g>
				<path class="st22" d="M153.4,95.8C153.4,95.9,153.4,95.9,153.4,95.8C153.4,95.9,153.4,95.9,153.4,95.8L153.4,95.8z M147.5,95.7
					L147.5,95.7L147.5,95.7L147.5,95.7z M147.5,95.7L147.5,95.7C147.5,95.7,147.5,95.7,147.5,95.7L147.5,95.7L147.5,95.7z
					 M147.1,90.1C147.1,90.1,147.1,90.1,147.1,90.1C147.2,90.1,147.2,90.1,147.1,90.1L147.1,90.1z"/>
				<path class="st22" d="M152.3,148.9l-7.8-3.3l-1.6-0.7l0,0.1l-0.4,1.3l-2,6.9l-0.3,1.1c1.3,0.1,2.5,0.6,3.6,1.2
					c0.8,0.5,1.6,1.1,2.3,1.7c1.1,1.1,2.1,2.2,2.9,3.4c0,0,0,0,0,0c0.7,1.5,1,3.3,1,5.4c0,0.6,0,1.2-0.1,1.8l-0.1,0.4l-0.2,0.8
					c0.2,0.1,0.5,0.2,0.7,0.2l0,0l0,0c1.6,0.5,3.2,0.9,4.6,1.1c1.5,0.2,2.8,0.2,4,0.1h0c0.4,0,0.9-0.1,1.3-0.2c0,0,0,0,0,0
					c0,0,0,0,0.1,0h0c3.1-0.6,5.5-2.3,7.2-4.6c0-0.3,0-0.5,0.1-0.7c0.2-2.5,0.7-5,1.2-7.6c0,0,0-0.1,0-0.1c0.1-0.5,0.2-0.9,0.3-1.4
					c0,0,0-0.1,0-0.1L152.3,148.9z M145.7,135.8l-0.2,0.6l-0.1,0.3c0.2-0.3,0.3-0.6,0.4-0.9C145.8,135.8,145.8,135.8,145.7,135.8z
					 M150.1,126.4c0,0,0.1,0,0.1,0.1c0.2-0.4,0.4-0.9,0.6-1.3C150.5,125.6,150.3,126,150.1,126.4z M166.5,93.2
					c-4.7-3.2-10.5-2.6-12.6-1.2l-0.3,0.2c-0.6,0.3-0.7,0.3-1.4,0.4c-0.4,0.1-0.7-0.6-0.9-0.7c0,0,0,0,0,0l0,0c0,0,0,0,0,0h0v0
					c-0.2-0.1-0.3-0.2-0.3-0.2c-0.3-0.3,0-0.3,0.1-0.4c0-0.1,0-0.1-0.1-0.1c-0.1-0.1-0.3-0.1-0.5-0.2c-0.4-0.1-0.5-0.2-0.4-0.5
					c0-0.1,0.2-0.2,0.1-0.3c-0.2-0.2-0.1-0.4-0.1-0.6c0.1-0.4,0.2-0.9,0.2-1.3c-0.3-0.2-0.5,0-0.7,0c-0.9,0.1-1.3,0.6-1.8,1.1
					c-0.2,0.3-0.4,0.6-0.7,0.9c0,0,0,0,0.1,0c0,0-0.1,0-0.1,0v0c-0.1,0.5-0.2,0.9-0.7,1.3c0,0,0,0,0,0l0,0c0,0,0,0,0,0c0,0,0,0,0,0
					c0,0.2-0.1,0.3-0.3,0.4c-0.4,0.9-0.8,2-0.9,3c-0.2,1.2,0.1,2.5,0.9,3.5l0.1,0.2l0.3,0.3l0.1,0.2c0.1,0,0.1,0,0.1,0.1
					c0,0,0.1,0,0.1,0.1h0c0,0,0.1,0.1,0.1,0.1v0c0,0,0,0,0,0c0,0,0,0.1,0,0.1c0,0,0,0,0,0v0l0,0v0l1.4,0.7c0,0,0,0,0,0h0
					c0,0,0,0,0.1,0l0.4,0v0c0,0,0,0,0,0v0h0v0c0.1,0.1,0.3,0.2,0.4,0.3c0,0,0.1,0,0.1,0l0.8,0.5c-1.6,2.1-4.3,6.4-2.7,7.5
					c2.2,1.4,2.5,1.2,2.5,1.2s-0.6,1.3-0.6,3.1l0.1-0.1c0.4,0.8,3.1,0.5,4.9,0.1l0.3,1.3c-0.5,0.1-2,0.5-3.5,0.4
					c-0.6,0-1.2-0.1-1.6-0.2c0.5,2,1.9,4.3,5.6,6.2c0.1,0,0.1,0.1,0.2,0.1c-0.8,0.4-1.4,0.9-2.1,1.4l16.8,7.1c-0.8-5-1.2-8.2-1.3-11
					c-0.1-3.2,0.4-6,1.5-10.6c0.1-0.3,0.1-0.6,0.2-0.9C173.2,96.7,166.5,93.2,166.5,93.2z M147.1,94.3
					C147.1,94.4,147.1,94.4,147.1,94.3L147.1,94.3C147.1,94.3,147.1,94.3,147.1,94.3L147.1,94.3z M147.6,95.7L147.6,95.7L147.6,95.7
					C147.5,95.7,147.5,95.7,147.6,95.7L147.6,95.7L147.6,95.7L147.6,95.7z M147.7,96.9v-0.1h0C147.7,96.9,147.7,96.9,147.7,96.9z
					 M147.7,96.9L147.7,96.9C147.7,96.8,147.7,96.8,147.7,96.9L147.7,96.9z M148.6,96.2C148.6,96.2,148.6,96.2,148.6,96.2
					C148.6,96.2,148.6,96.2,148.6,96.2L148.6,96.2C148.6,96.2,148.6,96.2,148.6,96.2L148.6,96.2C148.6,96.2,148.6,96.2,148.6,96.2
					C148.6,96.2,148.6,96.2,148.6,96.2C148.6,96.2,148.6,96.2,148.6,96.2C148.6,96.2,148.6,96.2,148.6,96.2z M149.4,93.7
					C149.4,93.6,149.4,93.6,149.4,93.7L149.4,93.7C149.4,93.7,149.4,93.7,149.4,93.7L149.4,93.7C149.4,93.7,149.4,93.7,149.4,93.7
					C149.4,93.7,149.4,93.7,149.4,93.7L149.4,93.7z M149.4,99.9L149.4,99.9C149.5,100,149.5,100,149.4,99.9L149.4,99.9z M149.5,94.1
					L149.5,94.1L149.5,94.1C149.5,94.1,149.6,94.1,149.5,94.1L149.5,94.1z M150.5,98.4L150.5,98.4L150.5,98.4L150.5,98.4L150.5,98.4
					z M150.7,96.4L150.7,96.4L150.7,96.4L150.7,96.4L150.7,96.4z M150.9,92.1L150.9,92.1C150.8,92.1,150.8,92.1,150.9,92.1
					C150.8,92.1,150.8,92.1,150.9,92.1L150.9,92.1z M150.9,96.5L150.9,96.5L150.9,96.5C150.9,96.5,150.9,96.5,150.9,96.5
					C150.9,96.5,150.8,96.5,150.9,96.5C150.8,96.5,150.8,96.5,150.9,96.5L150.9,96.5L150.9,96.5C150.9,96.5,150.9,96.5,150.9,96.5
					C150.9,96.5,150.9,96.5,150.9,96.5C150.9,96.5,150.9,96.5,150.9,96.5L150.9,96.5L150.9,96.5z M151,92.1L151,92.1L151,92.1
					C151,92.1,151,92.1,151,92.1L151,92.1z M151.3,96.7C151.3,96.7,151.3,96.7,151.3,96.7C151.3,96.7,151.3,96.7,151.3,96.7
					C151.3,96.7,151.3,96.7,151.3,96.7C151.3,96.7,151.3,96.7,151.3,96.7z M151.3,96.9L151.3,96.9L151.3,96.9L151.3,96.9z
					 M151.3,96.9C151.3,96.9,151.3,96.9,151.3,96.9L151.3,96.9L151.3,96.9z M151.5,94.8L151.5,94.8
					C151.5,94.8,151.5,94.8,151.5,94.8C151.5,94.8,151.5,94.8,151.5,94.8z M151.6,95.9C151.6,95.9,151.6,95.9,151.6,95.9
					C151.6,95.9,151.6,95.9,151.6,95.9L151.6,95.9z M151.6,95.2L151.6,95.2L151.6,95.2L151.6,95.2L151.6,95.2z M151.9,97.2
					C151.9,97.2,151.9,97.2,151.9,97.2L151.9,97.2C151.9,97.2,151.9,97.2,151.9,97.2L151.9,97.2L151.9,97.2L151.9,97.2L151.9,97.2
					C151.9,97.2,151.9,97.2,151.9,97.2L151.9,97.2z M152.1,95.4L152.1,95.4L152.1,95.4L152.1,95.4C152.1,95.4,152.1,95.4,152.1,95.4
					z M152.4,95.4L152.4,95.4C152.4,95.4,152.4,95.4,152.4,95.4C152.4,95.4,152.4,95.4,152.4,95.4z M152.8,92.5L152.8,92.5
					C152.8,92.5,152.8,92.5,152.8,92.5l-0.2,0v0C152.7,92.5,152.8,92.5,152.8,92.5C152.9,92.5,152.9,92.5,152.8,92.5z M153.4,95.9
					C153.4,95.9,153.4,95.9,153.4,95.9L153.4,95.9C153.4,95.9,153.4,95.9,153.4,95.9z M153.5,93.1C153.5,93.1,153.5,93.1,153.5,93.1
					C153.5,93.1,153.5,93.1,153.5,93.1c-0.1,0-0.1,0-0.2,0.1l0,0C153.4,93.2,153.4,93.2,153.5,93.1
					C153.5,93.1,153.5,93.1,153.5,93.1L153.5,93.1L153.5,93.1L153.5,93.1z M155.5,105.7c-0.9,0-1.5-0.7-1.5-1.6
					c0-0.8,0.7-1.5,1.6-1.5c0.8,0,1.5,0.7,1.5,1.6C157.1,105.1,156.4,105.8,155.5,105.7z M144.5,145.6l-1.6-0.7l0,0.1
					c2.1,1.1,4.2,2.5,5.2,3.7c0,0,0,0,0,0l20.7,8.7c0.1-0.5,0.2-0.9,0.3-1.4c0,0,0-0.1,0-0.1l-16.8-7.1L144.5,145.6z"/>
				<path class="st22" d="M171.9,148.2c0,0.1,0,0.2,0,0.3c0,0-0.1,0-0.1,0c-1.4,2.5-2,4.9-2.7,7.6l-16.8-7.1l-7.8-3.3l-1.6-0.7
					l0.3-0.9l0.5-1.7l1.8-5.7c0,0,0,0,0,0c0.2-0.3,0.3-0.6,0.5-0.9c0,0-0.1,0-0.1,0l0.5-1.4c0.3-0.6,0.5-1.1,0.8-1.7
					c0.1-0.2,0.2-0.4,0.3-0.6c0.9-2,1.8-3.9,2.8-5.7c0,0,0.1,0,0.1,0.1c0.2-0.4,0.4-0.9,0.6-1.3c0,0,0,0,0,0c0,0,0,0,0,0
					c0.8-1.2,1.6-2.3,2.6-3.2l16.8,7.1c0.1,0.7,0.2,1.4,0.3,2.2c0.3,2.2,0.9,6.3,1.2,11v0c0,0.3,0,0.6,0,0.9
					C171.9,144.7,171.9,146.5,171.9,148.2z"/>
				<path class="st22" d="M153.4,93.2c0.1,0,0.1,0,0.2,0c0,0,0.1,0,0.1,0c0,0-0.1,0-0.1,0C153.5,93.1,153.4,93.2,153.4,93.2z"/>
				<path class="st22" d="M153,97.8C153.1,97.8,153.1,97.8,153,97.8L153,97.8C153.1,97.8,153.1,97.8,153,97.8z"/>
				<path class="st22" d="M152.4,95.4L152.4,95.4C152.4,95.4,152.4,95.4,152.4,95.4C152.4,95.4,152.4,95.4,152.4,95.4z"/>
				<path class="st22" d="M151.9,97.2L151.9,97.2C151.9,97.2,151.9,97.2,151.9,97.2C151.9,97.2,151.9,97.2,151.9,97.2z"/>
				<path class="st22" d="M151.9,97.2L151.9,97.2C151.9,97.2,151.9,97.2,151.9,97.2L151.9,97.2z"/>
				<path class="st22" d="M151.9,97.2L151.9,97.2L151.9,97.2C151.9,97.2,151.9,97.2,151.9,97.2z"/>
				<path class="st22" d="M152.1,95.4L152.1,95.4C152.1,95.4,152.1,95.4,152.1,95.4L152.1,95.4z"/>
				<path class="st22" d="M151.9,95.5L151.9,95.5C151.9,95.5,151.9,95.5,151.9,95.5L151.9,95.5z"/>
				<path class="st22" d="M151.6,95.9L151.6,95.9C151.6,95.9,151.7,95.9,151.6,95.9C151.7,95.9,151.6,95.9,151.6,95.9z"/>
				<path class="st22" d="M151.4,97.2C151.4,97.2,151.4,97.2,151.4,97.2C151.4,97.2,151.4,97.2,151.4,97.2L151.4,97.2z"/>
				<path class="st22" d="M151.3,96.9C151.3,96.9,151.3,96.9,151.3,96.9C151.3,96.9,151.3,96.9,151.3,96.9L151.3,96.9z"/>
				<path class="st22" d="M151.3,96.8L151.3,96.8C151.3,96.9,151.3,96.9,151.3,96.8L151.3,96.8C151.3,96.9,151.3,96.8,151.3,96.8z"
					/>
				<path class="st22" d="M151.3,96.7C151.3,96.7,151.3,96.7,151.3,96.7C151.3,96.7,151.3,96.7,151.3,96.7
					C151.3,96.7,151.3,96.7,151.3,96.7C151.3,96.7,151.3,96.7,151.3,96.7z"/>
			</g>
			<path class="st22" d="M149.9,166.2c0,0.6,0,1.2-0.1,1.8l-0.1,0.4l-0.2,0.8l0,0.1l-1.9-0.3c-2.3-0.3-4.8-1.7-5.5,0.5
				c-0.9,2.8-2.3,9.2-2.5,12.1c-0.1,1.2-0.1,2.3,0,3.4c0.1,2.3,0.4,4.4-0.2,7c-0.1,0.4-0.5,0.9-0.8,1.1c-0.3,0.3-1.2,0.7-1.6,0.8
				c-7.8,2.2-14.4,2.5-22.5,1.5c-0.5-0.1-1-0.1-1.4-0.5c-0.8-0.7-0.5-2,0.1-2.9c1.1-1.7,2.9-2.8,4.6-3.9c1.9-1.2,3.8-2.4,5.7-3.6
				c1.3-0.8,2.6-1.6,3.5-2.9c0.4-0.5,0.7-1.1,0.9-1.6c0.2-0.5,0.4-1,0.6-1.5c1.5-4.4,2.7-8.9,3.3-13.4c0.2-1.3,0.4-2.7,0.7-4
				c0.1-0.7,0.3-1.4,0.6-2.1h0c0.3-0.9,0.8-1.8,1.4-2.5c0,0,0,0,0,0c0,0,0,0,0,0c0,0,0,0,0,0c0.3-0.3,0.6-0.6,0.9-0.9
				c1.1-0.8,2.4-1.1,3.9-1.2c0.3,0,0.6,0,0.9,0c1.3,0.1,2.5,0.6,3.6,1.2c0.8,0.5,1.6,1.1,2.3,1.7c1.1,1.1,2.1,2.2,2.9,3.4
				c0,0,0,0,0,0C149.6,162.3,150,164.1,149.9,166.2z"/>
			<path class="st22" d="M134.4,156.5C134.4,156.5,134.4,156.5,134.4,156.5C134.4,156.5,134.4,156.5,134.4,156.5
				C134.4,156.5,134.4,156.5,134.4,156.5z"/>
			<path class="st22" d="M154.5,170.2l-1.1-0.2l-3.1-0.5l0,0l-0.8-0.1l0-0.1l0.2-0.8l0.1-0.4c0.1-0.6,0.1-1.2,0.1-1.8
				c0-2.1-0.4-3.9-1-5.4c0.5,0.7,1,1.5,1.5,2.3c1,1.7,2,3,3,4.6c0.1,0.2,0.2,0.3,0.3,0.5L154.5,170.2z"/>
			<path class="st22" d="M133.6,155.1L133.6,155.1c-0.6,0-1.2,0.2-1.6,1c-0.3,0.6-0.6,1.3-1,2.2c-0.3,0.6-0.6,1.3-0.8,2
				c-1.1,2.6-2.1,5.6-2.6,7.4c-0.9,3.7-0.3,6.7-1.9,10.2c-0.1,0.3-0.6,0.8-0.9,1c0,0,0,0-0.1,0c-0.4,0.2-1.2,0.4-1.6,0.5
				c-8,0.9-14.7,0.2-22.4-2.1c-0.5-0.1-1-0.3-1.3-0.7c-0.7-0.8-0.2-2.1,0.6-2.9c1.4-1.5,3.3-2.3,5.1-3.1c2.1-0.9,4.1-1.7,6.2-2.6
				c1.4-0.6,2.8-1.2,3.9-2.3c0.8-0.8,1.4-1.8,2-2.8c1.2-2.2,2.3-4.4,3.2-6.7c0.3-0.7,0.5-1.3,0.8-2c0.5-1.3,1-2.7,1.4-4.1
				c0.3-1,0.6-2,1-3.1v0c0,0,0,0.1,0,0.1c0.1-0.4,0.2-0.7,0.4-1.1c0,0,0,0,0,0c0.2-0.5,0.4-1,0.6-1.4c0.1-0.1,0.1-0.3,0.2-0.4
				c0.3-0.7,0.7-1.3,1.2-1.9c0.1-0.1,0.2-0.3,0.4-0.4c0.1-0.1,0.3-0.3,0.4-0.4c0.1-0.1,0.2-0.2,0.3-0.2c0.1-0.1,0.2-0.1,0.3-0.2
				c0.1-0.1,0.2-0.1,0.3-0.2c0.2-0.1,0.4-0.2,0.6-0.3c0.1,0,0.2-0.1,0.3-0.1c0.2-0.1,0.5-0.1,0.8-0.2c0.1,0,0.2,0,0.3,0
				c0.7,0,1.4,0,2.2,0.1c0.3,0,0.6,0.1,0.8,0.1c0,0,0,0,0,0l0.9,0.3l0.7,0.3v0c0,0,0,0,0,0.1c0,0,0,0.1,0.1,0.1
				c0.2,0.4,0.4,1.1,0.6,1.9c0.2,0.7,0.4,1.4,0.5,2.3C135.8,148.3,135.7,151.9,133.6,155.1z"/>
			<path class="st22" d="M124.4,144.5c0.1-0.1,0.1-0.3,0.2-0.4C124.6,144.3,124.5,144.4,124.4,144.5c-0.2,0.4-0.4,0.9-0.6,1.4
				c0,0,0,0,0,0c-0.1,0.3-0.2,0.7-0.4,1.1c0,0,0-0.1,0-0.1v0c0,0,0,0,0,0C123.7,146.1,124,145.3,124.4,144.5z"/>
			<path class="st22" d="M127.2,141c0.6-0.4,1.3-0.6,1.9-0.7c-0.3,0-0.5,0.1-0.8,0.2c-0.1,0-0.2,0.1-0.3,0.1
				c-0.2,0.1-0.4,0.2-0.6,0.3C127.4,140.9,127.3,141,127.2,141z"/>
			<path class="st22" d="M144.1,154.9c-0.2,0.2-0.3,0.5-0.4,0.7c-1.1-0.6-2.3-1-3.6-1.2c-0.3,0-0.6,0-0.9,0c-1.6,0-2.8,0.3-3.9,1.2
				c-0.1,0-0.1,0-0.2-0.1c-0.6-0.2-1.1-0.4-1.6-0.4l0,0c2.2-3.2,2.3-6.7,1.9-9.5c-0.1-0.9-0.3-1.6-0.5-2.3c-0.2-0.8-0.5-1.5-0.6-1.9
				c0-0.1,0-0.1-0.1-0.1c0,0,0,0,0-0.1v0l-0.7-0.3l-0.9-0.3c0.1,0,0.3,0.1,0.4,0.1c0.2,0.1,0.5,0.1,0.7,0.2c0.2,0,0.3,0.1,0.4,0.2
				c0,0,0,0,0.1,0c0.2,0.1,0.3,0.1,0.5,0.2c0.3,0.1,0.6,0.3,1,0.4c0,0,0.1,0,0.1,0.1c0,0,0,0,0,0c0,0,0,0,0,0
				c0.7,0.3,1.4,0.7,2.5,1.1c0.1,0,0.1,0.1,0.2,0.1c0.6,0.2,1.3,0.6,2.2,1c0.1,0.1,0.3,0.1,0.4,0.2h0c0,0,0,0,0.1,0
				c0.5,0.3,1.1,0.6,1.6,0.8c2.1,1.1,4.2,2.5,5.2,3.7c0,0,0,0,0,0c0.2,0.2,0.3,0.5,0.4,0.7C149.1,151,145.5,153.1,144.1,154.9z"/>
		</g>
		<path class="st22" d="M136.5,27.7c-0.2,0.4-0.4,0.7-0.6,1l-0.1,0.1l-0.3,0.3l-0.1,0.2h0c0,0.2-0.2,0.3-0.3,0.4c0,0,0,0,0,0
			c0,0,0-0.1,0-0.1c0,0,0,0.1,0,0.1l0,0l-0.2,0.1C134.8,29.2,135.5,28.4,136.5,27.7z"/>
		<path class="st1" d="M134.2,141C134.2,141,134.2,141.1,134.2,141L134.2,141C134.1,141.1,134.1,141,134.2,141
			C134.1,141,134.1,141,134.2,141C134.1,141,134.1,141,134.2,141C134.1,141,134.1,141,134.2,141z"/>
		<path class="st1" d="M171.8,148.5c-1.4,2.5-2,4.9-2.7,7.6c0,0,0,0.1,0,0.1c-0.1,0.5-0.2,0.9-0.3,1.4c0,0,0,0.1,0,0.1
			c-0.6,2.6-1,5.1-1.2,7.6c0,0.2-0.1,0.4-0.1,0.7c0,0.3-0.1,0.7-0.1,0.9v0c-2.8,3.1-5.8,3.6-7.1,3.7h0c0,0,0,0-0.1,0c0,0,0,0,0,0
			c-0.3,0-0.4,0-0.4,0l-0.9,0.1h0l-2.6,0.5l-7.7,1.4l0.9-3.2l0-0.1l0.2-0.8l0.1-0.4c0.1-0.6,0.1-1.2,0.1-1.8c0-2.1-0.4-3.9-1-5.4
			c0,0,0,0,0,0c-1.2-2.8-3.1-4.7-4.8-5.8c-1.6-1.2-2.9-1.6-2.9-1.6c-0.2,0-0.5,0-0.7,0.1c-2.9,0.3-4.5,1.4-5.3,2.2
			c-0.5,0.4-0.7,0.8-0.8,0.9c0,0,0,0,0,0c0,0,0,0,0,0c0,0,0,0,0,0l-0.8-1.4l0,0c2.2-3.2,2.3-6.7,1.9-9.5c-0.1-0.9-0.3-1.6-0.5-2.3
			c-0.2-0.8-0.5-1.5-0.6-1.9c0-0.1,0-0.1-0.1-0.1c0,0,0,0,0-0.1v0c0,0,0,0,0,0l0.5,0.1l0.5,0.1l0,0l0.1,0l0.1,0.1l0,0l0,0l0.1,0.1
			l6.6,3.1l1.7-3.5c-0.1,0.4-0.2,0.8-0.3,1.2c0,0,0,0,0,0c-0.2,1.3,0.1,2.4,0.8,3.2c1.4,1.8,4.4,2.8,7.8,3.3
			C160.1,150,170.5,148.7,171.8,148.5z"/>
		<g>
			<path class="st22" d="M148.1,37c0.7-1.8-0.9-4.9-4.4-8.7c-2.2-2.4-5.2-1.9-7.1-0.6c-0.2,0.4-0.4,0.7-0.6,1l-0.1,0.1l-0.3,0.3
				l-0.1,0.2h0c0,0.2-0.2,0.3-0.3,0.4c0,0,0,0,0,0c0,0,0-0.1,0-0.1c0,0,0,0.1,0,0.1l0,0l-0.2,0.1c-0.1,0.4,0,0.8,0.3,1.1
				c1.2,1.2,3.1,3.4,4.3,4.8c-0.2-0.2-0.5-0.3-0.9-0.5c-2.9-1.4-2.5,0.7-1.1,2.1c2.2,2.3,5.7,2.5,5.7,2.5s0.1,0,0.3-0.1
				c1.3,2.5,2.9,6.9,1.3,9.9c-1.8,3.2-10.9,3.7-15.1,3.8c-1-1.3-2.1-2.3-3.4-3c0.1,0,0.1-0.1,0.2-0.1c3.7-1.8,5.2-4.1,5.8-6
				c0-0.4-0.6-0.5-1.1-0.5c-3-0.2-3.7-0.2-4.5,0.6l-0.2-1c1.4-1.9,5.5-0.4,6-1.1c0-0.2,0-0.3,0-0.5c0-1.5-0.4-2-0.4-2
				s0.3,0.2,2.5-1.2c1.6-1-1-5.4-2.6-7.5l0.8-0.5c0,0,0.1,0,0.1,0c0.2,0,0.3-0.1,0.5-0.3v0h0l0,0c0,0,0,0,0,0s0,0,0,0v0.1l0.4,0
				c0,0,0.1,0,0.1,0h0.1c0,0,0,0,0,0l1.2-0.6c0.1-0.7,0.8-1.6,1.8-2.2c0.4-0.8,0.5-1.6,0.3-2.5c-0.1-1-0.4-2-0.9-3
				c-0.2-0.1-0.3-0.2-0.3-0.4c0,0,0,0,0,0c0,0,0,0,0,0l0,0c0,0,0,0,0,0c-0.5-0.3-0.6-0.8-0.6-1.3l0,0c-0.1,0-0.1,0-0.1,0
				c0,0,0.1,0,0.1-0.1c-0.2-0.3-0.4-0.6-0.6-0.9c-0.4-0.6-0.9-1.1-1.7-1.2c-0.2,0-0.4-0.2-0.7,0c0.1,0.4,0.1,0.9,0.2,1.4
				c0,0.2,0.1,0.4-0.1,0.6c-0.1,0.1,0,0.2,0.1,0.3c0.1,0.3,0,0.4-0.4,0.5c-0.2,0-0.3,0.1-0.5,0.1c0,0,0,0.1-0.1,0.1
				c0.1,0.1,0.4,0.1,0.1,0.4c0,0-0.1,0.1-0.3,0.2h0l0,0c0,0,0,0,0,0c0,0,0,0,0,0c0,0,0,0,0,0l0,0v0c0,0,0,0,0,0
				c-0.2,0.1-0.6,0.8-0.9,0.7c-0.7-0.1-0.8-0.1-1.4-0.4l-0.3-0.2c-2.1-1.4-7.8-2.2-12.6,1c0,0-6.8,3.4-4.5,13.3
				c1.6,7,1.9,10,1.1,15.7c-6.1,2.7-17,8.9-26.8,22.2c-1.9,0.6-4.3,2.8-7,6.4c-3.8,5.2,2.9,11.2,4.6,8.8c1.7-2.5,5.6-7.1,5.6-7.1
				s0,0-0.1,3.6c-0.1,3.6,1.3,3.4,2.7,0.2c1.2-2.7,0.3-5.9,0-6.8c5.9-8.1,13.1-12.7,18.9-15.4c-0.6,4-1.4,10.1-1.2,16.2v0
				c1.6,0.9,17.4,9,29.6-2.3l-0.8-3.4l-2.2-7.7l-0.7-2c-0.2-0.5-0.4-0.9-0.6-1.4c7.8-0.8,14.5-3.7,17-8.3
				C155.8,47.1,149.3,38.8,148.1,37z M135,24.7L135,24.7c0,0.1,0,0.2,0,0.3C135,24.9,135,24.8,135,24.7C135,24.7,135,24.7,135,24.7z
				 M134.5,26L134.5,26C134.5,26,134.5,26,134.5,26C134.4,26,134.4,26,134.5,26C134.4,26,134.4,26,134.5,26L134.5,26z M134.3,27.2
				v0.3C134.3,27.4,134.3,27.3,134.3,27.2L134.3,27.2z M133.9,28.4L133.9,28.4L133.9,28.4L133.9,28.4L133.9,28.4z M133.4,26.6
				L133.4,26.6C133.4,26.6,133.4,26.6,133.4,26.6C133.4,26.6,133.4,26.6,133.4,26.6z M133.4,26.5L133.4,26.5
				C133.4,26.5,133.4,26.5,133.4,26.5C133.4,26.6,133.4,26.5,133.4,26.5L133.4,26.5z M132.6,24C132.6,24,132.6,24,132.6,24L132.6,24
				C132.6,24,132.6,24,132.6,24L132.6,24C132.6,24,132.6,24,132.6,24L132.6,24C132.6,24,132.6,24,132.6,24L132.6,24z M132.5,30.3
				L132.5,30.3L132.5,30.3C132.5,30.3,132.5,30.3,132.5,30.3z M132.4,30.7L132.4,30.7C132.4,30.7,132.4,30.7,132.4,30.7
				C132.4,30.7,132.4,30.7,132.4,30.7z M131.5,28.7L131.5,28.7L131.5,28.7L131.5,28.7L131.5,28.7L131.5,28.7z M131.3,26.7
				L131.3,26.7C131.3,26.6,131.3,26.6,131.3,26.7C131.3,26.7,131.3,26.7,131.3,26.7z M131.2,22.4L131.2,22.4L131.2,22.4
				C131.3,22.4,131.3,22.4,131.2,22.4L131.2,22.4C131.2,22.4,131.2,22.4,131.2,22.4C131.2,22.4,131.2,22.4,131.2,22.4L131.2,22.4
				C131.2,22.4,131.2,22.4,131.2,22.4z M131.1,26.8C131.1,26.8,131.1,26.8,131.1,26.8C131.1,26.8,131.1,26.8,131.1,26.8L131.1,26.8
				C131.1,26.8,131.1,26.8,131.1,26.8L131.1,26.8C131.1,26.8,131.1,26.8,131.1,26.8L131.1,26.8C131.1,26.8,131.1,26.8,131.1,26.8
				L131.1,26.8C131.1,26.8,131.1,26.8,131.1,26.8L131.1,26.8C131.1,26.8,131.1,26.8,131.1,26.8C131.1,26.8,131.1,26.8,131.1,26.8
				C131.1,26.8,131.1,26.8,131.1,26.8C131.1,26.8,131.1,26.8,131.1,26.8C131.1,26.9,131.1,26.9,131.1,26.8L131.1,26.8
				C131.1,26.8,131.1,26.8,131.1,26.8L131.1,26.8z M131.1,22.4C131.1,22.4,131.1,22.4,131.1,22.4L131.1,22.4L131.1,22.4L131.1,22.4z
				 M130.5,27.5C130.5,27.5,130.5,27.5,130.5,27.5L130.5,27.5C130.5,27.5,130.5,27.5,130.5,27.5z M130.7,27
				C130.7,27,130.7,27,130.7,27C130.7,27,130.7,27,130.7,27C130.7,27,130.7,27,130.7,27C130.7,27,130.7,27,130.7,27
				C130.7,27,130.7,27,130.7,27C130.7,27,130.7,27,130.7,27z M130.7,27.1C130.7,27.1,130.7,27.1,130.7,27.1L130.7,27.1
				C130.7,27.2,130.7,27.2,130.7,27.1L130.7,27.1L130.7,27.1z M130.7,27.2L130.7,27.2L130.7,27.2L130.7,27.2z M130.6,25.1
				C130.6,25.1,130.6,25.1,130.6,25.1C130.6,25.1,130.6,25.1,130.6,25.1L130.6,25.1z M130.5,25.1C130.5,25.1,130.6,25.1,130.5,25.1
				C130.5,25.1,130.5,25.1,130.5,25.1C130.5,25,130.5,25.1,130.5,25.1z M130.4,25.5L130.4,25.5L130.4,25.5
				C130.4,25.5,130.4,25.5,130.4,25.5L130.4,25.5z M130.4,26.1L130.4,26.1C130.4,26.2,130.4,26.1,130.4,26.1L130.4,26.1z
				 M130.1,25.7C130.1,25.7,130.1,25.7,130.1,25.7L130.1,25.7L130.1,25.7L130.1,25.7L130.1,25.7C130.1,25.8,130.1,25.8,130.1,25.7z
				 M130,27.4L130,27.4L130,27.4L130,27.4C130.1,27.5,130.1,27.5,130,27.4C130,27.4,130,27.4,130,27.4C130,27.4,130,27.4,130,27.4z
				 M129.9,25.7L129.9,25.7L129.9,25.7L129.9,25.7z M129.6,25.7L129.6,25.7C129.6,25.7,129.6,25.7,129.6,25.7
				C129.6,25.7,129.6,25.7,129.6,25.7z M129.4,22.8L129.4,22.8c0,0-0.1,0-0.1,0s-0.1,0-0.1,0H129.4z M128.6,26.2
				C128.6,26.1,128.6,26.1,128.6,26.2L128.6,26.2C128.6,26.1,128.6,26.1,128.6,26.2z M129,22.7L129,22.7L129,22.7
				C128.9,22.7,128.9,22.7,129,22.7C128.9,22.7,128.9,22.7,129,22.7z M128.9,28C128.9,28,128.9,28,128.9,28
				C128.9,28,128.9,28,128.9,28L128.9,28z M128.5,23.4C128.6,23.4,128.6,23.4,128.5,23.4C128.6,23.4,128.6,23.4,128.5,23.4
				C128.6,23.4,128.6,23.4,128.5,23.4C128.6,23.4,128.6,23.4,128.5,23.4C128.6,23.4,128.5,23.4,128.5,23.4
				C128.5,23.4,128.5,23.4,128.5,23.4L128.5,23.4z M128,26.9L128,26.9L128,26.9L128,26.9z M124.7,34.4c0-0.8,0.7-1.5,1.6-1.5
				c0.9,0,1.5,0.7,1.5,1.5c0,0.9-0.7,1.6-1.5,1.6C125.4,35.9,124.7,35.2,124.7,34.4z"/>
		</g>
		<path class="st117" d="M124.4,144.5c-0.2,0.4-0.4,0.9-0.6,1.4c0,0,0,0,0,0c-0.1,0.3-0.2,0.7-0.4,1.1c0,0,0-0.1,0-0.1v0
			c0,0,0,0,0,0c-0.1-0.9,0-1.8,0.1-2.6C123.9,144.4,124.1,144.5,124.4,144.5L124.4,144.5z"/>
		<path class="st16" d="M135.5,141.5c-0.1-0.2-0.2-0.4-0.4-0.6"/>
		<path class="st117" d="M167.7,166.6c0.7-0.8,1.3-1.7,1.9-2.8c-0.7,3.1-1.3,6.1-2.1,9.2C167.5,171.1,167.6,168.9,167.7,166.6z"/>
		<g>
			<g>
				<g>
					<path class="st22" d="M214.5,96.6c-0.5,3-2.3,8.8-2.3,8.8s0,0-1.4-3.3c-1.4-3.3-2.6-2.6-2.6,0.9c0,2.9,2.1,5.4,2.8,6.2
						c-2.7,12.7-9.8,21.1-14.5,25.5c-1.2-1-2.5-1.7-3.9-2.1c0.1,0,0.1-0.1,0.2-0.1c3.2-2.6,4.1-4.3,4.2-6.4c-0.2,0-0.6,0.1-1.1,0.2
						c-1.4,0.3-3.5,1.8-4,1.8l-1.6-1.6c2-2.2,5.2-2.1,6.6-2.2h0.1c-0.3-1.8-1.2-3.3-1.2-3.3s0.3,0.1,2.2-1.7
						c1.3-1.3-2.2-5.1-4.2-6.8l-0.2-0.6l-4.9,3.4c0.1,0,0.1-0.1,0.2-0.1c0.8-0.2,1.7,0.3,1.9,1.2c0.2,0.8-0.3,1.7-1.2,1.9
						c-0.8,0.2-1.7-0.3-1.9-1.2c-0.1-0.5,0-1,0.4-1.4l-3.5,2.4c-1.4,0.9-2.5,1.3-3.7,1.3c-1.2,0-2.4-0.4-4.1-0.8l-2.8,1.6
						c0.2,0.6,0.5,1.3,0.8,2c2.9,6,4,8.9,4.5,13.9c-2.4,3.1-10.3,15.2-11,35c-0.3,0-0.5,0-0.7-0.1c-1.6-0.2-3.5,1.4-3.5,1.4l0,0
						c-2.5,1.3-5.8,5.2-3.7,5.6c0.9,0.2,2-0.3,3.1-0.9c-0.6,0.7-0.8,1.5-0.1,2.2c1.7,1.7,5.1-2.3,5.4-2.7c-0.3,0.5-3.2,4.8-0.5,4.4
						c1.1-0.2,2.1-0.9,3-1.8c-0.4,1.6-0.4,3,0.8,2.7c2-0.4,2.9-3.3,3.3-4.8c1.3,0.8,3.7,2.1,5.5,1.9c2.6-0.3-0.2-2.5-3.5-5.1
						c-0.4-0.3-0.8-0.5-1.2-0.8v0c0.2-7.7,2.2-14.2,4.6-19.3c0.4,3.3,1,7.2,1.9,11.1c0.5,2,1.1,4.1,1.9,6c1.7-0.1,16.4-1.6,22.2-8.9
						c-1.3-0.5-2.3-1.1-2.3-1.9c0-1.7,2.4-4.8,4.4-7.2c-0.1-0.3-0.1-0.6-0.2-0.9l0.1,0l-0.6-1l-0.3-0.5l-2.2-4l-1.2-1.8
						c-0.1-0.1-0.2-0.3-0.3-0.4l-0.5-0.7c-0.2-0.2-0.3-0.4-0.5-0.7c4.5-4.9,11.8-15.1,15.2-31.1c1.5-1.3,2.9-4.3,3.9-8.8
						C223.7,96.3,215,93.6,214.5,96.6z M163.5,177c0.9-1.2,2.8-2.2,2.9-2.3C166.3,174.8,165,176.1,163.5,177z M173.5,175.9l-0.9-0.3
						c0.1-0.1,0.1-0.2,0.1-0.3C173.2,175.6,173.5,175.8,173.5,175.9C173.5,175.8,173.5,175.9,173.5,175.9z"/>
				</g>
				<g>
					<g>
						<g>
							<g>
								<g>
									<polygon class="st22" points="189.7,104.3 189.7,104.3 189.7,104.3 									"/>
									<path class="st22" d="M183.5,103.6c0,0,0,0.1,0,0.2C183.5,103.7,183.5,103.7,183.5,103.6
										C183.5,103.6,183.5,103.6,183.5,103.6z"/>
									<path class="st22" d="M193.2,110L193.2,110C193.2,110,193.2,110,193.2,110L193.2,110z"/>
									<polygon class="st22" points="189.4,109 189.3,109 189.3,109 									"/>
									<path class="st22" d="M192.4,108.2C192.4,108.2,192.3,108.2,192.4,108.2L192.4,108.2C192.3,108.2,192.3,108.2,192.4,108.2z
										"/>
									<path class="st22" d="M192.4,108.2C192.4,108.2,192.4,108.2,192.4,108.2L192.4,108.2L192.4,108.2z"/>
									<polygon class="st22" points="188.1,103.1 188.1,103.1 188.1,103.1 									"/>
									<path class="st22" d="M189.7,108.1C189.7,108.1,189.7,108.1,189.7,108.1C189.7,108.1,189.7,108.1,189.7,108.1L189.7,108.1z
										"/>
									<path class="st22" d="M190.9,107.3L190.9,107.3C190.9,107.3,190.9,107.3,190.9,107.3L190.9,107.3z"/>
									<path class="st22" d="M191.4,106.6C191.4,106.6,191.4,106.6,191.4,106.6C191.4,106.6,191.4,106.6,191.4,106.6
										C191.4,106.6,191.4,106.6,191.4,106.6z"/>
									<path class="st22" d="M191.5,106.9L191.5,106.9C191.5,106.9,191.5,106.8,191.5,106.9C191.5,106.9,191.5,106.9,191.5,106.9z
										"/>
									<path class="st22" d="M189.2,105.4c-0.1,0-0.1,0-0.2,0c0,0-0.1,0-0.1,0c0,0,0.1,0,0.1,0
										C189.1,105.4,189.2,105.4,189.2,105.4z"/>
									<path class="st22" d="M189.2,105.4c-0.1,0-0.1,0-0.2,0c0,0-0.1,0-0.1,0c0,0,0.1,0,0.1,0
										C189.1,105.4,189.2,105.4,189.2,105.4z"/>
									<polygon class="st22" points="189.7,104.3 189.7,104.3 189.7,104.3 									"/>
									<polygon class="st22" points="189.2,109 189.2,109 189.2,109 189.2,109 									"/>
									<path class="st22" d="M191.4,109.1C191.4,109.1,191.4,109.1,191.4,109.1C191.4,109.1,191.4,109.1,191.4,109.1L191.4,109.1
										C191.4,109.1,191.4,109.1,191.4,109.1z M192,108.5C192,108.5,192,108.5,192,108.5C192,108.5,192,108.5,192,108.5
										C192,108.5,192,108.4,192,108.5C192,108.4,192,108.5,192,108.5z M192,108.6L192,108.6C192,108.6,192,108.6,192,108.6
										L192,108.6C192,108.6,192,108.6,192,108.6z M191.9,109L191.9,109L191.9,109L191.9,109L191.9,109z M191.4,107.1L191.4,107.1
										L191.4,107.1C191.4,107,191.4,107,191.4,107.1L191.4,107.1z M191.4,109.1C191.4,109.1,191.4,109.1,191.4,109.1
										C191.4,109.1,191.4,109.1,191.4,109.1L191.4,109.1C191.4,109.1,191.4,109.1,191.4,109.1z M190.6,107.4
										C190.6,107.4,190.6,107.4,190.6,107.4L190.6,107.4C190.6,107.4,190.6,107.4,190.6,107.4z M191.4,109.1
										C191.4,109.1,191.4,109.1,191.4,109.1C191.4,109.1,191.4,109.1,191.4,109.1L191.4,109.1
										C191.4,109.1,191.4,109.1,191.4,109.1z"/>
									<path class="st22" d="M191.5,106.9L191.5,106.9C191.5,106.9,191.5,106.8,191.5,106.9C191.5,106.9,191.5,106.9,191.5,106.9z
										"/>
									<path class="st22" d="M191.4,106.6C191.4,106.6,191.4,106.6,191.4,106.6C191.4,106.6,191.4,106.6,191.4,106.6
										C191.4,106.6,191.4,106.6,191.4,106.6z"/>
									<path class="st22" d="M190.5,109.9C190.5,109.9,190.4,109.9,190.5,109.9L190.5,109.9C190.4,109.9,190.5,109.9,190.5,109.9z
										"/>
									<path class="st22" d="M190.9,107.3L190.9,107.3C190.9,107.3,190.9,107.3,190.9,107.3L190.9,107.3z"/>
									<path class="st22" d="M191.4,107.1C191.4,107.1,191.4,107.1,191.4,107.1L191.4,107.1L191.4,107.1z"/>
									<path class="st22" d="M190.6,107.4L190.6,107.4C190.6,107.4,190.6,107.4,190.6,107.4C190.6,107.4,190.6,107.4,190.6,107.4z
										"/>
									<path class="st22" d="M189.3,104.7L189.3,104.7C189.3,104.7,189.3,104.7,189.3,104.7C189.3,104.7,189.3,104.7,189.3,104.7
										L189.3,104.7z"/>
									<path class="st22" d="M189.8,104.7L189.8,104.7c-0.1,0-0.2,0-0.2,0C189.6,104.7,189.7,104.7,189.8,104.7z"/>
									<path class="st22" d="M192.4,108.2C192.4,108.2,192.3,108.2,192.4,108.2L192.4,108.2C192.3,108.2,192.3,108.2,192.4,108.2z
										"/>
									<path class="st22" d="M192.4,108.2C192.4,108.2,192.4,108.2,192.4,108.2C192.4,108.2,192.4,108.2,192.4,108.2L192.4,108.2
										C192.3,108.2,192.3,108.2,192.4,108.2L192.4,108.2C192.4,108.2,192.4,108.2,192.4,108.2z"/>
									<path class="st22" d="M192.5,108C192.5,108,192.5,108,192.5,108L192.5,108L192.5,108z"/>
									<path class="st22" d="M193.2,110L193.2,110L193.2,110L193.2,110C193.2,110,193.2,110,193.2,110z"/>
									<path class="st22" d="M192.4,108.2C192.4,108.2,192.4,108.2,192.4,108.2C192.4,108.2,192.4,108.2,192.4,108.2
										C192.4,108.2,192.4,108.2,192.4,108.2C192.4,108.2,192.4,108.2,192.4,108.2z"/>
									<path class="st22" d="M192.5,108C192.5,108,192.5,108,192.5,108L192.5,108L192.5,108z"/>
									<path class="st22" d="M192,109C192,109,191.9,109,192,109C192,109,191.9,109,192,109L192,109z"/>
									<path class="st22" d="M192,108.6L192,108.6C192,108.6,192,108.6,192,108.6L192,108.6C192,108.6,192,108.6,192,108.6z"/>
									<path class="st22" d="M192,108.4C192,108.4,192,108.5,192,108.4C192,108.5,192,108.5,192,108.4
										C192,108.5,192,108.5,192,108.4C192,108.5,192,108.4,192,108.4z"/>
									<path class="st22" d="M191.5,109.1L191.5,109.1C191.5,109.1,191.5,109.1,191.5,109.1L191.5,109.1z"/>
									<polygon class="st22" points="191.5,109.1 191.5,109.1 191.5,109.1 									"/>
								</g>
							</g>
							<path class="st22" d="M216.1,167.5c0.3,2.7-0.1,5.1-1.2,7.1c1.5-1.3,3.2-2.8,4.9-4.4C219.7,170.2,218.1,169,216.1,167.5z
								 M189.7,108.1L189.7,108.1C189.7,108.1,189.7,108.1,189.7,108.1C189.7,108.1,189.7,108.1,189.7,108.1L189.7,108.1
								L189.7,108.1z M189.7,104.3L189.7,104.3L189.7,104.3L189.7,104.3L189.7,104.3z"/>
							<path class="st16" d="M191.4,106.6C191.4,106.6,191.4,106.6,191.4,106.6C191.4,106.7,191.4,106.7,191.4,106.6L191.4,106.6z
								 M192.4,108.2C192.4,108.2,192.4,108.2,192.4,108.2L192.4,108.2L192.4,108.2C192.4,108.2,192.4,108.2,192.4,108.2
								C192.3,108.2,192.3,108.2,192.4,108.2L192.4,108.2C192.4,108.2,192.4,108.2,192.4,108.2L192.4,108.2L192.4,108.2
								C192.4,108.2,192.4,108.2,192.4,108.2C192.4,108.2,192.4,108.2,192.4,108.2C192.4,108.2,192.4,108.2,192.4,108.2
								C192.4,108.2,192.4,108.2,192.4,108.2L192.4,108.2z M192.5,108L192.5,108L192.5,108L192.5,108L192.5,108z M216.1,167.5
								c-0.1-0.7-0.2-1.5-0.4-2.2c-0.1-0.3-0.1-0.6-0.2-1l-0.2-0.4l-0.6-1.1l0,0l-0.3-0.6l0-0.1l-4.2-7.9l-0.5-0.9l-0.5-0.8
								l-0.4-0.7l-0.1,0c0.1,0.3,0.1,0.6,0.2,0.9c-2.1,2.4-4.4,5.5-4.4,7.2c0,0.8,1,1.4,2.3,1.9c-5.8,7.3-20.5,8.8-22.2,8.9
								c1.1,2.8,2.4,5.3,4.1,7.3c0.4,0.6,0.9,1.1,1.4,1.5c4,3.7,9.7,4.7,17.7,0.1l0,0c0.5-0.3,1-0.6,1.6-0.9
								c0.1-0.1,0.3-0.2,0.4-0.2l0,0c0,0,0.1-0.1,0.1-0.1c0,0,0,0,0,0c0.2-0.2,0.5-0.3,0.7-0.5c0.2-0.1,0.4-0.3,0.6-0.4
								c0.1-0.1,0.2-0.1,0.2-0.2c0.3-0.2,0.6-0.4,0.9-0.6c0.1-0.1,0.3-0.2,0.4-0.3c0.4-0.3,0.8-0.6,1.3-1c0.2-0.2,0.5-0.4,0.7-0.6
								C216,172.6,216.4,170.2,216.1,167.5z M193.1,110L193.1,110L193.1,110L193.1,110L193.1,110L193.1,110l-0.9-1.6l-0.4-0.7
								l-0.2-0.3l-0.2-0.4L191,106l-0.8-1.4c-0.7,0-0.8,0.1-1.5-0.1l-0.4-0.1c-0.1-0.1-0.3-0.1-0.5-0.1c-2.6-0.6-7.9,0.1-11.6,3.9
								c0,0-2.5,2.1-3,6.1c-0.1,0.7-0.1,1.5,0,2.3v0c0.1,1.1,0.3,2.3,0.8,3.6l2.8-1.6c1.7,0.4,2.9,0.8,4.1,0.8
								c1.2,0,2.3-0.3,3.7-1.3l3.5-2.4c0.2-0.2,0.4-0.3,0.6-0.4l4.9-3.4L193.1,110z M189.7,104.7c0,0,0.1,0,0.1,0v0
								C189.7,104.7,189.7,104.7,189.7,104.7L189.7,104.7C189.6,104.7,189.7,104.7,189.7,104.7z M189,105.4L189,105.4
								c0.1,0,0.1,0,0.2,0h0c0,0,0,0,0,0L189,105.4L189,105.4z M192,108.5L192,108.5C192,108.4,192,108.5,192,108.5
								C192,108.5,192,108.5,192,108.5C192,108.5,192,108.5,192,108.5C192,108.5,192,108.5,192,108.5C192,108.5,192,108.5,192,108.5
								z M191.5,107.7C191.5,107.7,191.5,107.7,191.5,107.7L191.5,107.7C191.5,107.7,191.5,107.7,191.5,107.7z M191.1,107.4
								L191.1,107.4C191.1,107.4,191.1,107.4,191.1,107.4L191.1,107.4C191.1,107.4,191.1,107.4,191.1,107.4z M189.7,108.1
								C189.7,108.1,189.7,108.1,189.7,108.1L189.7,108.1L189.7,108.1L189.7,108.1C189.7,108.1,189.7,108.1,189.7,108.1z
								 M190.6,107.4C190.6,107.4,190.6,107.4,190.6,107.4L190.6,107.4C190.6,107.4,190.6,107.4,190.6,107.4z M190.9,107.3
								C190.9,107.3,190.9,107.3,190.9,107.3L190.9,107.3L190.9,107.3L190.9,107.3z M192,108.6L192,108.6L192,108.6
								C192,108.6,192,108.6,192,108.6L192,108.6C192,108.6,192,108.6,192,108.6z M194.5,111.3L194.5,111.3 M193.1,109.9
								L193.1,109.9L193.1,109.9L193.1,109.9L193.1,109.9z"/>
							<path class="st22" d="M189.2,105.4c-0.1,0-0.1,0-0.2,0c0,0-0.1,0-0.1,0c0,0,0.1,0,0.1,0C189.1,105.4,189.2,105.4,189.2,105.4
								z"/>
							<path class="st22" d="M190.5,109.9C190.5,109.9,190.4,109.9,190.5,109.9L190.5,109.9C190.4,109.9,190.5,109.9,190.5,109.9z"
								/>
							<path class="st22" d="M190.6,107.4L190.6,107.4C190.6,107.4,190.6,107.4,190.6,107.4C190.6,107.4,190.6,107.4,190.6,107.4z"
								/>
							<path class="st22" d="M191.5,109.1L191.5,109.1C191.5,109.1,191.5,109.1,191.5,109.1C191.4,109.1,191.4,109.1,191.5,109.1z"
								/>
							<path class="st22" d="M191.5,109.1L191.5,109.1C191.5,109.1,191.5,109.1,191.5,109.1L191.5,109.1z"/>
							<path class="st22" d="M191.5,109.1L191.5,109.1L191.5,109.1C191.5,109.1,191.5,109.1,191.5,109.1z"/>
							<path class="st22" d="M190.9,107.3L190.9,107.3C190.9,107.3,190.9,107.3,190.9,107.3L190.9,107.3z"/>
							<path class="st22" d="M191.1,107.4L191.1,107.4C191.1,107.4,191.1,107.4,191.1,107.4L191.1,107.4z"/>
							<path class="st22" d="M191.5,107.7L191.5,107.7C191.5,107.7,191.4,107.7,191.5,107.7C191.4,107.7,191.5,107.7,191.5,107.7z"
								/>
							<path class="st22" d="M192,109C192,109,191.9,109,192,109C192,109,191.9,109,192,109L192,109z"/>
							<path class="st22" d="M192,108.7C192,108.7,192,108.7,192,108.7C192,108.7,192,108.7,192,108.7L192,108.7z"/>
							<path class="st22" d="M192,108.6L192,108.6C192,108.6,192,108.6,192,108.6L192,108.6C192,108.6,192,108.6,192,108.6z"/>
							<path class="st22" d="M192,108.4C192,108.4,192,108.5,192,108.4C192,108.5,192,108.5,192,108.4
								C192,108.5,192,108.5,192,108.4C192,108.5,192,108.4,192,108.4z"/>
						</g>
						<path class="st22" d="M203.9,181l6.5-2.5c2.2-0.7,4.4-2.7,5.5-0.6c1.4,2.5,4.1,8.5,4.9,11.3c1.1,3.6,0.6,6.7,2.3,10.1
							c0.2,0.3,0.7,0.8,1,1c0.3,0.2,1.3,0.4,1.7,0.4c8.1,0.6,14.7-0.5,22.3-3.1c0.5-0.2,1-0.4,1.3-0.7c0.7-0.8,0.1-2.1-0.7-2.8
							c-1.4-1.4-3.4-2.2-5.3-2.9c-2.1-0.8-4.2-1.6-6.3-2.3c-1.4-0.5-2.9-1.1-4-2.1c-0.9-0.8-1.5-1.8-2.1-2.7
							c-2.4-3.9-4.4-8.1-6-12.5c-1-2.9-2-6-4.4-7.9c-1.6-1.3-3.2-1.4-5.2-1.1c-2.5,0.5-4.6,2.1-6,4.2c-1.4,2.1-2.3,4.1-3.1,6.5
							c-0.7,2-1.4,3.6-2.1,5.6L203.9,181z"/>
						<path class="st22" d="M260.2,166.2c-0.1,0.5-0.6,0.8-0.9,1.1c-6.3,5.1-12.1,8.3-19.9,10.5c-0.4,0.1-1.4,0.3-1.8,0.2
							c-0.4-0.1-1-0.3-1.2-0.6c-2.8-2.6-3.4-5.6-5.6-8.7c-1.7-2.3-6.2-7.1-8.4-9c-1.8-1.5-3.2,1-5,2.5l-0.2,0.2l0,0l-1.8,1.5l-2.4,2
							l-0.9,0.8l-0.4-2.2v0c-0.1-1.3-2.7-1.9-4.8-2.8c-1.3-0.5-2.3-1.1-2.3-1.9c0-1.7,2.4-4.8,4.4-7.2c0.1-0.1,0.2-0.2,0.2-0.3
							c0.9-1,1.7-1.9,2.2-2.4c0.2-0.2,0.4-0.4,0.6-0.6c2.1-2.2,2.6-2.8,4.7-4c1.8-1,3.3-1.4,5.3-0.8c2.9,1,4.8,3.6,6.8,5.9
							c2.9,3.6,6.2,6.8,9.8,9.7c0.9,0.7,1.8,1.4,2.9,1.9c1.4,0.6,3,0.6,4.5,0.6c2.2,0,4.5,0.1,6.7,0.1c2,0,4.1,0.1,5.9,0.9
							C259.6,164.2,260.5,165.1,260.2,166.2z"/>
						<g>
							<path class="st1" d="M169.7,118.1c-0.7,0-1.5-0.3-2-0.8c-1-0.9-1.4-2.3-0.9-3.5c0-0.1,0.1-0.2,0.1-0.4
								c0.9-2.6,2.4-5.9,9.9-11.7c4-3.1,7.7-4.4,10.9-3.7c2.5,0.5,4.2,2.2,5,3.4c0.8,1.5,0.3,3.4-1.1,4.3l-20.2,12
								C170.8,118,170.3,118.1,169.7,118.1z"/>
							<path class="st8" d="M197.3,109.4l-3.6,2.4l-4.9,3.4l-0.6,0.4l-3.5,2.4c-1.4,0.9-2.5,1.3-3.7,1.3c-1.2,0-2.4-0.4-4.1-0.8
								l-2.8,1.6l-0.1,0l-2.1-2.8l-0.9-1.1l2.3-2l3.1-2.7c3-2.6,6.3-4.7,9.8-6.5l1.7-0.8l2.3-1.1l1.6,2.5l0.4,0.7l0,0l0.3,0.5
								l0.1,0.1l0.3,0.4h0.4l3.4,0C198.2,107.8,198.2,108.8,197.3,109.4z"/>
							<g>
								<path class="st1" d="M192.9,106.6c0,0-1.5,2.8-13.6,8.2L192.9,106.6z"/>
								<path class="st1" d="M193.6,107c-0.2,0.3-1.9,3-13.2,8.1c-0.2,0.1-0.5,0.2-0.8,0.4l-0.3-0.7l-0.3-0.7
									c0.2-0.1,0.4-0.2,0.7-0.3c10.9-4.9,12.6-7.5,12.6-7.6L193.6,107z"/>
							</g>
							<path class="st1" d="M180.2,114.3C180.2,114.3,180.1,114.3,180.2,114.3c-0.1-0.1-0.1-0.2-0.1-0.2c-0.1-0.2-0.3-0.3-0.5-0.4
								c-0.2,0.1-0.4,0.2-0.7,0.3l0.3,0.7l0.3,0.7c0.3-0.1,0.5-0.2,0.8-0.4c0,0,0-0.1,0-0.1C180.4,114.8,180.3,114.5,180.2,114.3z"
								/>
							<path class="st1" d="M180.3,115.1c0,0,0,0.1,0,0.1c-0.1,0.4-0.3,0.8-0.6,1c-0.3,0.2-0.6,0.2-0.8,0.2c-0.5,0-0.9-0.2-1.2-0.6
								c-0.2-0.3-0.3-0.7-0.3-1.1c0.1-0.4,0.3-0.8,0.6-1c0.5-0.3,1.1-0.3,1.5-0.1c-0.2,0.1-0.4,0.2-0.7,0.3l0.3,0.7l0.3,0.7
								C179.8,115.4,180.1,115.2,180.3,115.1z"/>
						</g>
					</g>
					<g>
						<path class="st22" d="M166.4,174.7c-0.1,0.1-1.4,1.4-2.9,2.3C164.5,175.8,166.3,174.8,166.4,174.7z"/>
						<path class="st22" d="M173.5,175.8C173.5,175.8,173.5,175.9,173.5,175.8l-1-0.3c0.1-0.1,0.1-0.2,0.1-0.3
							C173.2,175.6,173.5,175.8,173.5,175.8z"/>
						<path class="st22" d="M173.5,175.8C173.5,175.8,173.5,175.9,173.5,175.8l-1-0.3c0.1-0.1,0.1-0.2,0.1-0.3
							C173.2,175.6,173.5,175.8,173.5,175.8z"/>
						<path class="st22" d="M173.5,175.8C173.5,175.8,173.5,175.9,173.5,175.8l-1-0.3c0.1-0.1,0.1-0.2,0.1-0.3
							C173.2,175.6,173.5,175.8,173.5,175.8z"/>
					</g>
				</g>
			</g>
			<path class="st8" d="M217.3,162.1l-1.5,0.4l-1.1,0.3c-0.8,0.9-1.4,2-1.8,3.2c-1,3.2-0.6,7.3,0,10.3c0.1,0.4,0.2,0.8,0.3,1.2
				c0.4,1.8,0.8,2.9,0.8,2.9l-7.1-0.1c-16.3,9.4-22.5-9.5-22.5-9.5s0.1,0,0.2,0c1.7-0.1,16.4-1.6,22.2-8.9c1.9-2.4,2.8-5.4,2.1-9.1
				c-0.1-0.3-0.1-0.6-0.2-0.9l0.1,0l3.3-2.5c0,0.1,0,0.1,0,0.2C210.8,157.8,217.3,162.1,217.3,162.1z"/>
		</g>
	</g>
</g>
</svg>
