<?xml version="1.0" encoding="utf-8"?>
<!-- Generator: Adobe Illustrator 27.7.0, SVG Export Plug-In . SVG Version: 6.00 Build 0)  -->
<svg version="1.1" xmlns="http://www.w3.org/2000/svg" xmlns:xlink="http://www.w3.org/1999/xlink" x="0px" y="0px"
	 viewBox="0 0 304.9 257.4" style="enable-background:new 0 0 304.9 257.4;" xml:space="preserve">
<style type="text/css">
	.st0{clip-path:url(#SVGID_00000098218392802187926750000008190334483082967993_);}
	.st1{fill:#B38CE7;}
	.st2{fill:#8C67C7;}
	.st3{fill:#59B9CF;}
	.st4{fill:#3B8EBA;}
	.st5{clip-path:url(#SVGID_00000048471399638245470540000016882578321659003580_);fill:#CCFF00;}
	.st6{clip-path:url(#SVGID_00000048471399638245470540000016882578321659003580_);fill:#C3E800;}
	.st7{clip-path:url(#SVGID_00000048471399638245470540000016882578321659003580_);fill:#E0FF8C;}
	.st8{fill:#24539F;}
	.st9{clip-path:url(#SVGID_00000011727626267766003270000002715314176214268554_);}
	.st10{fill:#459BBB;}
	.st11{fill:#2961A9;}
	.st12{fill:#3B87BA;}
	.st13{fill:#EBEBEB;}
	.st14{fill:#CCFF00;}
	.st15{fill:#B78BEF;}
	.st16{fill:none;}
	.st17{fill:#3070B4;}
	.st18{fill:#459ABA;}
	.st19{fill:#2961A9;stroke:#2961A9;stroke-miterlimit:10;}
	.st20{fill:#3B86B9;}
	.st21{fill:#538FB0;}
	.st22{fill:#FFFFFF;}
	.st23{fill:#3A5A98;}
	.st24{fill:#3070B5;}
	.st25{fill:#FFFFFF;stroke:#2961A9;stroke-width:0.1621;stroke-miterlimit:10;}
	.st26{fill:#2961A9;stroke:#2961A9;stroke-width:0.1484;stroke-miterlimit:10;}
	.st27{fill:#009DBF;}
	.st28{fill:none;stroke:#B28BE6;stroke-width:2.6852;stroke-miterlimit:10;}
	.st29{fill:none;stroke:#B28BE6;stroke-width:2.6852;stroke-miterlimit:10;stroke-dasharray:6.5158,6.5158;}
	.st30{fill:none;stroke:#B28BE6;stroke-width:4;stroke-miterlimit:10;stroke-dasharray:6.5416;}
	.st31{fill:#006EB3;}
	.st32{fill:none;stroke:#B38CE7;stroke-width:4;stroke-miterlimit:10;}
	.st33{fill:none;stroke:#936EC4;stroke-width:4;stroke-miterlimit:10;}
	.st34{fill:#E4E4EF;}
	.st35{fill:none;stroke:#B38CE7;stroke-width:5;stroke-miterlimit:10;}
	.st36{clip-path:url(#SVGID_00000025421630259128551610000015694439899231731878_);fill:#B38CE7;}
	.st37{clip-path:url(#SVGID_00000025421630259128551610000015694439899231731878_);fill:#9D75D1;}
	.st38{clip-path:url(#SVGID_00000025421630259128551610000015694439899231731878_);}
	.st39{fill:#9D75D1;}
	.st40{fill:none;stroke:#2961A9;stroke-width:4;stroke-miterlimit:10;}
	.st41{fill:none;stroke:#24539F;stroke-width:4.7611;stroke-miterlimit:10;}
	.st42{clip-path:url(#SVGID_00000019656000071231683590000006252564962122631831_);fill:#24539F;}
	.st43{clip-path:url(#SVGID_00000019656000071231683590000006252564962122631831_);fill:#2961A9;}
	.st44{clip-path:url(#SVGID_00000019656000071231683590000006252564962122631831_);fill:#3B87BA;}
	.st45{clip-path:url(#SVGID_00000019656000071231683590000006252564962122631831_);}
	.st46{clip-path:url(#SVGID_00000148626837104791992620000013127602145852664476_);fill:#24539F;}
	.st47{clip-path:url(#SVGID_00000148626837104791992620000013127602145852664476_);fill:#2961A9;}
	.st48{clip-path:url(#SVGID_00000148626837104791992620000013127602145852664476_);fill:#3B87BA;}
	.st49{clip-path:url(#SVGID_00000148626837104791992620000013127602145852664476_);}
	.st50{clip-path:url(#SVGID_00000089546321272312943700000011582613444398009534_);fill:#24539F;}
	.st51{clip-path:url(#SVGID_00000089546321272312943700000011582613444398009534_);fill:#2961A9;}
	.st52{clip-path:url(#SVGID_00000089546321272312943700000011582613444398009534_);fill:#3B87BA;}
	.st53{clip-path:url(#SVGID_00000089546321272312943700000011582613444398009534_);}
	.st54{fill:none;stroke:#24539F;stroke-width:5;stroke-miterlimit:10;}
	.st55{clip-path:url(#SVGID_00000138571974967313631780000007158114614601981594_);fill:#24539F;}
	.st56{clip-path:url(#SVGID_00000138571974967313631780000007158114614601981594_);fill:#2961A9;}
	.st57{clip-path:url(#SVGID_00000138571974967313631780000007158114614601981594_);fill:#3B87BA;}
	.st58{clip-path:url(#SVGID_00000138571974967313631780000007158114614601981594_);}
	.st59{fill:#DCDCDE;}
	.st60{clip-path:url(#SVGID_00000092428985794809338980000003808547577323753628_);}
	.st61{clip-path:url(#SVGID_00000132048519181545514950000011779532471498436518_);}
	.st62{clip-path:url(#SVGID_00000080192050190324087890000006830308578322135482_);}
	.st63{clip-path:url(#SVGID_00000038405184587105250200000017305731907789898906_);}
	.st64{clip-path:url(#SVGID_00000168111777926050257410000014172660398600025767_);}
	.st65{clip-path:url(#SVGID_00000135663357205878918830000015087978313875010192_);}
	.st66{clip-path:url(#SVGID_00000155114855784248618140000010055964137034215323_);}
	.st67{clip-path:url(#SVGID_00000044858635279657285560000014927098867685650068_);}
	.st68{fill:#C3E800;}
	.st69{clip-path:url(#SVGID_00000078029653412938752430000010894349879528654737_);}
	.st70{fill:#E0FF8C;}
	.st71{clip-path:url(#SVGID_00000093867745976437088410000005324279602302144670_);}
	.st72{clip-path:url(#SVGID_00000027595625848337288100000000017016824586350773_);}
	.st73{clip-path:url(#SVGID_00000080195801934119218890000012222623329791100804_);}
	.st74{clip-path:url(#SVGID_00000150814624157387207380000013215012294953789109_);}
	.st75{clip-path:url(#SVGID_00000058569770396062087310000006987018744193020821_);}
	.st76{clip-path:url(#SVGID_00000071557279495243061280000007383988248761119367_);}
	.st77{clip-path:url(#SVGID_00000075855717901840951100000001321233078774188461_);}
	.st78{fill:#F7F7F7;}
	.st79{clip-path:url(#SVGID_00000063611782356776118930000004057701723855255183_);}
	.st80{clip-path:url(#SVGID_00000098916668984762042770000014544096594147744185_);}
	.st81{fill:#D9FF00;}
	.st82{fill:#C9ED00;}
	.st83{clip-path:url(#SVGID_00000010277664060496555550000017279267482711331003_);}
	.st84{clip-path:url(#SVGID_00000011723234638608340720000005466455821937648779_);}
	.st85{clip-path:url(#SVGID_00000055703632303511503430000008566269880151719850_);fill:#B38CE7;}
	.st86{clip-path:url(#SVGID_00000055703632303511503430000008566269880151719850_);}
	.st87{clip-path:url(#SVGID_00000008114338265921659310000005889270813194167954_);fill:#B38CE7;}
	.st88{clip-path:url(#SVGID_00000008114338265921659310000005889270813194167954_);}
	.st89{clip-path:url(#SVGID_00000003068901966404730010000000638612769299690132_);}
	.st90{clip-path:url(#SVGID_00000039822052420822892850000015406979772935130257_);}
	.st91{clip-path:url(#SVGID_00000069395283162524737990000009029638513451329667_);fill:#CCFF00;}
	.st92{clip-path:url(#SVGID_00000069395283162524737990000009029638513451329667_);fill:#C3E800;}
	.st93{clip-path:url(#SVGID_00000069395283162524737990000009029638513451329667_);fill:#E0FF8C;}
	.st94{clip-path:url(#SVGID_00000077296665678543082180000004404513605381210505_);fill:#3B87BA;}
	.st95{clip-path:url(#SVGID_00000077296665678543082180000004404513605381210505_);}
	.st96{clip-path:url(#SVGID_00000128474810936491145840000006919314731185402039_);fill:#FFFFFF;}
	.st97{clip-path:url(#SVGID_00000128474810936491145840000006919314731185402039_);}
	.st98{clip-path:url(#SVGID_00000029735212241583536110000004292063013514522541_);}
	.st99{clip-path:url(#SVGID_00000072237912648201424680000012275189770027667588_);fill:#DCDCDE;}
	.st100{clip-path:url(#SVGID_00000072237912648201424680000012275189770027667588_);}
	.st101{clip-path:url(#SVGID_00000092423795356002576540000017809680152580941961_);}
	.st102{clip-path:url(#SVGID_00000181075130875210507090000008124188159455376550_);fill:#CCFF00;}
	.st103{clip-path:url(#SVGID_00000181075130875210507090000008124188159455376550_);}
	.st104{clip-path:url(#SVGID_00000013896752650844863810000017456518267609553828_);}
	.st105{clip-path:url(#SVGID_00000044141077760134190520000015825902458641972891_);}
	.st106{clip-path:url(#SVGID_00000141415892373225647900000000600904610234340510_);}
	.st107{clip-path:url(#SVGID_00000072261047567076843540000017030777994349211057_);}
	.st108{clip-path:url(#SVGID_00000163779255171985816210000012588922022817592453_);}
	.st109{clip-path:url(#SVGID_00000074435076727886834130000014850906175808142748_);fill:#9D75D1;}
	.st110{clip-path:url(#SVGID_00000074435076727886834130000014850906175808142748_);}
	.st111{clip-path:url(#SVGID_00000074416600740760684870000014391195675216097456_);}
	.st112{clip-path:url(#SVGID_00000109716526818265584950000004473487612294027649_);}
	.st113{clip-path:url(#SVGID_00000029762623558345862640000018332049256314819712_);fill:#FFFFFF;}
	.st114{fill:none;stroke:#B28BE6;stroke-width:2.7011;stroke-miterlimit:10;stroke-dasharray:4.4173;}
	.st115{clip-path:url(#SVGID_00000174585945686332672560000008972020719175440788_);fill:#FFFFFF;}
	.st116{clip-path:url(#SVGID_00000174585945686332672560000008972020719175440788_);}
	.st117{fill:#D5FD51;}
	.st118{fill:none;stroke:#B38CE7;stroke-width:6.0424;stroke-miterlimit:10;}
	.st119{fill:none;stroke:#CCFF00;stroke-width:8.2148;stroke-linecap:round;stroke-linejoin:round;stroke-miterlimit:10;}
	.st120{fill:#B38CE7;stroke:#CCFF00;stroke-width:2.0856;stroke-miterlimit:10;}
	.st121{fill:none;stroke:#CCFF00;stroke-width:2.4332;stroke-linecap:round;stroke-linejoin:round;stroke-miterlimit:10;}
	.st122{fill:none;stroke:#B38CE7;stroke-width:8.4138;stroke-linecap:round;stroke-linejoin:round;stroke-miterlimit:10;}
	.st123{fill:#B38CE7;stroke:#B38CE7;stroke-width:2.1361;stroke-miterlimit:10;}
	.st124{fill:none;stroke:#B38CE7;stroke-width:2.4921;stroke-linecap:round;stroke-linejoin:round;stroke-miterlimit:10;}
	.st125{fill:none;stroke:#B38CE7;stroke-width:4.5144;stroke-miterlimit:10;}
	.st126{fill:none;stroke:#B38CE7;stroke-width:6.2927;stroke-linecap:round;stroke-linejoin:round;stroke-miterlimit:10;}
	.st127{fill:#B38CE7;stroke:#B38CE7;stroke-width:1.5976;stroke-miterlimit:10;}
	.st128{fill:none;stroke:#B38CE7;stroke-width:1.8638;stroke-linecap:round;stroke-linejoin:round;stroke-miterlimit:10;}
</style>
<g id="Layer_1">
</g>
<g id="Layer_2">
	<g>
		<g>
			<g>
				<g>
					<path class="st117" d="M169.6,106.9l-0.4,0.8c-0.1,0-0.2,0.1-0.3,0.1l0.2-0.4l-7.9,2.3l-1.1-3.7c0.4-0.2,0.7-0.4,1.1-0.6h0
						L169.6,106.9z"/>
					<path class="st117" d="M256.2,131.2c-0.2,0.7-0.3,1.4-0.3,2.1c0,0.4,0,0.7,0.1,1.1c0.3,2.3,0.7,3.5,2.9,4.2
						c-0.3,0-0.7-0.1-1-0.1l-66.2-11c-1.2-3-2.2-6-3.1-9.1c-0.9-3-1.6-6.2-3.4-8.8l77.8,13c0.4,0.1,0.8,0.1,1.2,0.3
						c-2.7,0.3-3.4,0.1-5.4,3C257.8,127.2,256.6,129.6,256.2,131.2z"/>
					<path class="st117" d="M266,125.4c-1.7-0.3-3.7,0-4.8,1.3c-1.8,2.5-3.6,6.5-1.5,9.3c3.1,4.4,5.8-4.8,5.4-7.2
						c-0.1-0.6-0.2-1.1-0.8-1.1c-1.5,0.2-2.4,2.5-2.8,3.9c-0.3,0.9-0.7,2.6-0.1,3.3c0.2,0,0.6-0.4,0.8-0.7l0,0.1
						c0.5-1.4,1-2.8,1.5-4.2c-0.3,1.5-0.7,2.9-1.1,4.4c-0.4,0.7-1.4,1.6-1.9,0.5c-0.6-2.5,0.3-5.3,1.8-7.2c0.6-0.7,1.7-1.2,2.6-0.7
						c2.5,1.6,0.3,7.8-1.2,9.7c-2.5,3.6-5.7,0.6-6.1-2.7c-0.2-2.8,1.2-5.5,3-7.5C262.3,125,264.4,124.8,266,125.4L266,125.4z"/>
				</g>
				<g>
					<path class="st117" d="M138.5,164.9L125,190.1L52.7,178c-5.8-1-9-6.7-7-12.7c2.4-7.5,9.8-12.9,17.2-12.9c0.8,0,1.6,0.1,2.4,0.2
						L138.5,164.9z"/>
					<path class="st117" d="M219.2,178.5c-3.4,0.7-4.4,0.4-7.2,5.1c-1.4,2.4-3.2,6.4-3.9,8.9c-0.4,1.5-0.7,3-0.7,4.5
						c0,0.2,0,0.4,0,0.6c0.2,3.7,0.5,5.6,3.1,6.6c-0.4,0-0.8-0.1-1.2-0.1l-78-13l13.5-25.2l19.7,3.3c0,1.5,0.1,3.1,0.5,4.8
						c0.1,0.5,0.6,1.2,1,1.5c0.4,0.4,1.6,0.9,2.1,1.1c10.4,3.2,19.3,3.8,30.1,2.6c0.7-0.1,1.4-0.2,1.9-0.6c1-0.8,0.8-2.3,0.2-3.5
						l17.6,2.9C218.2,178.2,218.7,178.3,219.2,178.5z"/>
					<path class="st117" d="M221.2,182.6c-2.7-0.6-5.4,0.7-6.6,3.1c-1.9,3.4-3.5,7.3-3.3,11.2c0.1,1.6,0.5,3.1,1.5,4.3
						c2.6,3.8,6.2-7.6,6.5-9.4c0.3-1.6,0.8-3.9,0.1-5.3c-1.2-0.6-2.4,1.9-3,3c-1.1,2.3-2,4.9-2.2,7.5c0,0.4,0,1,0.1,1.3c0,0,0,0,0,0
						c0.1,0,0.4-0.2,0.6-0.5c0.2-0.2,0.4-0.5,0.6-0.8l0,0.1c0.8-2.3,1.6-4.6,2.4-6.9c-0.6,2.4-1.2,4.7-1.8,7.1
						c-0.2,0.3-0.4,0.6-0.6,0.9c-0.7,1-1.8,1.2-2-0.2c-0.4-3.8,0.9-7.7,2.8-11c0.7-1.2,2.4-2.8,4-1.8c3.1,2.6-1,13.8-3.3,16.5
						c-3.6,4.8-7-0.8-6.9-4.7c0-2.8,0.8-5.5,2-8C213.6,185.1,216.6,180.9,221.2,182.6L221.2,182.6z"/>
				</g>
				<g>
					<path class="st117" d="M150.8,142l-0.9,1.7l-0.1,0.2l-9.7,18.1h0l-58.2-9.7c-5.4-0.9-8.6-5.6-7.1-10.3c1.9-5.9,8.3-10,15.1-10
						c0.9,0,1.8,0.1,2.6,0.2l35.4,5.9c3.9,6,8.6,6.6,8.6,6.6l11.6,2.3l1.6-3.1l0.1-0.2l0.9-1.8L150.8,142z"/>
					<polygon class="st117" points="157.1,143.1 154.2,148.5 154.1,148.5 157,143.1 					"/>
					<path class="st117" d="M164.7,166.2l-18.4-3.1l7.9-14.7l4.7,1.6c0,0,1.5-1.8,3.5-4.4c1.1,4.2,2.3,11.1,2.6,14.5
						C165,162.4,164.8,164.3,164.7,166.2z"/>
					<path class="st117" d="M237.1,156.6c-3.2,0.5-4.1,0.2-6.5,4c-1.2,1.9-2.7,5.1-3.3,7.1c-0.3,1-0.4,2-0.4,3c0,0.4,0,0.7,0.1,1.1
						c0.3,3,0.7,4.5,3.2,5.4c-0.4,0-0.8-0.1-1.2-0.1l-32-5.3c-1-0.8-2-1.5-3.1-2.2c-2.5-1.6-5-3.3-7.5-4.9c-1.7-1.1-3.4-2.3-4.6-3.9
						c-0.9-1.3-1.4-2.8-1.9-4.2c-1.1-3.3-2-6.6-2.7-9.9l4.8,0.8c0.2,2.7,0.3,5.3,1.6,8.1c0.2,0.4,0.8,1.1,1.2,1.4
						c0.4,0.3,1.7,0.7,2.2,0.7c10.7,1.5,19.6,0.7,30.1-2.2c0.6-0.2,1.3-0.4,1.8-0.9c0.2-0.3,0.4-0.6,0.4-0.9l16.5,2.8
						C236.2,156.3,236.7,156.4,237.1,156.6z"/>
					<path class="st117" d="M239.2,159.9c-2.1-0.5-4.6,0.2-5.8,2c-2.1,3.4-4.3,8.3-1.9,11.9c1.4,2.2,2.7,1.6,4-0.5
						c1.1-1.8,1.8-3.9,2.3-6c0.2-1.4,0.6-3.2,0-4.3c-1.1-0.8-2.2,1-2.8,2c-1,1.8-1.8,4-1.8,6.1c0,0.4,0,0.8,0.2,1
						c0.3-0.1,0.8-0.6,1-0.9c0,0,0,0.1,0,0.1c0.6-1.8,1.3-3.7,1.9-5.5c-0.4,1.9-0.9,3.8-1.4,5.6c-0.4,0.6-1.2,2-2.1,1.1
						c-0.3-0.4-0.4-0.9-0.4-1.4c-0.1-2.4,0.6-4.6,1.5-6.7c0.7-1.7,2.8-4.1,4.7-2.4c2.1,3-0.7,11-3.1,13.4c-1.8,1.9-3.9,1-5.1-1
						c-2.1-3.1-1-7.1,0.6-10.1C232.6,161,235.3,158.6,239.2,159.9L239.2,159.9z"/>
				</g>
				<g>
					<path class="st117" d="M126.4,135.8l-19.5-3.2c-5.1-0.9-8.3-4.9-7-8.9c1.6-4.9,7.3-8.2,13.5-8.2c0.9,0,1.9,0.1,2.8,0.2l6.3,1
						C122.7,123.6,123.7,130.5,126.4,135.8z"/>
					<path class="st117" d="M160,125.3c-0.1,0.1-0.2,0.1-0.3,0.2c-0.1,0-0.2,0.1-0.3,0.2l0.4-0.7c0,0.1,0.1,0.1,0.1,0.2
						C159.9,125.1,160,125.2,160,125.3z"/>
					<path class="st117" d="M164.9,123.8C164.8,123.8,164.8,123.8,164.9,123.8L164.9,123.8L164.9,123.8z"/>
					<polygon class="st117" points="167.2,124.2 165.5,127.4 165.4,127.5 165.4,127.5 158.3,140.9 158.2,140.9 158.1,141.1 
						158.1,141.1 158.2,140.9 158.2,140.9 165.4,127.4 165.4,127.4 165.4,127.3 167.1,124.2 					"/>
					<path class="st117" d="M181.8,145.1l-5-0.8c-0.4-2-0.7-3.9-0.9-5.9c-0.4-3.3-0.7-6.9-2.2-9.8c0.3-0.9,0.3-1.6-0.1-1.9
						c-0.6-0.5-1.3-0.9-1.9-1.3c0.3-0.1,0.6-0.2,0.8-0.3l2.9,0.5c0.2,0.2,0.3,0.4,0.4,0.6c1.7,3.5,4.7,11.8,5.6,15.5
						C181.5,142.9,181.7,144,181.8,145.1z"/>
					<path class="st117" d="M244,147.8c-0.2,0.8-0.3,1.5-0.3,2.3c0,0.4,0,0.8,0.1,1.2c0.4,2.6,0.8,3.8,3.2,4.6
						c-0.4,0-0.7-0.1-1.1-0.1l-27.1-4.5c-0.2-0.3-0.3-0.5-0.5-0.7c-1.8-2-4.3-3.2-6.8-4.3c-2.7-1.2-5.4-2.4-8.2-3.7
						c-1.9-0.8-3.8-1.7-5.2-3.1c-1.1-1.1-1.9-2.5-2.6-3.9c-1.2-2.3-2.3-4.7-3.4-7.2l59.4,9.9c0.4,0.1,0.9,0.2,1.3,0.3
						c-3,0.4-3.8,0.1-5.9,3.2C245.8,143.4,244.5,146.1,244,147.8z"/>
					<path class="st117" d="M254.8,141.4c-1.9-0.4-4,0-5.2,1.4c-2,2.7-3.9,7.2-1.6,10.2c3.4,4.8,6.4-5.3,6-7.9
						c-0.1-0.8-0.4-1.4-1.1-1.2c-1.9,0.5-4.1,6.2-3,7.8c0.2,0,0.7-0.4,0.9-0.8c0.4-1.2,1.1-3.1,1.6-4.5c-0.4,1.6-0.8,3.2-1.2,4.8
						c-0.1,0.2-0.3,0.5-0.5,0.7c-0.5,0.6-1.3,0.8-1.6-0.1c-0.7-2.7,0.4-5.8,2-8c0.7-0.8,1.8-1.3,2.9-0.8c2.7,1.7,0.3,8.6-1.3,10.7
						c-2.8,4-6.3,0.6-6.7-3c-0.2-3.1,1.3-6,3.2-8.3C250.7,141,253,140.8,254.8,141.4L254.8,141.4z"/>
				</g>
			</g>
			<g>
				<g>
					<g>
						<path class="st22" d="M141.9,37.3c0,0.1,0,0.1,0,0.2C141.8,37.4,141.8,37.4,141.9,37.3C141.9,37.3,141.9,37.3,141.9,37.3z"/>
						<polygon class="st22" points="152.6,48.5 152.6,48.5 152.6,48.5 						"/>
						<polygon class="st22" points="150.3,50.3 151,50.3 151,50.3 						"/>
						<path class="st22" d="M127.2,53.6L127.2,53.6c0,0.1,0,0.1-0.1,0.2l-0.1-0.4c0,0,0.1,0,0.1,0c0,0,0,0,0.1,0
							C127.2,53.5,127.2,53.5,127.2,53.6L127.2,53.6C127.2,53.5,127.2,53.5,127.2,53.6L127.2,53.6C127.2,53.5,127.2,53.5,127.2,53.6
							C127.2,53.5,127.2,53.6,127.2,53.6z"/>
						<path class="st22" d="M149.1,47.6C149.1,47.6,149.1,47.6,149.1,47.6L149.1,47.6C149.1,47.5,149.1,47.6,149.1,47.6z"/>
						<polygon class="st22" points="152.6,48.5 152.6,48.5 152.6,48.5 152.6,48.5 152.6,48.5 152.6,48.5 152.6,48.5 						"/>
					</g>
				</g>
				<path class="st22" d="M153.9,50.6C153.9,50.6,153.9,50.6,153.9,50.6L153.9,50.6L153.9,50.6z M143.8,77.3L143.8,77.3l0.1,1.1l0,0
					L143.8,77.3z M151.7,140l-1.1,2l-0.9,1.8l-0.1,0.2c0,0,0.1,0,0.1,0l0.1-0.2l0.9-1.7l1.1-2L151.7,140z M159.9,125
					c0-0.1-0.1-0.1-0.1-0.2l-0.4,0.7c0.1-0.1,0.2-0.1,0.3-0.1c0.1-0.1,0.2-0.1,0.3-0.2C160,125.2,159.9,125.1,159.9,125z
					 M165.4,127.4L165.4,127.4l-7.2,13.5c0,0,0.1,0,0.1,0L165.4,127.4L165.4,127.4L165.4,127.4z M126.4,135.8L126.4,135.8
					c0.2,0.5,0.5,1,0.8,1.4C126.9,136.8,126.7,136.3,126.4,135.8z"/>
				<path class="st22" d="M127.2,53.6L127.2,53.6c0,0.1,0,0.1-0.1,0.2l-0.1-0.4c0,0,0.1,0,0.1,0c0,0,0,0,0.1,0
					C127.2,53.5,127.2,53.5,127.2,53.6L127.2,53.6C127.2,53.5,127.2,53.5,127.2,53.6L127.2,53.6C127.2,53.5,127.2,53.5,127.2,53.6
					C127.2,53.5,127.2,53.6,127.2,53.6z"/>
				<path class="st22" d="M149.1,47.6C149.1,47.6,149.1,47.6,149.1,47.6L149.1,47.6C149.1,47.5,149.1,47.6,149.1,47.6z"/>
			</g>
			<polygon class="st22" points="144,78.4 143.9,78.4 143.8,77.3 143.8,77.3 			"/>
			<path class="st22" d="M158.2,140.9l-0.1,0.2l-0.1,0L158.2,140.9C158.2,140.9,158.2,140.9,158.2,140.9z"/>
			<polygon class="st22" points="144,78.4 143.9,78.4 143.8,77.3 143.8,77.3 			"/>
			<path class="st22" d="M200,178.7c-0.5,0.4-1.2,0.5-1.9,0.6c-10.8,1.2-19.7,0.6-30.1-2.6c-0.5-0.2-1.7-0.7-2.1-1.1
				c-0.3-0.4-0.9-1.1-1-1.5c-0.4-1.7-0.5-3.2-0.5-4.8c0-1,0.1-2,0.2-3c0.2-1.9,0.4-3.8,0.2-6c-0.2-3.3-1.5-10.3-2.6-14.5
				c0.4-0.5,0.8-1,1.2-1.5c0.5-0.6,1-1.3,1.5-1.9c3.6-4.9,7.7-10.7,8.7-13.7c1.5,2.9,1.8,6.5,2.2,9.8c0.2,2,0.5,3.9,0.9,5.9
				c0.1,0.8,0.3,1.5,0.4,2.2c0.7,3.4,1.6,6.7,2.7,9.9c0.5,1.5,1,3,1.9,4.2c1.2,1.6,2.9,2.8,4.6,3.9c2.5,1.6,5,3.3,7.5,4.9
				c1.1,0.7,2.1,1.4,3.1,2.2c1.1,0.9,2.2,1.9,2.9,3.1c0.1,0.1,0.2,0.3,0.2,0.4C200.8,176.4,200.9,177.9,200,178.7z"/>
			<polygon class="st22" points="151.8,140.1 150.8,142 149.8,143.8 149.7,143.8 150.7,142 151.7,140 			"/>
			<path class="st22" d="M157.7,142l-0.4,0.7h0c0,0,0,0-0.1,0L157.7,142L157.7,142C157.6,142,157.6,142,157.7,142z"/>
			<path class="st22" d="M167.4,123.9l-0.2,0.3l-1.7,3.2l-0.1,0.1v0l-7.2,13.4l0,0l-0.1,0.2l-0.1,0l0.1-0.2l0,0l7.2-13.5h0l0-0.1
				l1.7-3.2L167.4,123.9C167.3,123.9,167.3,123.9,167.4,123.9z"/>
			<path class="st22" d="M219.2,153.5c0,0.3-0.2,0.6-0.4,0.9c-0.4,0.5-1.1,0.7-1.8,0.9c-10.4,2.9-19.3,3.7-30.1,2.2
				c-0.6-0.1-1.8-0.4-2.2-0.7c-0.4-0.3-1-0.9-1.2-1.4c-1.2-2.8-1.4-5.4-1.6-8.1c0-0.7-0.1-1.4-0.2-2.2c-0.1-1.1-0.3-2.2-0.5-3.4
				c-0.8-3.8-3.9-12-5.6-15.5c-0.1-0.2-0.2-0.5-0.4-0.6c-0.7-0.8-1.7-0.8-2.9-0.5c-0.3,0.1-0.5,0.2-0.8,0.3
				c-0.4-0.2-0.8-0.4-1.1-0.6c0,0,0,0,0,0l-0.5-0.1c0,0,0,0,0,0l-2.8-0.5l0.2-0.3l0.1-0.3l0.1-0.2l8.3-15.4l1.3-2.5
				c2.4-0.2,4.3,0.3,6.2,1.9c0.7,0.6,1.3,1.3,1.8,2.1c1.7,2.6,2.5,5.8,3.4,8.8c0.9,3.1,1.9,6.1,3.1,9.1c0.1,0.3,0.3,0.6,0.4,0.9
				c1,2.4,2.1,4.8,3.4,7.2c0.7,1.4,1.5,2.8,2.6,3.9c1.4,1.4,3.3,2.3,5.2,3.1c2.7,1.2,5.4,2.4,8.2,3.7c2.5,1.1,5,2.3,6.8,4.3
				c0.2,0.2,0.4,0.5,0.5,0.7C219.1,151.9,219.4,152.7,219.2,153.5z"/>
			<path class="st22" d="M164.9,123.8C164.8,123.8,164.8,123.8,164.9,123.8L164.9,123.8L164.9,123.8z"/>
			<path class="st22" d="M167.5,123.6l-0.1,0.3l-0.2,0.3l-1.7,3.2l-0.1,0l0,0l0-0.1l1.7-3.2l0.1-0.3L167.5,123.6
				C167.4,123.6,167.5,123.6,167.5,123.6z"/>
			<path class="st22" d="M176.4,94.3l-0.5,0.9c1,0.3,2.1,0.4,3.2,0.5L176.4,94.3z M185.4,83.8l2.7,1.4l0.4-0.7
				C187.6,84.3,186.6,84.1,185.4,83.8z"/>
			<path class="st22" d="M188.5,84.5l-0.4,0.7l-2.7-1.4c-0.9-0.2-2-0.6-3.1-1c2.8-5.3,2.2-6.4,0.1-6.2c-2.3,0.2-7.2,6.2-7.2,6.2
				l0.1,0c-1,0.6-1.8,1.4-2.3,2l0-0.1c-4.6,4.6-8.7,7.4-12.5,9.3c-1.1,0.7-2.3,1.4-3.6,2c-2.7,1.3-5.8,2.2-8.4,1.6
				c-1.1-0.2-2.2-0.7-3.1-1.5c-3.8-4.6-7.9-8.4-12.1-12.7c4.6,2.5,8.7,5.8,12.1,9.7c1.2,1.8,2.4,2.8,4.7,2.9c2.2,0,4.3-0.4,6.3-1.1
				c-3-7-5.8-14.3-11.2-17.1c0.1,0,0.2-0.1,0.3-0.1c5-2.4,7-5.4,7.7-8.1c-0.6,0.2-1.4,0.3-2.2,0.3c-2,0-4.1-0.5-4.7-0.7l0.5-1.7
				c2.4,0.6,6,1,6.6,0l0.2,0.1c0.1-2.4-0.7-4.2-0.7-4.2s0.4,0.2,3.3-1.6c2.2-1.3-1.4-7.3-3.4-10.1l-0.1-1.1l-13.5,5.3
				c-4.2,1.6-6.2,0.4-10.3-1.7l-4.2,1.3l0,0c0.1,1,0.3,2.1,0.5,3.2c3.1,13.2,2.6,15.7-0.5,33c-0.8,4.4-2.5,14.6-2.2,24.9v0
				c0.2,6.9,1.2,13.8,3.9,19.1l0.1,0c-1.5-3-2.7-7.1-3.3-12.5c0,0,15.1,4.8,27.3-1.9c0.4-0.2,0.8-0.4,1.2-0.7c0.9-0.6,1.8-1.2,2.7-2
				c2.1-1.8,4.1-4,5.7-6.8c0.4-0.7,0.8-1.4,1.2-2.2h0l-1.1-3.7c0.4-0.2,0.7-0.4,1.1-0.6h0c4.2-2.2,8.8-5.5,14.1-10.5
				c0.2,0.1,0.4,0.1,0.6,0.2l0.5-0.9l2.7,1.4c3.3,0.2,6.3-0.3,7.2,0c1.4,0.4,3.6-7.4,4.2-9.4C190.8,85.2,190,84.9,188.5,84.5z
				 M143.9,78.4l-0.1-1.1h0L143.9,78.4L143.9,78.4z M145.6,54c1.1,0,2.1,0.9,2.1,2.1c0,1.1-0.9,2.1-2.1,2.1c-1.1,0-2.1-0.9-2.1-2.1
				C143.5,55,144.4,54,145.6,54z"/>
			<path class="st1" d="M179.1,95.7c-1.1-0.1-2.1-0.2-3.2-0.5l-6.3,11.7l-0.4,0.8l-5.8,10.7v0l-2.1,3.9l-0.4,0.8l-1,1.9
				c0,0.1,0.1,0.2,0.1,0.2c-0.1,0.1-0.2,0.1-0.3,0.2l-7.8,14.6l-1.1,2l-0.9,1.7l-0.1,0.2l-9.7,18.1h0l-1.5,2.8L125,190.1l-4.8,9
				l-4-1.9l-8.2,8l-16.2,27.8l12.5,6l11.3,6.6l12.7-30.1l1.9-11.4l-4.6-2.3l5.7-10.6l13.5-25.2l1.5-2.8h0l7.9-14.7l-0.1,0l2.9-5.4
				l0.2-0.4l0.4-0.7v0c0,0,0.1,0,0.1,0l0.4-0.9l-0.1,0l0.1-0.2l0,0l7.2-13.5h0l0-0.1l1.7-3.2l0.1-0.3l0.2-0.3c0,0,0,0,0.1,0l0.1-0.2
				l8.3-15.4l1.3-2.5l4.5-8.4L179.1,95.7z M164.8,123.8L164.8,123.8L164.8,123.8C164.8,123.8,164.8,123.8,164.8,123.8z"/>
			<path class="st1" d="M160,125.3c-0.1,0.1-0.2,0.1-0.3,0.2l0.2-0.4C159.9,125.1,160,125.2,160,125.3z"/>
			<path class="st1" d="M164.9,123.8C164.8,123.8,164.8,123.8,164.9,123.8L164.9,123.8L164.9,123.8z"/>
			<path class="st1" d="M157.7,142l-0.4,0.7h0l-0.2,0.4l-2.9,5.4l-0.1,0l2.9-5.4l0.2-0.4L157.7,142L157.7,142
				C157.6,142,157.6,142,157.7,142z"/>
			<path class="st1" d="M167.5,123.6l-0.1,0.3l-0.2,0.3l-1.7,3.2l-0.1,0.1v0l-7.2,13.4l0,0l-0.1,0.2l-0.1,0l0.1-0.2l0,0l7.2-13.5h0
				l0-0.1l1.7-3.2l0.1-0.3L167.5,123.6C167.4,123.6,167.5,123.6,167.5,123.6z"/>
			<path class="st1" d="M179.1,95.7c-1.1-0.1-2.1-0.2-3.2-0.5l0.5-0.9L179.1,95.7z"/>
			<path class="st1" d="M195.5,64.9l-2.7-1.4l0.1-0.1C193.7,63.6,194.6,64.2,195.5,64.9z"/>
			<rect x="193" y="66.4" transform="matrix(0.4903 -0.8716 0.8716 0.4903 37.9364 203.7199)" class="st1" width="0.3" height="6"/>
			
				<rect x="190.1" y="71.4" transform="matrix(0.4736 -0.8807 0.8807 0.4736 34.708 206.9093)" class="st1" width="0.7" height="6"/>
			<polygon class="st1" points="190.7,80.4 190.3,81 188.5,84.5 188.1,85.3 185.4,83.8 182.8,82.4 185.4,77.5 188,79 			"/>
			<path class="st22" d="M193.8,83.2c0,0-1.7-0.8-3.5-2.1c-0.8-0.6-1.6-1.3-2.3-2.1c-1-1-1.7-2.2-1.9-3.5c-0.3-2.5,2.1-1.8,4.1-0.7
				l1,0.5c0,0,0.1,0,0.1,0.1c0.8,0.5,1.4,0.9,1.7,1c-0.1-0.1-0.2-0.2-0.4-0.4c-0.5-0.4-1.2-1.1-1.9-1.9c-1.7-1.8-3.3-4.3-1.6-5.7
				c0.5-0.4,1-0.6,1.5-0.5c0,0,0,0,0,0c0.6,0,1.3,0.4,1.9,0.8c0.1,0.1,0.1,0.2,0.2,0.4c0.1,0.2,0.2,0.4,0.3,0.5
				c1.3,1.8,2.8,3.3,2.9,3.5c-0.1-0.2-0.9-1.7-2.1-3c-0.2-0.2-0.4-0.5-0.7-0.7c-0.2-0.2-0.5-0.5-0.7-0.7c-1-1.5-1.7-3.2-1.3-4.5
				c0.2-0.9,0.9-1,1.8-0.8c0.8,0.2,1.7,0.8,2.6,1.5c2,1.6,4.1,4.1,4.7,6C201.6,74.6,193.8,83.2,193.8,83.2z"/>
			<path class="st22" d="M196,73c-0.2-0.2-1.6-1.6-2.9-3.5c-0.2-0.3-0.4-0.6-0.6-0.9c0.3,0.2,0.5,0.4,0.7,0.7
				C194.7,70.8,195.9,72.8,196,73z"/>
			<path class="st1" d="M215.2,38c0,2.8-2.1,5.1-4.8,5.5l-12.2,22.8l-2.7-1.4c-0.9-0.7-1.8-1.3-2.6-1.5l12-22.4
				c-0.6-0.9-0.9-1.9-0.9-3c0-3.1,2.5-5.6,5.6-5.6C212.7,32.5,215.2,35,215.2,38z"/>
		</g>
		<path class="st8" d="M169.2,107.7l-5.8,10.7v0l-2.1,3.9l-0.4,0.8l-1,1.9c0-0.1-0.1-0.1-0.1-0.2l-0.4,0.7c0.1-0.1,0.2-0.1,0.3-0.1
			l-7.8,14.6l-0.1,0l-1.1,2l-0.9,1.8l-0.1,0.2l-1.6,3.1l-11.6-2.3c0,0-4.7-0.6-8.6-6.6h0c-0.2-0.3-0.4-0.6-0.6-0.9c0,0,0,0,0,0
			c-0.3-0.4-0.5-0.9-0.8-1.4c-1.5-3-2.7-7.1-3.3-12.5c0,0,15.1,4.8,27.3-1.9c0.4-0.2,0.8-0.4,1.2-0.7c0.9-0.6,1.8-1.2,2.7-2
			c2.1-1.8,4.1-4,5.7-6.8c0.4-0.7,0.8-1.4,1.2-2.2h0l7.9-2.3l-0.2,0.4C169,107.8,169.1,107.8,169.2,107.7z"/>
		<path class="st8" d="M127.8,138.2L127.8,138.2c-0.2-0.3-0.4-0.6-0.6-0.9C127.4,137.6,127.6,137.9,127.8,138.2z"/>
		<path class="st8" d="M173.6,128.5c-0.9,3-5,8.9-8.7,13.7c-0.5,0.7-1,1.3-1.5,1.9c-0.4,0.5-0.8,1.1-1.2,1.5c-2,2.6-3.5,4.4-3.5,4.4
			l-4.7-1.6l2.9-5.4l0.2-0.4h0l0.4-0.7l0.4-0.9l0.1-0.2l0,0l7.2-13.4v0l0.1-0.1l1.7-3.2l2.8,0.5c0,0,0,0,0,0l0.5,0.1c0,0,0,0,0,0
			c0.4,0.2,0.8,0.4,1.1,0.6c0.6,0.4,1.3,0.8,1.9,1.3C173.9,126.9,173.9,127.6,173.6,128.5z"/>
		<path class="st8" d="M157.7,142l-0.4,0.7h0l-0.2,0.4l-2.9,5.4l-0.1,0l2.9-5.4l0.2-0.4L157.7,142L157.7,142
			C157.6,142,157.6,142,157.7,142z"/>
		<path class="st8" d="M167.5,123.6l-0.1,0.3l-0.2,0.3l-1.7,3.2l-0.1,0.1v0l-7.2,13.4l0,0l-0.1,0.2l-0.1,0l0.1-0.2l0,0l7.2-13.5h0
			l0-0.1l1.7-3.2l0.1-0.3L167.5,123.6C167.4,123.6,167.5,123.6,167.5,123.6z"/>
	</g>
	<g>
		<path class="st1" d="M119.7,51.5c-0.9-0.2-1.8-0.8-2.4-1.6c-1-1.5-1.1-3.4,0-4.9c0.1-0.1,0.2-0.3,0.3-0.5c1.9-3.1,5-6.9,16.6-12
			c6.2-2.7,11.4-3.2,15.4-1.3c3.1,1.5,4.8,4.2,5.3,6c0.6,2.2-0.7,4.5-2.8,5.2l-30.1,9.1C121.2,51.6,120.4,51.7,119.7,51.5z"/>
		<path class="st8" d="M158.2,49l-5.4,2l-7.5,2.8l-0.9,0.3l-5.3,2c-2.1,0.8-3.7,0.8-5.2,0.5c-1.5-0.4-3.1-1.2-5.1-2.3l-4.1,1.2
			l-0.1,0l-1.9-4.3l-0.8-1.8l3.6-1.8l4.9-2.5c4.7-2.4,9.6-4.1,14.8-5.3l2.4-0.5l3.4-0.7l1.2,3.7l0.3,1l0,0l0.3,0.8l0.1,0.2l0.2,0.6
			l0.6,0.1l4.4,1.1C160,47.2,159.7,48.5,158.2,49z"/>
		<g>
			<path class="st1" d="M153.4,43.9c0,0-2.9,3.1-20.3,6.2L153.4,43.9z"/>
			<path class="st1" d="M154.2,44.7c-0.3,0.3-3.5,3.3-19.8,6.3c-0.4,0.1-0.7,0.1-1.1,0.2l-0.2-1.1l-0.2-1.1c0.3-0.1,0.6-0.1,0.9-0.2
				c15.7-2.9,18.8-5.7,18.8-5.7L154.2,44.7z"/>
		</g>
		<path class="st1" d="M134.5,49.9c0,0,0-0.1,0-0.1c0,0,0-0.1,0-0.1c-0.1-0.3-0.3-0.5-0.5-0.7c-0.3,0-0.6,0.1-0.9,0.2l0.2,1.1
			l0.2,1.1c0.4-0.1,0.8-0.1,1.1-0.2c0,0,0-0.1,0-0.1C134.6,50.5,134.6,50.2,134.5,49.9z"/>
		<path class="st1" d="M134.4,51c0,0.1,0,0.1,0,0.1c-0.2,0.5-0.6,0.9-1.1,1.1c-0.4,0.1-0.8,0.1-1.2,0.1c-0.6-0.1-1.1-0.6-1.4-1.2
			c-0.2-0.5-0.2-1,0-1.5c0.2-0.5,0.6-0.9,1.1-1.1c0.7-0.3,1.5-0.1,2,0.4c-0.3,0-0.6,0.1-0.9,0.2l0.2,1.1l0.2,1.1
			C133.7,51.1,134.1,51.1,134.4,51z"/>
	</g>
</g>
</svg>
