<?xml version="1.0" encoding="utf-8"?>
<!-- Generator: Adobe Illustrator 27.7.0, SVG Export Plug-In . SVG Version: 6.00 Build 0)  -->
<svg version="1.1" xmlns="http://www.w3.org/2000/svg" xmlns:xlink="http://www.w3.org/1999/xlink" x="0px" y="0px"
	 viewBox="0 0 311 275.7" style="enable-background:new 0 0 311 275.7;" xml:space="preserve">
<style type="text/css">
	.st0{clip-path:url(#SVGID_00000154420215180953297260000015062243575990036392_);}
	.st1{fill:#B38CE7;}
	.st2{fill:#8C67C7;}
	.st3{fill:#59B9CF;}
	.st4{fill:#3B8EBA;}
	.st5{clip-path:url(#SVGID_00000124142987670549140240000001124357833063031189_);fill:#CCFF00;}
	.st6{clip-path:url(#SVGID_00000124142987670549140240000001124357833063031189_);fill:#C3E800;}
	.st7{clip-path:url(#SVGID_00000124142987670549140240000001124357833063031189_);fill:#E0FF8C;}
	.st8{fill:#24539F;}
	.st9{clip-path:url(#SVGID_00000125593995752376983820000009895367630979693453_);}
	.st10{fill:#459BBB;}
	.st11{fill:#2961A9;}
	.st12{fill:#3B87BA;}
	.st13{fill:#EBEBEB;}
	.st14{fill:#CCFF00;}
	.st15{fill:#B78BEF;}
	.st16{fill:none;}
	.st17{fill:#3070B4;}
	.st18{fill:#459ABA;}
	.st19{fill:#2961A9;stroke:#2961A9;stroke-miterlimit:10;}
	.st20{fill:#3B86B9;}
	.st21{fill:#538FB0;}
	.st22{fill:#FFFFFF;}
	.st23{fill:#3A5A98;}
	.st24{fill:#3070B5;}
	.st25{fill:#FFFFFF;stroke:#2961A9;stroke-width:0.1621;stroke-miterlimit:10;}
	.st26{fill:#2961A9;stroke:#2961A9;stroke-width:0.1484;stroke-miterlimit:10;}
	.st27{fill:#009DBF;}
	.st28{fill:none;stroke:#B28BE6;stroke-width:2.6852;stroke-miterlimit:10;}
	.st29{fill:none;stroke:#B28BE6;stroke-width:2.6852;stroke-miterlimit:10;stroke-dasharray:6.5158,6.5158;}
	.st30{fill:none;stroke:#B28BE6;stroke-width:4;stroke-miterlimit:10;stroke-dasharray:6.5416;}
	.st31{fill:#006EB3;}
	.st32{fill:none;stroke:#B38CE7;stroke-width:4;stroke-miterlimit:10;}
	.st33{fill:none;stroke:#936EC4;stroke-width:4;stroke-miterlimit:10;}
	.st34{fill:#E4E4EF;}
	.st35{fill:none;stroke:#B38CE7;stroke-width:5;stroke-miterlimit:10;}
	.st36{clip-path:url(#SVGID_00000021809643222399628990000012229235027267380611_);fill:#B38CE7;}
	.st37{clip-path:url(#SVGID_00000021809643222399628990000012229235027267380611_);fill:#9D75D1;}
	.st38{clip-path:url(#SVGID_00000021809643222399628990000012229235027267380611_);}
	.st39{fill:#9D75D1;}
	.st40{fill:none;stroke:#2961A9;stroke-width:4;stroke-miterlimit:10;}
	.st41{fill:none;stroke:#24539F;stroke-width:4.7611;stroke-miterlimit:10;}
	.st42{clip-path:url(#SVGID_00000018230288903431731890000010855176906975658377_);fill:#24539F;}
	.st43{clip-path:url(#SVGID_00000018230288903431731890000010855176906975658377_);fill:#2961A9;}
	.st44{clip-path:url(#SVGID_00000018230288903431731890000010855176906975658377_);fill:#3B87BA;}
	.st45{clip-path:url(#SVGID_00000018230288903431731890000010855176906975658377_);}
	.st46{clip-path:url(#SVGID_00000101094073142244483010000003291610040910232214_);fill:#24539F;}
	.st47{clip-path:url(#SVGID_00000101094073142244483010000003291610040910232214_);fill:#2961A9;}
	.st48{clip-path:url(#SVGID_00000101094073142244483010000003291610040910232214_);fill:#3B87BA;}
	.st49{clip-path:url(#SVGID_00000101094073142244483010000003291610040910232214_);}
	.st50{clip-path:url(#SVGID_00000027591065291079154230000010784795626154844091_);fill:#24539F;}
	.st51{clip-path:url(#SVGID_00000027591065291079154230000010784795626154844091_);fill:#2961A9;}
	.st52{clip-path:url(#SVGID_00000027591065291079154230000010784795626154844091_);fill:#3B87BA;}
	.st53{clip-path:url(#SVGID_00000027591065291079154230000010784795626154844091_);}
	.st54{fill:none;stroke:#24539F;stroke-width:5;stroke-miterlimit:10;}
	.st55{clip-path:url(#SVGID_00000040548278625792040210000007167301514925152429_);fill:#24539F;}
	.st56{clip-path:url(#SVGID_00000040548278625792040210000007167301514925152429_);fill:#2961A9;}
	.st57{clip-path:url(#SVGID_00000040548278625792040210000007167301514925152429_);fill:#3B87BA;}
	.st58{clip-path:url(#SVGID_00000040548278625792040210000007167301514925152429_);}
	.st59{fill:#DCDCDE;}
	.st60{clip-path:url(#SVGID_00000080918573879208968160000003142601121979513247_);}
	.st61{clip-path:url(#SVGID_00000103246688864444586690000014287437409101384852_);}
	.st62{clip-path:url(#SVGID_00000048469891628817654640000001024926921359657143_);}
	.st63{clip-path:url(#SVGID_00000174581730089648737060000013951806212236565430_);}
	.st64{clip-path:url(#SVGID_00000038415173401131201390000001578458981549953416_);}
	.st65{clip-path:url(#SVGID_00000065068282924882385620000013291717600996713396_);}
	.st66{clip-path:url(#SVGID_00000073696528566901323070000000010821021285372549_);}
	.st67{clip-path:url(#SVGID_00000075845575128606862740000004057021959728746414_);}
	.st68{fill:#C3E800;}
	.st69{clip-path:url(#SVGID_00000047057629928267880260000002023532946496913067_);}
	.st70{fill:#E0FF8C;}
	.st71{clip-path:url(#SVGID_00000178184898605052689770000004843758238407802011_);}
	.st72{clip-path:url(#SVGID_00000032650281171008707220000003064450600009203351_);}
	.st73{clip-path:url(#SVGID_00000164477998973481337790000007755371624858969754_);}
	.st74{clip-path:url(#SVGID_00000070099496970931484570000004080959666765518210_);}
	.st75{clip-path:url(#SVGID_00000092425272249241591560000000269358943849528983_);}
	.st76{clip-path:url(#SVGID_00000127735352576699482140000011879233205686030220_);}
	.st77{clip-path:url(#SVGID_00000083806940669440962580000007464995925635622274_);}
	.st78{fill:#F7F7F7;}
	.st79{clip-path:url(#SVGID_00000034060956530427070090000018330704237421197961_);}
	.st80{clip-path:url(#SVGID_00000097498925890409605630000013888365781667398312_);}
	.st81{fill:#D9FF00;}
	.st82{fill:#C9ED00;}
	.st83{clip-path:url(#SVGID_00000106108797072304741070000013221048645270368645_);}
	.st84{clip-path:url(#SVGID_00000060736323209606117710000012495925309378328197_);}
	.st85{clip-path:url(#SVGID_00000064355874698807901150000010205410634187465860_);fill:#B38CE7;}
	.st86{clip-path:url(#SVGID_00000064355874698807901150000010205410634187465860_);}
	.st87{clip-path:url(#SVGID_00000136406201092921803540000014693673195733053350_);fill:#B38CE7;}
	.st88{clip-path:url(#SVGID_00000136406201092921803540000014693673195733053350_);}
	.st89{clip-path:url(#SVGID_00000148649165186328386050000005155363595013182358_);}
	.st90{clip-path:url(#SVGID_00000096053417585910618460000001295657382199941255_);}
	.st91{clip-path:url(#SVGID_00000054958646916050712230000002857627950352072328_);fill:#CCFF00;}
	.st92{clip-path:url(#SVGID_00000054958646916050712230000002857627950352072328_);fill:#C3E800;}
	.st93{clip-path:url(#SVGID_00000054958646916050712230000002857627950352072328_);fill:#E0FF8C;}
	.st94{clip-path:url(#SVGID_00000167371148681022252780000014487436208552029871_);fill:#3B87BA;}
	.st95{clip-path:url(#SVGID_00000167371148681022252780000014487436208552029871_);}
	.st96{clip-path:url(#SVGID_00000091008433916258110090000001754219381058349724_);fill:#FFFFFF;}
	.st97{clip-path:url(#SVGID_00000091008433916258110090000001754219381058349724_);}
	.st98{clip-path:url(#SVGID_00000127765601163985469890000016384462948345478551_);}
	.st99{clip-path:url(#SVGID_00000065795020961194338720000014112281033531052681_);fill:#DCDCDE;}
	.st100{clip-path:url(#SVGID_00000065795020961194338720000014112281033531052681_);}
	.st101{clip-path:url(#SVGID_00000016063954586559636070000003310459812796059817_);}
	.st102{clip-path:url(#SVGID_00000079457305175062311220000016024158774291691939_);fill:#CCFF00;}
	.st103{clip-path:url(#SVGID_00000079457305175062311220000016024158774291691939_);}
	.st104{clip-path:url(#SVGID_00000000215184825606523590000000223972903043997571_);}
	.st105{clip-path:url(#SVGID_00000031177040537573112870000017827003801496103595_);}
	.st106{clip-path:url(#SVGID_00000084498387113417011250000000558228746943613842_);}
	.st107{clip-path:url(#SVGID_00000040552619510895391400000003446825166827203728_);}
	.st108{clip-path:url(#SVGID_00000123404350740359298460000009115558678205880207_);}
	.st109{clip-path:url(#SVGID_00000170958501142880989450000010738697190484466607_);fill:#9D75D1;}
	.st110{clip-path:url(#SVGID_00000170958501142880989450000010738697190484466607_);}
	.st111{clip-path:url(#SVGID_00000101812606531309653520000010012813668449906091_);}
	.st112{clip-path:url(#SVGID_00000078033956958065756340000013632978713724535176_);}
	.st113{clip-path:url(#SVGID_00000140711846985184199960000007243847261530686869_);fill:#FFFFFF;}
	.st114{fill:none;stroke:#B28BE6;stroke-width:2.7011;stroke-miterlimit:10;stroke-dasharray:4.4173;}
	.st115{clip-path:url(#SVGID_00000088850978630433722420000006682651128182287011_);fill:#FFFFFF;}
	.st116{clip-path:url(#SVGID_00000088850978630433722420000006682651128182287011_);}
	.st117{fill:#D5FD51;}
	.st118{fill:none;stroke:#B38CE7;stroke-width:6.0424;stroke-miterlimit:10;}
	.st119{fill:none;stroke:#CCFF00;stroke-width:8.2148;stroke-linecap:round;stroke-linejoin:round;stroke-miterlimit:10;}
	.st120{fill:#B38CE7;stroke:#CCFF00;stroke-width:2.0856;stroke-miterlimit:10;}
	.st121{fill:none;stroke:#CCFF00;stroke-width:2.4332;stroke-linecap:round;stroke-linejoin:round;stroke-miterlimit:10;}
	.st122{fill:none;stroke:#B38CE7;stroke-width:8.4138;stroke-linecap:round;stroke-linejoin:round;stroke-miterlimit:10;}
	.st123{fill:#B38CE7;stroke:#B38CE7;stroke-width:2.1361;stroke-miterlimit:10;}
	.st124{fill:none;stroke:#B38CE7;stroke-width:2.4921;stroke-linecap:round;stroke-linejoin:round;stroke-miterlimit:10;}
	.st125{fill:none;stroke:#B38CE7;stroke-width:4.5144;stroke-miterlimit:10;}
	.st126{fill:none;stroke:#B38CE7;stroke-width:6.2927;stroke-linecap:round;stroke-linejoin:round;stroke-miterlimit:10;}
	.st127{fill:#B38CE7;stroke:#B38CE7;stroke-width:1.5976;stroke-miterlimit:10;}
	.st128{fill:none;stroke:#B38CE7;stroke-width:1.8638;stroke-linecap:round;stroke-linejoin:round;stroke-miterlimit:10;}
</style>
<g id="Layer_1">
</g>
<g id="Layer_2">
	<g>
		<g>
			<defs>
				<path id="SVGID_00000043415480355331369000000008859680832613087652_" d="M255.1,136.4c-6.2,7.4-17.1,8.6-27.7,5.8
					c-28.2-7.4-68.1-17.3-93.5-31.5c0,0-13.5-6.8-13.5-6.8c-12-7.1-2.9-35.9,16.4-35.5c3.9-0.6,16.6,7.3,20.7,8.3
					c22.9,8.5,58.8,6.3,82.9,6.5l0.2-0.1c13.3,4.7,16.9,28,10,38.7c-6.3,9.9-14.6,13.6-19.5,4.7c-6.6-11.1-1.5-28.9,8.7-26.3
					c2.6,1.8,8.9,4.3,4.2,14c0,0-3.1,8.2-6.5,6.4c0,0,7-10.5,3.2-13.9c-3-2.7-4.6-0.1-5.4,0.1c-0.8,0.3-1.6,4.8-1.7,6
					c-0.9,4.2-0.6,12.8,5.1,13.2c1-0.3,7,0.1,9.8-11.9c2.7-11.5-4.8-21.9-11.6-21.6c-10.5,3-15.6,20.8-12.6,31.2
					c1.5,7.6,6.8,13.4,15.7,12.8c22.4-2.4,16.2-31.2,16.2-31.2l3.3-0.7C259.6,104.5,263.6,127.1,255.1,136.4z M222.3,148.6
					c-40.4-6.7-79.2-22.8-115.8-40.9c-27.1-2.8-59.1,35.2-59,35.2c7.4,4.3,24.5,13.5,32.2,17.6l8.4-2.3l-1.5,7.7l15.3,8.4l9.2,0.4
					l-3.1,2.7l16.1,9.9l9.2-10.3l-2.3,16.9l27.6,16.9c4.9-47,46.8-59.6,63.6-60.7C223.1,149.9,223.1,148.7,222.3,148.6z"/>
			</defs>
			<clipPath id="SVGID_00000165194792528142403860000009264606541549959585_">
				<use xlink:href="#SVGID_00000043415480355331369000000008859680832613087652_"  style="overflow:visible;"/>
			</clipPath>
			<path style="clip-path:url(#SVGID_00000165194792528142403860000009264606541549959585_);fill:#FFFFFF;" d="M101.3,60.4
				L17.5,163.6l179.7,63.3l104.2-79.7c0,0-34.7-104.2-37.8-104.2C260.6,43.1,101.3,60.4,101.3,60.4z"/>
		</g>
		<g>
			<g>
				<path id="XMLID_00000088126396825299033230000002006862689794190995_" class="st1" d="M168.1,159.6c-0.1,0-0.2-0.1-0.3-0.2
					c-0.1-0.1-0.1,0-0.2,0c-0.1,0-0.1,0.1-0.2,0.1c-0.1,0.1-0.1,0-0.1-0.1c0,0.1-0.1,0.1-0.1,0.1c0,0,0,0,0,0
					c-0.1,0.1-0.1,0.2-0.2,0.1c0,0-0.1-0.1-0.1-0.1c0,0.1-0.2,0-0.1,0.2c0,0,0,0.1-0.1,0.1c-0.1,0-0.1,0-0.1,0c0,0,0,0,0,0
					c-0.1-0.1-0.2-0.2-0.3-0.2c0,0,0,0,0,0c0,0-0.1,0-0.1-0.1c-0.1,0-0.1-0.1-0.2-0.1c0,0,0,0,0,0c0,0,0,0,0,0
					c-0.1,0-0.2,0.1-0.2,0.1c-0.1,0.1-0.2,0.1-0.2,0.1c-0.2-0.1-0.4,0-0.6,0c-0.2,0-0.4,0.1-0.6,0.1c-0.2,0-0.5,0.1-0.7,0.2
					c-0.4,0.1-0.7,0.1-1.1,0.2c-0.2,0-0.4,0.1-0.5,0.1c-0.1,0-0.2,0-0.2,0c0.1,0,0.1,0,0.2,0c0.6-0.1,1.2-0.3,1.7-0.5
					c0.3-0.1,0.6-0.2,0.8-0.2c0.7-0.2,1.5-0.4,2.2-0.6c0.1,0,0.1,0,0.1-0.1c0,0,0.1-0.1,0.1-0.1c0,0,0.1-0.1,0.2,0
					c0,0,0.1,0,0.1-0.1c0-0.1,0-0.1,0-0.2c0,0,0-0.1,0-0.1c-0.1-0.3-0.3-0.4-0.5-0.5c-0.1,0-0.1,0-0.2,0c-0.3,0.1-0.6,0.1-0.9,0.2
					c-0.1,0-0.2,0-0.2,0.1c0,0,0,0,0.1,0c0.2-0.1,0.5-0.2,0.8-0.3c0.1,0,0.2,0,0.2-0.1c0,0,0,0,0-0.1c0,0,0-0.1,0-0.1
					c0,0,0-0.1,0-0.1c0,0,0,0,0,0c0,0,0,0,0.1,0c0,0,0,0,0,0c0,0,0.1-0.1,0-0.1c-0.1-0.1,0-0.2-0.1-0.2c0,0,0-0.1-0.1-0.1
					c0,0,0,0,0,0c-0.1-0.1-0.1-0.1-0.2-0.1c-0.3,0-0.6,0.1-0.9,0.2c-0.1,0-0.2,0.1-0.4,0.1c-0.2,0-0.3-0.1-0.3-0.3
					c0-0.1-0.1-0.2-0.2-0.2c-0.2,0-0.5-0.1-0.7,0.2c0,0-0.1,0-0.1,0h-0.1c-0.1,0-0.1,0-0.2,0c-0.1,0-0.1,0-0.1,0.1c0,0,0,0,0,0
					c0,0-0.1,0-0.1,0c0,0-0.1,0-0.1,0c0,0-0.1,0-0.1-0.1c0,0-0.1,0-0.1,0c-0.1,0.1-0.1,0.1,0,0.2c0,0,0,0,0,0l0,0
					c-0.1,0-0.1,0-0.2,0c0,0,0,0,0,0.1c0,0,0,0,0,0c-0.1,0.1-0.3,0.1-0.4-0.1c0,0,0,0-0.1,0c-0.1-0.1-0.2-0.1-0.3,0l0,0
					c-0.1,0-0.2,0-0.2-0.1c0,0-0.1-0.1-0.1,0c-0.1,0-0.1,0-0.1-0.1c0-0.1,0.1-0.2,0-0.3c0,0,0,0,0,0c-0.2-0.1-0.4-0.1-0.6-0.1
					c0,0-0.1,0-0.1,0c-0.1-0.1-0.3-0.2-0.5-0.2c-0.3,0-0.7,0-1,0.1c-0.1,0-0.2,0-0.2,0c-0.1-0.1-0.2-0.1-0.3-0.1
					c-0.1,0-0.2,0-0.3,0.1c0,0,0,0-0.1,0c-0.5,0.1-1,0.2-1.5,0.3c-0.8,0.2-1.6,0.4-2.4,0.5c-0.4,0.1-0.9,0.2-1.3,0.2
					c-0.2,0-0.5,0.1-0.7,0.1c-0.1,0-0.2,0-0.3,0c-0.2,0-0.3,0-0.5,0.1c-0.7,0.2-1.4,0.3-2.2,0.4c-0.6,0.1-1.3,0.2-1.9,0.3
					c-0.8,0.1-1.6,0.3-2.5,0.4c-0.2,0-0.3,0-0.5,0.1c-0.1,0-0.2,0-0.2,0c0,0-0.1,0-0.1,0c-0.1,0-0.1,0-0.2,0.1c0,0,0,0-0.1,0
					c0,0,0,0,0,0c-0.2-0.1-0.5,0-0.7,0.1c-0.1,0-0.2,0-0.3,0c0,0-0.1,0-0.1,0c-0.4,0.1-0.9,0.1-1.4,0.2c-0.3,0-0.5,0.1-0.8,0.1
					c-0.4,0.1-0.9,0.1-1.3,0.2c-0.2,0-0.4,0-0.5,0.1c-0.1,0-0.1,0-0.2,0c-0.2,0-0.3,0-0.5,0c0,0-0.1,0-0.1,0c-0.1,0-0.2,0-0.3,0
					c0,0-0.1,0-0.1,0c0,0,0,0-0.1,0c-0.1,0-0.2,0-0.2,0c0,0-0.1,0-0.1,0c-0.1,0-0.2,0-0.3,0H137c-0.1,0-0.2,0.1-0.4,0h0
					c-0.4,0.1-0.7,0.1-1.1,0.1c0,0,0,0,0,0c-0.1,0-0.2,0-0.3,0c-0.1,0-0.1,0-0.2,0c-0.1,0-0.2,0-0.3,0c-0.1,0-0.2,0-0.3,0
					c0,0,0,0,0,0c-0.1,0-0.2,0-0.2,0c-0.1,0-0.3,0-0.4,0c-0.1,0-0.1,0-0.2,0c-0.1,0,0,0.1,0,0.1c0,0,0.1,0.1,0,0.2
					c-0.1,0-0.1-0.1-0.1-0.2c0,0,0-0.1,0-0.1c0,0-0.1,0-0.1,0c-0.1,0-0.3,0-0.4,0c-0.1,0-0.2,0-0.3,0c-0.2,0-0.5,0-0.7,0.1
					c0,0-0.1,0-0.1,0c0,0,0,0,0,0c-0.3,0-0.6,0.1-1,0.2c-0.1,0-0.1,0-0.2,0.1c-0.1,0-0.1,0.1-0.2,0.1c0,0,0,0,0,0c0,0,0,0,0,0
					c-0.2,0.1-0.3,0.4-0.2,0.6c0,0.1,0.1,0.2,0.1,0.3c0.1,0.3,0.4,0.5,0.7,0.5h0c0,0,0,0,0,0c0,0,0,0,0,0c0,0,0,0,0,0
					c0.1,0,0.2,0,0.3,0c0,0,0,0,0,0c0.1,0,0.3,0,0.4,0c0.1,0,0.1,0,0.2,0.1c0,0.2,0,0.2-0.1,0.3c-0.4,0.1-0.7,0.1-1.1,0.2
					c-0.1,0-0.1,0.1-0.2,0.1c-0.1,0.1-0.2,0.1-0.2,0.2c0,0,0,0.1,0,0.1c0,0,0,0.1,0,0.1c0,0.1,0,0.2,0,0.3c0,0,0,0,0,0
					c0,0.1,0,0.1,0.1,0.2c0,0,0,0,0,0.1c0,0,0,0.1,0,0.1c-0.1,0.1-0.2,0.2-0.2,0.4c0,0.1,0,0.3,0.1,0.5c0,0,0,0.1,0,0.1
					c0,0.1,0.1,0.3,0.2,0.4c0.1,0.1,0.1,0.1,0.2,0.1c0.1,0.1,0.2,0.1,0.3,0c0,0,0.1,0,0.1,0c-0.1,0.1-0.2,0.2-0.2,0.3c0,0,0,0,0,0
					c0,0,0,0,0,0c0,0.1,0.1,0.3,0,0.4c0,0,0,0,0,0c0,0,0,0.1,0.1,0.1c0,0,0,0.1,0,0.1c0,0,0,0,0,0.1c0.1,0.1,0.1,0.2,0.2,0.3
					c0,0,0,0.1,0,0.1c0,0,0,0,0,0c-0.1,0.1-0.1,0.2-0.1,0.3c0,0,0,0.1,0,0.1c0,0.2,0.1,0.3,0.1,0.4c0,0,0,0.1,0,0.1
					c0.1,0.2,0.2,0.4,0.5,0.5h0c0.1,0,0.2,0.1,0.2,0.1c0,0,0,0,0,0c0,0,0,0,0,0c0.1,0,0.2,0,0.3,0c0.3,0,0.6,0,0.9,0
					c0.1,0,0.1,0,0.2-0.1c0.2-0.2,0.5-0.2,0.7-0.2c0.4,0,0.8,0,1.2-0.1c0.1,0,0.2,0,0.3,0c0,0,0.1,0,0.1,0c0.1,0,0.2,0,0.3,0
					c0.1,0,0.1,0,0.2,0c0.1,0,0.2,0,0.3,0c0.1,0,0.1,0,0.2,0c0.5,0,0.9-0.1,1.4-0.1c0,0,0,0,0.1,0c0.1,0,0.1,0,0.2,0c0,0,0,0,0,0
					c0.1,0,0.1,0,0.2,0c0,0,0.1,0,0.1,0c0.5,0,1,0,1.5-0.1c0.3,0,0.6,0,0.8-0.1c0.7-0.1,1.4-0.1,2.1-0.2c0.2,0,0.3,0,0.5-0.1
					c0.1,0,0.2,0,0.2,0h0.1c0,0,0,0,0,0c0.2,0,0.4,0,0.5,0c0,0,0,0,0.1,0c0.1,0,0.2,0,0.4,0c0.1,0,0.2,0,0.3,0c0,0,0.1,0,0.1,0
					c0.5-0.1,1-0.1,1.5-0.2c0,0,0.1,0,0.1,0c0.1,0,0.2,0,0.3,0c0,0,0,0,0,0c0,0,0,0,0,0c0.8-0.1,1.5-0.2,2.3-0.3c0,0,0.1,0,0.1,0
					c0,0,0,0,0,0c0,0,0,0,0.1,0c0.1-0.1,0.3,0,0.4-0.1h0c0,0,0.1,0,0.1,0c0,0,0,0,0,0c0.1,0,0.2,0,0.3,0c0,0,0.1,0,0.1,0
					c0,0,0.1,0,0.1,0c0,0,0.1,0,0.1,0l0.1,0c0,0,0,0,0,0c0,0,0.1,0,0.1,0c0,0,0,0,0,0c0.1,0,0.2,0,0.3-0.1c0.2,0,0.4,0,0.6-0.1
					c0,0,0,0,0,0c0.1,0,0.2,0,0.2,0c0,0,0.1,0,0.1,0c0,0,0.1,0,0.1,0c0,0,0,0,0,0c0.1,0,0.1,0,0.2,0c0.3-0.1,0.5-0.1,0.8-0.2
					c0.2,0,0.5-0.1,0.7-0.2c0,0,0.1,0,0.1,0c0.2,0,0.4-0.1,0.5-0.2c0,0,0,0,0.1,0c0,0,0,0,0,0c0.3-0.1,0.6-0.2,0.9-0.2
					c0.2,0,0.5-0.1,0.7-0.2c0.6-0.1,1.1-0.3,1.7-0.5c0.4-0.1,0.8-0.2,1.3-0.3c0.2-0.1,0.5-0.1,0.7-0.2c0.2,0,0.4-0.1,0.6-0.1
					c0,0,0.1,0,0.1,0c0.3-0.1,0.7-0.1,1-0.2c0.2,0,0.4-0.1,0.6-0.2c0,0,0.1,0,0.1,0c0.1,0,0.3-0.1,0.4-0.1c0.1,0,0.3,0,0.4-0.1
					c0,0,0,0,0,0c0.1-0.1,0.3-0.2,0.4-0.2c0.1,0,0.1-0.1,0.1-0.2c0,0,0,0,0-0.1c0-0.1,0-0.3-0.1-0.4c-0.2-0.1-0.1,0.1-0.2,0.2
					c-0.1-0.1-0.1-0.2-0.2-0.2c-0.1,0-0.1,0-0.2-0.1c0,0,0,0,0-0.1c0,0,0,0,0,0c0,0,0,0,0,0c0,0-0.1-0.1-0.1-0.1c0,0,0,0,0,0
					c0,0,0,0,0,0c0,0,0.1,0,0.1,0c0.3-0.1,0.6-0.2,0.9-0.3c0.3-0.1,0.5-0.3,0.7-0.3c0.1,0,0.1-0.1,0.1-0.2c0-0.2-0.1-0.3-0.2-0.5
					c-0.1-0.1-0.1-0.1,0-0.1c0.1,0,0.2,0,0.3-0.1c0,0,0.1,0,0.1,0c0,0,0.1,0,0.1,0c0.1,0,0.3-0.1,0.4-0.2c0.1-0.1,0.2-0.1,0.2-0.2
					c0,0,0,0,0,0c0,0,0,0,0.1,0c0,0,0.1,0,0.1,0c0,0,0.1,0,0.1,0c0.3-0.1,0.5-0.1,0.8-0.2C168,159.9,168,159.8,168.1,159.6
					C168.1,159.7,168.1,159.7,168.1,159.6z M134.4,160.2L134.4,160.2C134.4,160.2,134.4,160.2,134.4,160.2L134.4,160.2z
					 M138.7,167.6C138.7,167.6,138.7,167.6,138.7,167.6C138.7,167.6,138.7,167.6,138.7,167.6C138.7,167.6,138.7,167.6,138.7,167.6z
					 M163.5,162.6C163.5,162.6,163.5,162.6,163.5,162.6C163.5,162.6,163.5,162.6,163.5,162.6L163.5,162.6z"/>
				<path id="XMLID_00000160178167199172032950000018012974325508569771_" class="st1" d="M154.3,178.3L154.3,178.3
					c0-0.1,0-0.2-0.1-0.2c-0.2-0.2-0.2-0.5-0.2-0.8c0-0.3,0-0.7-0.1-1c0-0.1,0-0.2,0-0.3c0-0.1,0-0.2,0-0.4c0,0,0-0.1,0-0.1
					c0,0,0,0,0,0c0-0.1,0-0.2,0-0.3c0-0.1,0-0.1,0-0.2c0-0.1,0-0.2,0-0.3c0-0.1,0-0.1,0-0.2c0-0.5-0.1-1-0.1-1.5c0,0,0,0,0-0.1
					c0-0.1,0-0.2,0-0.2c0,0,0,0,0,0c0-0.1,0-0.1,0-0.2c0,0,0-0.1,0-0.1c0-0.5,0-1-0.1-1.5c0,0,0-0.1,0-0.1c0-0.2,0-0.5-0.1-0.7
					c-0.1-0.7-0.1-1.5-0.2-2.2c0,0,0,0,0,0c0-0.2,0-0.3-0.1-0.5c0-0.1,0-0.2,0-0.3c0,0,0,0,0-0.1v-0.1c0-0.2,0-0.4,0-0.6
					c0,0,0,0,0-0.1c0,0,0-0.1,0-0.1c0-0.2,0-0.4-0.1-0.6c0,0,0-0.1,0-0.1c-0.1-0.5-0.1-1.1-0.2-1.6l0-0.2c0-0.1,0-0.2,0-0.3
					c0,0,0,0,0-0.1c0,0,0,0,0,0c-0.1-0.8-0.2-1.6-0.3-2.5c0,0,0-0.1,0-0.2c0,0,0,0,0,0c0,0,0,0,0-0.1c0-0.2,0-0.3-0.1-0.5
					c0,0,0,0,0,0c0,0,0-0.1,0-0.1c0,0,0,0,0,0c0-0.1,0-0.2,0-0.3c0,0,0-0.1,0-0.1c0,0,0-0.1,0-0.1v-0.1c0,0,0-0.1,0-0.1c0,0,0,0,0,0
					c0,0,0-0.1,0-0.1c0,0,0,0,0,0c0-0.1,0-0.2,0-0.3c0-0.2,0-0.4,0-0.6c0-0.1,0-0.2,0-0.2c0,0,0,0,0-0.1c0,0,0-0.1,0-0.1
					c0,0,0-0.1,0-0.1c0,0,0,0,0,0c0,0,0,0,0,0c0-0.4-0.1-0.7-0.2-1.1c0-0.3-0.1-0.5-0.1-0.8c0,0,0-0.1,0-0.1c0-0.2-0.1-0.4-0.2-0.6
					c0,0,0,0,0-0.1c0,0,0,0,0,0c0,0,0-0.1,0-0.1c-0.1-0.3-0.1-0.5-0.2-0.8c0-0.3-0.1-0.5-0.2-0.7c-0.1-0.6-0.3-1.2-0.4-1.8
					c-0.1-0.4-0.2-0.9-0.3-1.4c-0.1-0.2-0.1-0.5-0.1-0.7c0-0.2-0.1-0.5-0.1-0.7c0,0,0-0.1,0-0.1c-0.1-0.4-0.1-0.7-0.2-1.1
					c0-0.2-0.1-0.5-0.1-0.7c0,0,0-0.1,0-0.1c0-0.1-0.1-0.3-0.1-0.4c0-0.1,0-0.3-0.1-0.4c0,0,0,0,0-0.1c-0.1-0.1-0.2-0.3-0.2-0.4
					c0-0.1-0.1-0.1-0.2-0.1c0,0,0,0-0.1,0c-0.1,0-0.3,0-0.4,0.1c-0.1,0.2,0.1,0.2,0.2,0.2c-0.1,0.1-0.2,0.1-0.2,0.2
					c0,0.1,0,0.1-0.1,0.2c0,0,0,0-0.1,0c0,0,0,0,0,0c0,0,0,0,0,0c-0.1,0-0.1,0.1-0.1,0.1c0,0,0,0,0-0.1v0c0,0,0-0.1,0-0.1
					c-0.1-0.3-0.2-0.7-0.3-1c-0.1-0.3-0.3-0.5-0.3-0.8c0-0.1-0.1-0.1-0.2-0.1c-0.2,0-0.3,0.1-0.5,0.2c-0.1,0.1-0.1,0.1-0.1,0
					c0-0.1,0-0.2-0.1-0.4c0,0,0-0.1,0-0.1c0,0,0-0.1,0-0.1c0-0.2-0.1-0.3-0.2-0.4c-0.1-0.1-0.1-0.2-0.2-0.2c0,0,0,0,0,0
					c0,0,0,0,0-0.1c0,0,0-0.1,0-0.1c0,0,0-0.1,0-0.2c-0.1-0.3-0.1-0.6-0.2-0.8c0-0.2-0.1-0.2-0.2-0.3c0,0,0,0-0.1,0
					c0,0.1-0.1,0.2-0.2,0.3c-0.1,0.1,0,0.1,0,0.2c0,0.1,0.1,0.1,0.1,0.2c0.1,0.1,0,0.1-0.1,0.1c0.1,0,0.1,0.1,0.1,0.1c0,0,0,0,0,0
					c0.1,0.1,0.2,0.1,0.1,0.2c0,0-0.1,0.1-0.1,0.1c0.1,0,0,0.2,0.2,0.2c0,0,0.1,0,0.1,0.1c0,0.1,0,0.1,0,0.1l0,0
					c-0.1,0.1-0.2,0.2-0.2,0.4h0c0,0,0,0.1-0.1,0.1c0,0.1-0.1,0.1-0.1,0.2c0,0,0,0,0,0c0,0,0,0,0,0c0,0.1,0.1,0.2,0.1,0.2
					c0.1,0.1,0.1,0.2,0.1,0.3c-0.1,0.2,0,0.5,0,0.7c0,0.2,0.1,0.5,0.1,0.7c0,0.3,0.1,0.5,0.2,0.7c0.1,0.4,0.1,0.8,0.2,1.2
					c0,0.2,0,0.3,0.1,0.5c-0.1-0.6-0.3-1.2-0.4-1.8c-0.1-0.3-0.2-0.6-0.2-0.9c-0.2-0.8-0.4-1.6-0.6-2.4c0-0.1,0-0.1-0.1-0.2
					c0,0-0.1-0.1-0.1-0.1c0-0.1-0.1-0.1,0-0.2c0,0,0-0.1-0.1-0.1c-0.1,0-0.1,0-0.2,0c0,0-0.1,0-0.1,0c-0.3,0.1-0.4,0.3-0.5,0.6
					c0,0.1,0,0.1,0,0.2c0.1,0.3,0.1,0.6,0.2,0.9c0,0.1,0,0.1,0,0.2c-0.1-0.3-0.2-0.6-0.3-0.8c0-0.1,0-0.2-0.1-0.2c0,0,0,0-0.1,0
					c0,0-0.1,0-0.1,0c0,0-0.1,0-0.1,0c0,0,0,0,0,0c0,0,0,0-0.1-0.1c0,0,0,0,0,0c0,0-0.1-0.1-0.1,0c-0.1,0.1-0.2,0-0.2,0.1
					c0,0,0,0-0.1,0.1c0,0,0,0-0.1,0c-0.1,0.1-0.1,0.1-0.1,0.2c0,0.3,0.1,0.7,0.2,1c0,0.1,0.1,0.3,0.1,0.4c0,0.2-0.1,0.3-0.3,0.3
					c-0.1,0-0.2,0.1-0.2,0.2c0,0.2-0.1,0.5,0.2,0.7c0,0,0,0.1,0,0.1v0.1c0,0.1,0,0.1,0,0.2c0,0.1,0,0.2,0.1,0.2c0,0,0,0,0,0
					c0,0,0,0.1,0,0.1c0,0,0,0.1,0,0.1c0,0,0,0.1-0.1,0.1c0,0,0,0.1,0,0.1c0.1,0.1,0.1,0.1,0.2,0c0,0,0,0,0,0s0,0,0,0
					c0,0.1,0,0.1,0,0.2c0,0,0,0,0.1,0c0,0,0,0,0,0c0.1,0.1,0.1,0.3-0.1,0.4c0,0,0,0,0,0.1c-0.1,0.1-0.1,0.2,0,0.3c0,0,0,0,0,0
					c0,0.1,0,0.2-0.1,0.2c0,0-0.1,0.1,0,0.1c0,0.1,0,0.1-0.1,0.1c-0.1,0-0.2-0.1-0.3,0c0,0,0,0,0,0c-0.1,0.2-0.1,0.4-0.1,0.6
					c0,0,0,0.1,0,0.1c-0.1,0.2-0.2,0.3-0.2,0.5c0,0.4,0,0.7,0.1,1.1c0,0.1,0,0.2,0,0.2c-0.1,0.1-0.1,0.2-0.1,0.3c0,0.1,0,0.2,0,0.4
					c0,0,0,0,0,0.1c0.1,0.5,0.2,1.1,0.3,1.6c0.2,0.8,0.4,1.7,0.5,2.6c0.1,0.8,0.2,1.6,0.4,2.5c0,0.2,0,0.3,0.1,0.5
					c0,0.2,0.1,0.4,0.1,0.6c0.1,0.6,0.2,1.2,0.3,1.8c0.1,0.6,0.1,1.1,0.2,1.7c0,0.1,0,0.2,0,0.4c0,0.1,0,0.1,0,0.2
					c0.1,0.8,0.2,1.6,0.3,2.5c0,0.2,0,0.3,0.1,0.5c0,0.1,0,0.2,0,0.3c0,0,0,0.1,0,0.1c0,0.1,0,0.1,0.1,0.2c0,0,0,0.1,0,0.1
					c-0.1,0.2,0,0.3,0,0.5c0,0.1,0,0.1,0,0.2c0,0.1,0,0.2,0,0.3c0,0,0,0.1,0,0.1c0,0.3,0.1,0.6,0.1,0.8c0,0.5,0.1,1,0.1,1.5
					c0,0.5,0.1,0.9,0.1,1.4c0,0.2,0,0.4,0.1,0.6c0,0.1,0,0.1,0,0.2c0,0.2,0,0.4,0,0.6c0,0,0,0.1,0,0.1c0,0.1,0,0.2,0,0.3
					c0,0,0,0.1,0,0.1c0,0,0,0,0,0.1c0,0.1,0,0.2,0,0.3c0,0,0,0.1,0,0.1c0,0.1,0,0.2,0,0.3v0.1c0,0.1,0,0.3,0,0.4v0
					c0.1,0.4,0,0.8,0.1,1.2c0,0,0,0,0,0.1c0,0.1,0,0.2,0,0.3c0,0.1,0,0.1,0,0.2v0c0,0.1,0,0.2,0,0.3c0,0.1,0,0.2,0,0.4
					c0,0,0,0,0,0.1c0,0.1,0,0.1,0,0.2c0,0.2,0,0.3,0,0.5v0c0,0.1,0,0.1,0,0.2c0,0.1,0.1,0,0.1,0c0,0,0.1-0.1,0.2,0
					c0,0.1-0.1,0.1-0.2,0.1c0,0-0.1,0-0.1,0c0,0,0,0.1,0,0.1c0,0.1,0,0.3,0,0.4c0,0.3,0,0.6,0.1,0.9v0c0,0,0,0.1,0,0.1
					c0,0,0,0.1,0,0.1c0,0,0,0,0,0c0,0.3,0.1,0.7,0.2,1c0,0.1,0.1,0.3,0.2,0.4c0,0,0,0,0,0c0,0,0,0,0,0c0.1,0.2,0.4,0.3,0.6,0.2
					c0.1,0,0.2-0.1,0.3-0.1c0.3-0.2,0.5-0.4,0.5-0.8c0,0,0,0,0,0c0,0,0,0,0-0.1c0,0,0,0,0,0c0-0.1,0-0.2,0-0.4c0,0,0,0,0,0
					c0-0.1,0-0.3,0-0.4c0-0.1,0-0.1,0.1-0.2c0.2,0,0.2,0,0.3,0.2c0.1,0.4,0.1,0.8,0.2,1.2c0,0.1,0.1,0.3,0.2,0.4
					c0.1,0.1,0.1,0.1,0.3,0.2c0,0,0.1,0,0.1,0c0.1,0,0.2,0.1,0.3,0c0,0,0,0,0,0c0.1,0,0.1,0,0.2-0.1c0,0,0,0,0.1,0c0,0,0.1,0,0.1,0
					c0.3,0.3,0.5,0.3,0.9,0.1c0.2,0,0.3-0.1,0.5-0.3c0.1-0.1,0.1-0.1,0.1-0.2c0-0.1,0-0.2,0-0.2v0c0,0,0-0.1,0-0.1c0,0,0-0.1,0-0.2
					c0.1,0.1,0.2,0.2,0.3,0.2c0,0,0,0,0,0c0,0,0,0,0,0c0.1,0,0.3-0.1,0.4,0c0,0,0,0,0,0c0,0,0.1,0,0.1-0.1c0,0,0.1,0,0.1-0.1h0.1
					c0.1-0.1,0.2-0.1,0.3-0.2c0,0,0.1,0,0.1,0c0,0,0,0,0,0c0.1,0.1,0.2,0.1,0.3,0.1c0,0,0.1,0,0.1,0c0,0,0.1,0,0.1,0
					c0.1,0,0.2-0.1,0.3-0.1c0,0,0.1,0,0.1,0c0.2-0.1,0.4-0.2,0.5-0.5v0c0-0.1,0.1-0.2,0.1-0.3c0,0,0,0,0,0c0,0,0,0,0,0
					c0-0.1,0-0.2,0-0.3C154.3,178.9,154.3,178.6,154.3,178.3z M153.6,172.7C153.6,172.7,153.6,172.7,153.6,172.7
					C153.6,172.7,153.6,172.7,153.6,172.7C153.6,172.7,153.6,172.7,153.6,172.7z M148.9,146C148.9,146,148.9,146,148.9,146
					C148.9,146,148.9,146,148.9,146C148.9,146,148.9,146,148.9,146z M146,177.1C146,177.1,146,177.1,146,177.1
					C146,177.1,146,177.1,146,177.1C146,177.1,146,177.1,146,177.1z"/>
			</g>
			<path class="st114" d="M145.2,164.1c0,0-10.5-17.5-27.1-15.5c-16.6,2.1-36.3-24.6,9.8-28.6"/>
		</g>
	</g>
</g>
</svg>
