<svg width="98" height="132" viewBox="0 0 98 132" fill="none" xmlns="http://www.w3.org/2000/svg">
<g clip-path="url(#clip0_3288_2744)">
<path d="M4.43457 117.754C4.43457 117.754 7.48372 114.577 11.2724 114.269C15.0608 113.962 31.2315 113.04 31.2315 113.04L35.0322 106.431L64.9582 106.687L76.139 116.627L4.43492 117.754L4.43457 117.754Z" fill="#1A2E35"/>
<path opacity="0.6" d="M4.43457 117.754C4.43457 117.754 7.48372 114.577 11.2724 114.269C15.0608 113.962 31.2315 113.04 31.2315 113.04L35.0322 106.431L64.9582 106.687L76.139 116.627L4.43492 117.754L4.43457 117.754Z" fill="white"/>
<path d="M68.4721 112.822L63.9431 107.85L45.9681 107.688L44.0331 112.936L68.4721 112.822Z" fill="#007CFF"/>
<path opacity="0.4" d="M68.4721 112.822L63.9431 107.85L45.9681 107.688L44.0331 112.897L68.4721 112.822Z" fill="white"/>
<path opacity="0.3" d="M45.7397 108.307H63.6323L67.6373 112.826L68.5372 112.897L63.9431 107.85L45.9681 107.688L45.7397 108.307Z" fill="black"/>
<path opacity="0.4" d="M64.4779 109.261L56.3223 112.859H59.7918L65.3919 110.292L64.4779 109.261Z" fill="white"/>
<path opacity="0.4" d="M60.2626 108.307L48.208 112.936H45.5277L57.5957 108.307H60.2626Z" fill="white"/>
<path d="M21.9684 109.548V116.051C21.9684 116.204 22.2041 116.204 22.2041 116.051V109.548C22.2041 109.395 21.9684 109.395 21.9684 109.548Z" fill="#1A2E35"/>
<path d="M38.0669 109.548V116.051C38.0669 116.204 38.3026 116.204 38.3026 116.051V109.548C38.3026 109.395 38.0669 109.395 38.0669 109.548Z" fill="#1A2E35"/>
<path d="M54.1653 109.548V116.051C54.1653 116.204 54.401 116.204 54.401 116.051V109.548C54.401 109.395 54.1653 109.395 54.1653 109.548Z" fill="#1A2E35"/>
<path d="M70.7133 108.841V115.344C70.7133 115.497 70.949 115.497 70.949 115.344V108.841C70.949 108.688 70.7133 108.688 70.7133 108.841Z" fill="#1A2E35"/>
<path d="M86.8364 107.741V114.243C86.8364 114.397 87.0721 114.397 87.0721 114.243V107.741C87.0721 107.587 86.8364 107.587 86.8364 107.741Z" fill="#1A2E35"/>
<path d="M50.8378 0H48.8784V116.051H50.8378V0Z" fill="#1A2E35"/>
<path d="M7.98718 100.72L9.3518 97.6654" stroke="#1A2E35" stroke-width="0.669" stroke-miterlimit="10"/>
<path d="M46.7629 5.24206L48.8784 0.708374" stroke="#1A2E35" stroke-width="0.669" stroke-linecap="round" stroke-linejoin="round"/>
<path d="M43.9619 101.906L49.184 108.307H50.8378L55.1942 102.624" stroke="#1A2E35" stroke-width="0.669" stroke-miterlimit="10"/>
<path opacity="0.4" d="M50.8378 0H48.8784V116.051H50.8378V0Z" fill="white"/>
<path d="M48.8784 100.261H6.56055V101.938H48.8784V100.261Z" fill="#1A2E35"/>
<path d="M48.8784 100.261L45.4818 97.6654" stroke="#1A2E35" stroke-width="0.669" stroke-miterlimit="10"/>
<path d="M48.8929 110.588L42.3369 101.906" stroke="#1A2E35" stroke-width="0.669" stroke-miterlimit="10"/>
<path d="M7.98718 97.6653H46.2771L46.7629 4.7251L7.98718 97.6653Z" fill="#007CFF"/>
<path opacity="0.4" d="M7.98718 97.6653H46.2771L46.7629 4.7251L7.98718 97.6653Z" fill="white"/>
<path opacity="0.4" d="M48.8784 100.261H6.56055V101.938H48.8784V100.261Z" fill="white"/>
<path opacity="0.3" d="M7.98718 97.6654C7.98718 97.6654 55.1585 61.5471 35.0251 67.8901C20.453 72.4811 47.1801 10.1544 47.1801 10.1544L46.2771 97.6654H7.98718Z" fill="#007CFF"/>
<path d="M5.73083 109.666C5.73083 109.666 11.3591 112.173 22.0865 110.176C22.0865 110.176 30.9595 112.833 38.1849 110.307C38.1849 110.307 47.5099 112.458 54.2833 110.29C54.2833 110.29 64.4508 112.007 70.8314 109.666C70.8314 109.666 84.1008 111.214 86.9544 108.841C86.9544 108.841 91.9147 109.812 95.9451 107.741" stroke="#007CFF" stroke-width="0.669" stroke-miterlimit="10"/>
<path d="M5.73083 112.134C5.73083 112.134 11.3591 114.641 22.0865 112.644C22.0865 112.644 30.9595 115.302 38.1849 112.775C38.1849 112.775 47.5099 114.926 54.2833 112.758C54.2833 112.758 64.4508 114.475 70.8314 112.134C70.8314 112.134 84.1008 113.682 86.9544 111.31C86.9544 111.31 91.9147 112.28 95.9451 110.209" stroke="#007CFF" stroke-width="0.669" stroke-miterlimit="10"/>
<path d="M88.5431 108.494L90.7213 114.244" stroke="#1A2E35" stroke-width="0.446" stroke-miterlimit="10"/>
<path d="M55.1942 102.624C55.1942 102.624 78.0751 103.09 88.9378 108.692C88.9378 108.692 80.8484 36.8064 51.9586 5.99854C51.9586 5.99854 61.6656 72.9827 55.1942 102.624Z" fill="#007CFF"/>
<path opacity="0.4" d="M55.1942 102.624C55.1942 102.624 78.0751 103.09 88.9378 108.692C88.9378 108.692 80.8484 36.8064 51.9586 5.99854C51.9586 5.99854 61.6656 72.9827 55.1942 102.624Z" fill="white"/>
<path d="M0.378404 115.861C0.378404 115.861 3.99342 124.582 6.60391 127.725C9.21475 130.869 17.6494 131.782 20.4611 131.883C23.2728 131.984 74.9858 132.086 77.0945 131.883C79.2033 131.68 85.0271 130.565 88.6421 124.481C92.2571 118.396 97.3781 113.327 97.3781 113.327C97.2815 113.327 37.989 117.505 0.378052 115.862L0.378404 115.861Z" fill="#007CFF"/>
<path d="M1.9104 119.333L2.69823 121.001C2.69823 121.001 79.4538 119.702 93.2997 117.901L94.5058 116.459C94.5058 116.459 47.2855 119.333 1.9104 119.333Z" fill="white"/>
<path opacity="0.4" d="M0.378418 115.861C0.378418 115.861 0.998889 117.357 1.91039 119.333C1.91039 119.333 74.4153 119.447 94.5054 116.459C96.1657 114.528 97.3784 113.326 97.3784 113.326C97.2819 113.326 37.9893 117.505 0.378418 115.861Z" fill="white"/>
<path opacity="0.3" d="M33.986 125.683C34.4131 123.865 33.2997 122.041 31.4991 121.61C29.6985 121.178 27.8926 122.303 27.4654 124.121C27.0383 125.939 28.1517 127.763 29.9523 128.194C31.7529 128.626 33.5588 127.501 33.986 125.683Z" fill="black"/>
<path d="M31.6874 127.242C32.9775 126.706 33.5926 125.215 33.0613 123.912C32.5299 122.609 31.0534 121.988 29.7633 122.524C28.4732 123.061 27.8581 124.552 28.3894 125.855C28.9207 127.158 30.3973 127.779 31.6874 127.242Z" fill="#007CFF"/>
<path opacity="0.4" d="M31.6874 127.242C32.9775 126.706 33.5926 125.215 33.0613 123.912C32.5299 122.609 31.0534 121.988 29.7633 122.524C28.4732 123.061 27.8581 124.552 28.3894 125.855C28.9207 127.158 30.3973 127.779 31.6874 127.242Z" fill="white"/>
<path d="M32.3706 122.948L28.4667 126.023C28.4667 126.023 28.8701 126.722 29.2478 126.95L33.0626 123.913C33.0626 123.913 32.7631 123.228 32.3703 122.948L32.3706 122.948Z" fill="white"/>
<path opacity="0.3" d="M51.3122 127.275C52.5839 125.917 52.525 123.776 51.1806 122.491C49.8362 121.207 47.7154 121.267 46.4437 122.624C45.172 123.982 45.231 126.124 46.5754 127.408C47.9198 128.692 50.0405 128.632 51.3122 127.275Z" fill="black"/>
<path d="M50.6646 126.734C51.6512 125.738 51.6512 124.123 50.6646 123.126C49.678 122.13 48.0785 122.13 47.0919 123.126C46.1053 124.123 46.1053 125.738 47.0919 126.734C48.0785 127.731 49.678 127.731 50.6646 126.734Z" fill="#007CFF"/>
<path opacity="0.4" d="M50.6646 126.734C51.6512 125.738 51.6512 124.123 50.6646 123.126C49.678 122.13 48.0785 122.13 47.0919 123.126C46.1053 124.123 46.1053 125.738 47.0919 126.734C48.0785 127.731 49.678 127.731 50.6646 126.734Z" fill="white"/>
<path d="M50.5232 122.995L46.6193 126.071C46.6193 126.071 47.0227 126.769 47.4004 126.997L51.2152 123.961C51.2152 123.961 50.9157 123.275 50.5228 122.996L50.5232 122.995Z" fill="white"/>
<path opacity="0.3" d="M67.6162 127.275C68.9248 125.954 68.9248 123.811 67.6162 122.49C66.3077 121.168 64.1861 121.168 62.8775 122.49C61.569 123.811 61.569 125.954 62.8775 127.275C64.1861 128.597 66.3077 128.597 67.6162 127.275Z" fill="black"/>
<path d="M67.706 125.449C68.0254 124.077 67.1834 122.704 65.8252 122.381C64.4671 122.058 63.1071 122.909 62.7877 124.28C62.4682 125.652 63.3102 127.025 64.6684 127.348C66.0266 127.67 67.3865 126.82 67.706 125.449Z" fill="#007CFF"/>
<path opacity="0.4" d="M67.706 125.449C68.0254 124.077 67.1834 122.704 65.8252 122.381C64.4671 122.058 63.1071 122.909 62.7877 124.28C62.4682 125.652 63.3102 127.025 64.6684 127.348C66.0266 127.67 67.3865 126.82 67.706 125.449Z" fill="white"/>
<path d="M66.8915 122.929L62.9875 126.005C62.9875 126.005 63.391 126.703 63.7687 126.932L67.5835 123.895C67.5835 123.895 67.284 123.209 66.8911 122.93L66.8915 122.929Z" fill="white"/>
<path opacity="0.3" d="M52.2126 7.82202C52.2126 7.82202 56.9231 34.8352 63.6408 66.8521C67.093 83.306 76.0224 98.0717 88.9374 108.691C80.5169 104.739 68.6173 103.161 55.1938 102.623C55.1938 102.623 56.8554 93.4544 57.1056 87.0363C57.2571 83.1474 57.4766 75.6651 57.3818 68.8617C57.3202 64.4366 56.9463 60.2654 56.9481 57.6702C56.9523 50.5846 52.2126 7.82238 52.2126 7.82238V7.82202Z" fill="#007CFF"/>
<path d="M14.3889 113.424V116.06C14.3889 116.213 14.6246 116.213 14.6246 116.06V113.424C14.6246 113.271 14.3889 113.271 14.3889 113.424Z" fill="#1A2E35"/>
<path d="M14.9935 116.013H14.1088V116.595H14.9935V116.013Z" fill="#1A2E35"/>
<path d="M14.5513 121.268C15.8597 121.268 16.9204 120.197 16.9204 118.875C16.9204 117.554 15.8597 116.483 14.5513 116.483C13.2428 116.483 12.1821 117.554 12.1821 118.875C12.1821 120.197 13.2428 121.268 14.5513 121.268Z" fill="#007CFF"/>
<path opacity="0.3" d="M14.5513 121.268C15.8597 121.268 16.9204 120.197 16.9204 118.875C16.9204 117.554 15.8597 116.483 14.5513 116.483C13.2428 116.483 12.1821 117.554 12.1821 118.875C12.1821 120.197 13.2428 121.268 14.5513 121.268Z" fill="black"/>
<path opacity="0.2" d="M12.8943 117.572C12.8943 117.572 12.006 119.072 12.8323 120.17C13.7262 121.359 15.0756 120.922 15.0756 120.922C15.0756 120.922 13.7004 120.637 13.3615 119.775C12.8946 118.588 13.6261 117.836 13.6261 117.836L12.8943 117.572Z" fill="white"/>
<path d="M12.8943 117.166C12.8943 117.166 14.552 118.081 16.208 117.166C16.208 117.166 15.5915 116.429 14.5513 116.483C13.5116 116.536 13.0053 117.049 12.8943 117.166Z" fill="#1A2E35"/>
<path d="M45.23 113.424V116.06C45.23 116.213 45.4657 116.213 45.4657 116.06V113.424C45.4657 113.271 45.23 113.271 45.23 113.424Z" fill="#1A2E35"/>
<path d="M45.8342 116.013H44.9495V116.595H45.8342V116.013Z" fill="#1A2E35"/>
<path d="M45.392 121.268C46.7004 121.268 47.7611 120.197 47.7611 118.875C47.7611 117.554 46.7004 116.483 45.392 116.483C44.0835 116.483 43.0228 117.554 43.0228 118.875C43.0228 120.197 44.0835 121.268 45.392 121.268Z" fill="#007CFF"/>
<path opacity="0.3" d="M45.392 121.268C46.7004 121.268 47.7611 120.197 47.7611 118.875C47.7611 117.554 46.7004 116.483 45.392 116.483C44.0835 116.483 43.0228 117.554 43.0228 118.875C43.0228 120.197 44.0835 121.268 45.392 121.268Z" fill="black"/>
<path opacity="0.2" d="M43.735 117.572C43.735 117.572 42.8467 119.072 43.673 120.17C44.5669 121.359 45.9163 120.922 45.9163 120.922C45.9163 120.922 44.5411 120.637 44.2022 119.775C43.7353 118.588 44.4668 117.836 44.4668 117.836L43.735 117.572Z" fill="white"/>
<path d="M43.735 117.166C43.735 117.166 45.3927 118.081 47.0487 117.166C47.0487 117.166 46.4318 116.429 45.392 116.483C44.3523 116.536 43.846 117.049 43.735 117.166Z" fill="#1A2E35"/>
<path d="M78.8491 112.629V116.059C78.8491 116.213 79.0848 116.213 79.0848 116.059V112.629C79.0848 112.475 78.8491 112.475 78.8491 112.629Z" fill="#1A2E35"/>
<path d="M79.4534 116.013H78.5687V116.595H79.4534V116.013Z" fill="#1A2E35"/>
<path d="M79.0112 121.268C80.3197 121.268 81.3804 120.197 81.3804 118.875C81.3804 117.554 80.3197 116.483 79.0112 116.483C77.7028 116.483 76.6421 117.554 76.6421 118.875C76.6421 120.197 77.7028 121.268 79.0112 121.268Z" fill="#007CFF"/>
<path opacity="0.3" d="M79.0112 121.268C80.3197 121.268 81.3804 120.197 81.3804 118.875C81.3804 117.554 80.3197 116.483 79.0112 116.483C77.7028 116.483 76.6421 117.554 76.6421 118.875C76.6421 120.197 77.7028 121.268 79.0112 121.268Z" fill="black"/>
<path opacity="0.2" d="M77.3542 117.572C77.3542 117.572 76.466 119.072 77.2922 120.17C78.1861 121.359 79.5356 120.922 79.5356 120.922C79.5356 120.922 78.1604 120.637 77.8214 119.775C77.3546 118.588 78.0861 117.836 78.0861 117.836L77.3542 117.572Z" fill="white"/>
<path d="M77.3542 117.166C77.3542 117.166 79.012 118.081 80.668 117.166C80.668 117.166 80.0514 116.429 79.0113 116.483C77.9715 116.536 77.4652 117.049 77.3542 117.166Z" fill="#1A2E35"/>
<path opacity="0.3" d="M16.5543 97.6653C16.5543 97.6653 32.6513 97.2921 36.303 94.959C39.9547 92.626 46.4677 79.231 46.4677 79.231L46.2774 97.6657H16.5543" fill="#007CFF"/>
<path opacity="0.3" d="M12.1821 130.625L83.962 129.439C83.962 129.439 80.8571 131.813 77.0948 131.883C73.3322 131.953 19.3054 132 19.3054 132C19.3054 132 12.8981 130.834 12.1821 130.625Z" fill="black"/>
</g>
<defs>
<clipPath id="clip0_3288_2744">
<rect width="97" height="132" fill="white" transform="translate(0.378418)"/>
</clipPath>
</defs>
</svg>
